%TF.GenerationSoftware,KiCad,Pcbnew,8.0.4*%
%TF.CreationDate,2026-06-11T11:33:03-07:00*%
%TF.ProjectId,solar-planter-v2,736f6c61-722d-4706-9c61-6e7465722d76,rev?*%
%TF.SameCoordinates,Original*%
%TF.FileFunction,Copper,L2,Bot*%
%TF.FilePolarity,Positive*%
%FSLAX46Y46*%
G04 Gerber Fmt 4.6, Leading zero omitted, Abs format (unit mm)*
G04 Created by KiCad (PCBNEW 8.0.4) date 2026-06-11 11:33:03*
%MOMM*%
%LPD*%
G01*
G04 APERTURE LIST*
%TA.AperFunction,ComponentPad*%
%ADD10R,1.700000X1.700000*%
%TD*%
%TA.AperFunction,ComponentPad*%
%ADD11O,2.000000X0.900000*%
%TD*%
%TA.AperFunction,ComponentPad*%
%ADD12O,1.700000X0.900000*%
%TD*%
%TA.AperFunction,ComponentPad*%
%ADD13R,1.308000X1.308000*%
%TD*%
%TA.AperFunction,ComponentPad*%
%ADD14C,1.308000*%
%TD*%
%TA.AperFunction,ComponentPad*%
%ADD15C,2.400000*%
%TD*%
%TA.AperFunction,ViaPad*%
%ADD16C,0.600000*%
%TD*%
%TA.AperFunction,Conductor*%
%ADD17C,0.200000*%
%TD*%
%TA.AperFunction,Conductor*%
%ADD18C,0.400000*%
%TD*%
G04 APERTURE END LIST*
D10*
%TO.P,3V3,1,Pin_1*%
%TO.N,+3V3*%
X193250000Y-35500000D03*
%TD*%
%TO.P,D,1,Pin_1*%
%TO.N,GPIO18*%
X195750000Y-35500000D03*
%TD*%
%TO.P,5V,1,Pin_1*%
%TO.N,+5V*%
X188750000Y-67000000D03*
%TD*%
%TO.P,GND,1,Pin_1*%
%TO.N,GND*%
X193250000Y-67000000D03*
%TD*%
D11*
%TO.P,J1,S1,SHIELD*%
%TO.N,GND*%
X212830000Y-51325000D03*
%TO.P,J1,S2,SHIELD*%
X212830000Y-42675000D03*
D12*
%TO.P,J1,S3,SHIELD*%
X217000000Y-51325000D03*
%TO.P,J1,S4,SHIELD*%
X217000000Y-42675000D03*
%TD*%
D10*
%TO.P,3V3,1,Pin_1*%
%TO.N,+3V3*%
X168250000Y-44750000D03*
%TD*%
%TO.P,GND,1,Pin_1*%
%TO.N,GND*%
X198250000Y-35500000D03*
%TD*%
%TO.P,SDA,1,Pin_1*%
%TO.N,SDA*%
X168250000Y-51500000D03*
%TD*%
%TO.P,GND,1,Pin_1*%
%TO.N,GND*%
X168250000Y-47000000D03*
%TD*%
%TO.P,SCL,1,Pin_1*%
%TO.N,SCL*%
X168250000Y-49250000D03*
%TD*%
D13*
%TO.P,S1,1*%
%TO.N,unconnected-(S1-Pad1)*%
X216037500Y-60500000D03*
D14*
%TO.P,S1,2*%
%TO.N,Net-(D1-K)*%
X216037500Y-58500000D03*
%TO.P,S1,3*%
%TO.N,+IN*%
X216037500Y-56500000D03*
D15*
%TO.P,S1,SH1*%
%TO.N,N/C*%
X216037500Y-62600000D03*
%TO.P,S1,SH2*%
X216037500Y-54400000D03*
%TD*%
D10*
%TO.P,D,1,Pin_1*%
%TO.N,GPIO21*%
X191000000Y-67000000D03*
%TD*%
D16*
%TO.N,GND*%
X189250000Y-56500000D03*
X209750000Y-59250000D03*
X196500000Y-57250000D03*
X189750000Y-49000000D03*
X179750000Y-55500000D03*
X175250000Y-42750000D03*
X209000000Y-62500000D03*
X182250000Y-54750000D03*
X194000000Y-60000000D03*
X174500000Y-56750000D03*
X196500000Y-46000000D03*
X188750000Y-53500000D03*
X196500000Y-48750000D03*
%TO.N,GPIO9*%
X203825000Y-40575000D03*
X199000000Y-43500000D03*
X187000000Y-50750000D03*
X187500000Y-53500000D03*
%TO.N,CHIP_PU*%
X199750000Y-42500000D03*
X178500000Y-45250000D03*
X194000000Y-38750000D03*
%TO.N,+3V3*%
X192750000Y-41250000D03*
X174525000Y-40225000D03*
%TO.N,+SYS*%
X194250000Y-44750000D03*
X198250000Y-52500000D03*
X177764004Y-53843363D03*
X177250000Y-52000000D03*
%TO.N,Net-(D3-K)*%
X190684313Y-46184313D03*
X189250000Y-59750000D03*
%TO.N,GPIO14*%
X186500000Y-55250000D03*
X184000000Y-48250000D03*
%TO.N,SCL*%
X186500000Y-56250000D03*
X171500000Y-54500000D03*
X181250000Y-50750000D03*
%TO.N,SDA*%
X180250000Y-50250000D03*
X174750000Y-49500000D03*
X185875000Y-57525000D03*
%TO.N,BAT_LVL*%
X179000000Y-51000000D03*
X184500000Y-47600002D03*
%TO.N,GPIO23*%
X187000000Y-45000000D03*
X200250000Y-57000000D03*
%TO.N,GPIO22*%
X190250000Y-45250000D03*
X205000000Y-64500000D03*
%TO.N,GPIO21*%
X191250000Y-46750000D03*
%TD*%
D17*
%TO.N,GPIO9*%
X201000000Y-43500000D02*
X199000000Y-43500000D01*
X187000000Y-53000000D02*
X187500000Y-53500000D01*
X203825000Y-40675000D02*
X201000000Y-43500000D01*
X187000000Y-50750000D02*
X187000000Y-53000000D01*
X203825000Y-40575000D02*
X203825000Y-40675000D01*
%TO.N,CHIP_PU*%
X190250000Y-38750000D02*
X194000000Y-38750000D01*
X196250000Y-38750000D02*
X194000000Y-38750000D01*
X178500000Y-45250000D02*
X183750000Y-45250000D01*
X199750000Y-42500000D02*
X199750000Y-42250000D01*
X183750000Y-45250000D02*
X190250000Y-38750000D01*
X199750000Y-42250000D02*
X196250000Y-38750000D01*
D18*
%TO.N,+3V3*%
X183424262Y-46500002D02*
X188674264Y-41250000D01*
X174525000Y-40225000D02*
X174525000Y-43514950D01*
X188674264Y-41250000D02*
X192750000Y-41250000D01*
X177510052Y-46500002D02*
X183424262Y-46500002D01*
X174525000Y-43514950D02*
X177510052Y-46500002D01*
%TO.N,+SYS*%
X183672790Y-47100002D02*
X181649998Y-47100002D01*
X193000000Y-42500000D02*
X188272792Y-42500000D01*
D17*
X198375000Y-52375000D02*
X198375000Y-52500000D01*
D18*
X198375000Y-52500000D02*
X198375000Y-52500000D01*
X188272792Y-42500000D02*
X183672790Y-47100002D01*
X177764004Y-53843363D02*
X177764004Y-52514004D01*
X198250000Y-52375000D02*
X198250000Y-52500000D01*
X194250000Y-44750000D02*
X194250000Y-48375000D01*
X181649998Y-47100002D02*
X177250000Y-51500000D01*
X177764004Y-52514004D02*
X177250000Y-52000000D01*
X177250000Y-51500000D02*
X177250000Y-52000000D01*
X198250000Y-52500000D02*
X198375000Y-52500000D01*
X194250000Y-48375000D02*
X198250000Y-52375000D01*
X194250000Y-43750000D02*
X193000000Y-42500000D01*
X194250000Y-44750000D02*
X194250000Y-43750000D01*
D17*
%TO.N,Net-(D3-K)*%
X190500000Y-59000000D02*
X190500000Y-46368626D01*
X189250000Y-59750000D02*
X189750000Y-59750000D01*
X189750000Y-59750000D02*
X190500000Y-59000000D01*
X190500000Y-46368626D02*
X190684313Y-46184313D01*
%TO.N,GPIO14*%
X185250000Y-48250000D02*
X186000000Y-49000000D01*
X186000000Y-49000000D02*
X186000000Y-54750000D01*
X184000000Y-48250000D02*
X185250000Y-48250000D01*
X186000000Y-54750000D02*
X186500000Y-55250000D01*
%TO.N,SCL*%
X186475000Y-56275000D02*
X186475000Y-58775000D01*
X175100000Y-55350000D02*
X172350000Y-55350000D01*
X186500000Y-56250000D02*
X186475000Y-56275000D01*
X186000000Y-59250000D02*
X179000000Y-59250000D01*
X172350000Y-55350000D02*
X171500000Y-54500000D01*
X186500000Y-56098529D02*
X181250000Y-50848529D01*
X186500000Y-56250000D02*
X186500000Y-56098529D01*
X179000000Y-59250000D02*
X175100000Y-55350000D01*
X186475000Y-58775000D02*
X186000000Y-59250000D01*
X181250000Y-50848529D02*
X181250000Y-50750000D01*
%TO.N,SDA*%
X180250000Y-50750000D02*
X185400000Y-55900000D01*
X185400000Y-55900000D02*
X185400000Y-57050000D01*
X168250000Y-51500000D02*
X170250000Y-51500000D01*
X170250000Y-51500000D02*
X172250000Y-49500000D01*
X180250000Y-50250000D02*
X180250000Y-50750000D01*
X185400000Y-57050000D02*
X185875000Y-57525000D01*
X172250000Y-49500000D02*
X174750000Y-49500000D01*
%TO.N,BAT_LVL*%
X184500000Y-47600002D02*
X182051469Y-47600002D01*
X179000000Y-50651471D02*
X179000000Y-51000000D01*
X182051469Y-47600002D02*
X179000000Y-50651471D01*
%TO.N,GPIO23*%
X200250000Y-57000000D02*
X200250000Y-56000000D01*
X192300000Y-45885785D02*
X191064215Y-44650000D01*
X192300000Y-48050000D02*
X192300000Y-45885785D01*
X200250000Y-56000000D02*
X192300000Y-48050000D01*
X187350000Y-44650000D02*
X187000000Y-45000000D01*
X191064215Y-44650000D02*
X187350000Y-44650000D01*
%TO.N,GPIO22*%
X205000000Y-64500000D02*
X205000000Y-64250000D01*
X191098529Y-45250000D02*
X190250000Y-45250000D01*
X191900000Y-51150000D02*
X191900000Y-46051471D01*
X205000000Y-64250000D02*
X191900000Y-51150000D01*
X191900000Y-46051471D02*
X191098529Y-45250000D01*
%TO.N,GPIO21*%
X191250000Y-46750000D02*
X191500000Y-47000000D01*
X191500000Y-66500000D02*
X191000000Y-67000000D01*
X191500000Y-47000000D02*
X191500000Y-66500000D01*
%TD*%
%TA.AperFunction,Conductor*%
%TO.N,GND*%
G36*
X215503736Y-33500726D02*
G01*
X215793796Y-33518271D01*
X215808659Y-33520076D01*
X216090798Y-33571780D01*
X216105335Y-33575363D01*
X216379172Y-33660695D01*
X216393163Y-33666000D01*
X216654743Y-33783727D01*
X216667989Y-33790680D01*
X216913465Y-33939075D01*
X216925776Y-33947573D01*
X217151573Y-34124473D01*
X217162781Y-34134403D01*
X217365596Y-34337218D01*
X217375526Y-34348426D01*
X217527586Y-34542517D01*
X217552422Y-34574217D01*
X217560926Y-34586537D01*
X217677398Y-34779205D01*
X217709316Y-34832004D01*
X217716275Y-34845263D01*
X217833997Y-35106831D01*
X217839306Y-35120832D01*
X217924635Y-35394663D01*
X217928219Y-35409201D01*
X217979923Y-35691340D01*
X217981728Y-35706205D01*
X217999274Y-35996263D01*
X217999500Y-36003750D01*
X217999500Y-41709469D01*
X217979815Y-41776508D01*
X217927011Y-41822263D01*
X217857853Y-41832207D01*
X217828048Y-41824030D01*
X217677109Y-41761509D01*
X217677097Y-41761506D01*
X217493570Y-41725000D01*
X217250000Y-41725000D01*
X217250000Y-42375000D01*
X216750000Y-42375000D01*
X216750000Y-41725000D01*
X216506430Y-41725000D01*
X216322902Y-41761506D01*
X216322894Y-41761508D01*
X216150008Y-41833119D01*
X216149999Y-41833124D01*
X215994410Y-41937086D01*
X215994406Y-41937089D01*
X215862089Y-42069406D01*
X215862086Y-42069410D01*
X215758124Y-42224999D01*
X215758119Y-42225008D01*
X215686507Y-42397896D01*
X215686506Y-42397899D01*
X215681115Y-42424999D01*
X215681116Y-42425000D01*
X216433012Y-42425000D01*
X216415795Y-42434940D01*
X216359940Y-42490795D01*
X216320444Y-42559204D01*
X216300000Y-42635504D01*
X216300000Y-42714496D01*
X216320444Y-42790796D01*
X216359940Y-42859205D01*
X216415795Y-42915060D01*
X216433012Y-42925000D01*
X215681116Y-42925000D01*
X215686506Y-42952100D01*
X215686507Y-42952103D01*
X215758119Y-43124991D01*
X215758124Y-43125000D01*
X215862086Y-43280589D01*
X215862089Y-43280593D01*
X215994406Y-43412910D01*
X215994410Y-43412913D01*
X216149999Y-43516875D01*
X216150008Y-43516880D01*
X216322894Y-43588491D01*
X216322902Y-43588493D01*
X216506428Y-43624999D01*
X216506431Y-43625000D01*
X216750000Y-43625000D01*
X216750000Y-42975000D01*
X217250000Y-42975000D01*
X217250000Y-43625000D01*
X217493569Y-43625000D01*
X217493571Y-43624999D01*
X217677097Y-43588493D01*
X217677105Y-43588491D01*
X217828047Y-43525969D01*
X217897516Y-43518500D01*
X217959996Y-43549775D01*
X217995648Y-43609864D01*
X217999500Y-43640530D01*
X217999500Y-50359469D01*
X217979815Y-50426508D01*
X217927011Y-50472263D01*
X217857853Y-50482207D01*
X217828048Y-50474030D01*
X217677109Y-50411509D01*
X217677097Y-50411506D01*
X217493570Y-50375000D01*
X217250000Y-50375000D01*
X217250000Y-51025000D01*
X216750000Y-51025000D01*
X216750000Y-50375000D01*
X216506430Y-50375000D01*
X216322902Y-50411506D01*
X216322894Y-50411508D01*
X216150008Y-50483119D01*
X216149999Y-50483124D01*
X215994410Y-50587086D01*
X215994406Y-50587089D01*
X215862089Y-50719406D01*
X215862086Y-50719410D01*
X215758124Y-50874999D01*
X215758119Y-50875008D01*
X215686507Y-51047896D01*
X215686506Y-51047899D01*
X215681115Y-51074999D01*
X215681116Y-51075000D01*
X216433012Y-51075000D01*
X216415795Y-51084940D01*
X216359940Y-51140795D01*
X216320444Y-51209204D01*
X216300000Y-51285504D01*
X216300000Y-51364496D01*
X216320444Y-51440796D01*
X216359940Y-51509205D01*
X216415795Y-51565060D01*
X216433012Y-51575000D01*
X215681116Y-51575000D01*
X215686506Y-51602100D01*
X215686507Y-51602103D01*
X215758119Y-51774991D01*
X215758124Y-51775000D01*
X215862086Y-51930589D01*
X215862089Y-51930593D01*
X215994406Y-52062910D01*
X215994410Y-52062913D01*
X216149999Y-52166875D01*
X216150008Y-52166880D01*
X216322894Y-52238491D01*
X216322902Y-52238493D01*
X216506428Y-52274999D01*
X216506431Y-52275000D01*
X216750000Y-52275000D01*
X216750000Y-51625000D01*
X217250000Y-51625000D01*
X217250000Y-52275000D01*
X217493569Y-52275000D01*
X217493571Y-52274999D01*
X217677097Y-52238493D01*
X217677105Y-52238491D01*
X217828047Y-52175969D01*
X217897516Y-52168500D01*
X217959996Y-52199775D01*
X217995648Y-52259864D01*
X217999500Y-52290530D01*
X217999500Y-68496249D01*
X217999274Y-68503736D01*
X217981728Y-68793794D01*
X217979923Y-68808659D01*
X217928219Y-69090798D01*
X217924635Y-69105336D01*
X217839306Y-69379167D01*
X217833997Y-69393168D01*
X217716275Y-69654736D01*
X217709316Y-69667995D01*
X217560928Y-69913459D01*
X217552422Y-69925782D01*
X217375526Y-70151573D01*
X217365596Y-70162781D01*
X217162781Y-70365596D01*
X217151573Y-70375526D01*
X216925782Y-70552422D01*
X216913459Y-70560928D01*
X216667995Y-70709316D01*
X216654736Y-70716275D01*
X216393168Y-70833997D01*
X216379167Y-70839306D01*
X216105336Y-70924635D01*
X216090798Y-70928219D01*
X215808659Y-70979923D01*
X215793794Y-70981728D01*
X215503736Y-70999274D01*
X215496249Y-70999500D01*
X168753751Y-70999500D01*
X168746264Y-70999274D01*
X168456205Y-70981728D01*
X168441340Y-70979923D01*
X168159201Y-70928219D01*
X168144663Y-70924635D01*
X167870832Y-70839306D01*
X167856831Y-70833997D01*
X167595263Y-70716275D01*
X167582004Y-70709316D01*
X167336540Y-70560928D01*
X167324217Y-70552422D01*
X167098426Y-70375526D01*
X167087218Y-70365596D01*
X166884403Y-70162781D01*
X166874473Y-70151573D01*
X166803584Y-70061090D01*
X166697573Y-69925776D01*
X166689075Y-69913465D01*
X166540680Y-69667989D01*
X166533727Y-69654743D01*
X166416000Y-69393163D01*
X166410693Y-69379167D01*
X166325364Y-69105336D01*
X166321780Y-69090798D01*
X166270076Y-68808659D01*
X166268271Y-68793794D01*
X166250726Y-68503736D01*
X166250500Y-68496249D01*
X166250500Y-68374038D01*
X167149500Y-68374038D01*
X167149500Y-68625961D01*
X167188910Y-68874785D01*
X167266760Y-69114383D01*
X167381132Y-69338848D01*
X167529201Y-69542649D01*
X167529205Y-69542654D01*
X167707345Y-69720794D01*
X167707350Y-69720798D01*
X167885117Y-69849952D01*
X167911155Y-69868870D01*
X168054184Y-69941747D01*
X168135616Y-69983239D01*
X168135618Y-69983239D01*
X168135621Y-69983241D01*
X168375215Y-70061090D01*
X168624038Y-70100500D01*
X168624039Y-70100500D01*
X168875961Y-70100500D01*
X168875962Y-70100500D01*
X169124785Y-70061090D01*
X169364379Y-69983241D01*
X169588845Y-69868870D01*
X169792656Y-69720793D01*
X169970793Y-69542656D01*
X170118870Y-69338845D01*
X170233241Y-69114379D01*
X170311090Y-68874785D01*
X170350500Y-68625962D01*
X170350500Y-68374038D01*
X213899500Y-68374038D01*
X213899500Y-68625961D01*
X213938910Y-68874785D01*
X214016760Y-69114383D01*
X214131132Y-69338848D01*
X214279201Y-69542649D01*
X214279205Y-69542654D01*
X214457345Y-69720794D01*
X214457350Y-69720798D01*
X214635117Y-69849952D01*
X214661155Y-69868870D01*
X214804184Y-69941747D01*
X214885616Y-69983239D01*
X214885618Y-69983239D01*
X214885621Y-69983241D01*
X215125215Y-70061090D01*
X215374038Y-70100500D01*
X215374039Y-70100500D01*
X215625961Y-70100500D01*
X215625962Y-70100500D01*
X215874785Y-70061090D01*
X216114379Y-69983241D01*
X216338845Y-69868870D01*
X216542656Y-69720793D01*
X216720793Y-69542656D01*
X216868870Y-69338845D01*
X216983241Y-69114379D01*
X217061090Y-68874785D01*
X217100500Y-68625962D01*
X217100500Y-68374038D01*
X217061090Y-68125215D01*
X216983241Y-67885621D01*
X216983239Y-67885618D01*
X216983239Y-67885616D01*
X216941747Y-67804184D01*
X216868870Y-67661155D01*
X216849952Y-67635117D01*
X216720798Y-67457350D01*
X216720794Y-67457345D01*
X216542654Y-67279205D01*
X216542649Y-67279201D01*
X216338848Y-67131132D01*
X216338847Y-67131131D01*
X216338845Y-67131130D01*
X216210679Y-67065826D01*
X216114383Y-67016760D01*
X215874785Y-66938910D01*
X215844883Y-66934174D01*
X215625962Y-66899500D01*
X215374038Y-66899500D01*
X215249626Y-66919205D01*
X215125214Y-66938910D01*
X214885616Y-67016760D01*
X214661151Y-67131132D01*
X214457350Y-67279201D01*
X214457345Y-67279205D01*
X214279205Y-67457345D01*
X214279201Y-67457350D01*
X214131132Y-67661151D01*
X214016760Y-67885616D01*
X213938910Y-68125214D01*
X213899500Y-68374038D01*
X170350500Y-68374038D01*
X170311090Y-68125215D01*
X170233241Y-67885621D01*
X170233239Y-67885618D01*
X170233239Y-67885616D01*
X170191747Y-67804184D01*
X170118870Y-67661155D01*
X170099952Y-67635117D01*
X169970798Y-67457350D01*
X169970794Y-67457345D01*
X169792654Y-67279205D01*
X169792649Y-67279201D01*
X169588848Y-67131132D01*
X169588847Y-67131131D01*
X169588845Y-67131130D01*
X169460679Y-67065826D01*
X169364383Y-67016760D01*
X169124785Y-66938910D01*
X169094883Y-66934174D01*
X168875962Y-66899500D01*
X168624038Y-66899500D01*
X168499626Y-66919205D01*
X168375214Y-66938910D01*
X168135616Y-67016760D01*
X167911151Y-67131132D01*
X167707350Y-67279201D01*
X167707345Y-67279205D01*
X167529205Y-67457345D01*
X167529201Y-67457350D01*
X167381132Y-67661151D01*
X167266760Y-67885616D01*
X167188910Y-68125214D01*
X167149500Y-68374038D01*
X166250500Y-68374038D01*
X166250500Y-54499996D01*
X170694435Y-54499996D01*
X170694435Y-54500003D01*
X170714630Y-54679249D01*
X170714631Y-54679254D01*
X170774211Y-54849523D01*
X170807581Y-54902630D01*
X170870184Y-55002262D01*
X170997738Y-55129816D01*
X171150478Y-55225789D01*
X171320745Y-55285368D01*
X171407669Y-55295161D01*
X171472080Y-55322226D01*
X171481464Y-55330699D01*
X171981284Y-55830520D01*
X171981286Y-55830521D01*
X171981290Y-55830524D01*
X172057976Y-55874798D01*
X172118216Y-55909577D01*
X172270943Y-55950501D01*
X172270945Y-55950501D01*
X172436654Y-55950501D01*
X172436670Y-55950500D01*
X174799903Y-55950500D01*
X174866942Y-55970185D01*
X174887584Y-55986819D01*
X178515139Y-59614374D01*
X178515149Y-59614385D01*
X178519479Y-59618715D01*
X178519480Y-59618716D01*
X178631284Y-59730520D01*
X178718095Y-59780639D01*
X178718097Y-59780641D01*
X178756151Y-59802611D01*
X178768215Y-59809577D01*
X178920943Y-59850501D01*
X178920946Y-59850501D01*
X179086653Y-59850501D01*
X179086669Y-59850500D01*
X185913331Y-59850500D01*
X185913347Y-59850501D01*
X185920943Y-59850501D01*
X186079054Y-59850501D01*
X186079057Y-59850501D01*
X186231785Y-59809577D01*
X186281904Y-59780639D01*
X186368716Y-59730520D01*
X186480520Y-59618716D01*
X186480520Y-59618714D01*
X186490728Y-59608507D01*
X186490730Y-59608504D01*
X186833506Y-59265728D01*
X186833511Y-59265724D01*
X186843714Y-59255520D01*
X186843716Y-59255520D01*
X186955520Y-59143716D01*
X187034577Y-59006784D01*
X187075500Y-58854057D01*
X187075500Y-56857940D01*
X187095185Y-56790901D01*
X187111819Y-56770259D01*
X187129816Y-56752262D01*
X187225789Y-56599522D01*
X187285368Y-56429255D01*
X187286683Y-56417587D01*
X187305565Y-56250003D01*
X187305565Y-56249996D01*
X187285369Y-56070750D01*
X187285368Y-56070745D01*
X187225788Y-55900475D01*
X187172691Y-55815973D01*
X187153690Y-55748736D01*
X187172691Y-55684027D01*
X187225788Y-55599524D01*
X187225789Y-55599522D01*
X187285368Y-55429255D01*
X187293102Y-55360612D01*
X187305565Y-55250003D01*
X187305565Y-55249996D01*
X187285369Y-55070750D01*
X187285368Y-55070745D01*
X187225788Y-54900476D01*
X187186582Y-54838080D01*
X187129816Y-54747738D01*
X187002262Y-54620184D01*
X186921044Y-54569151D01*
X186849521Y-54524210D01*
X186756845Y-54491781D01*
X186683544Y-54466132D01*
X186626770Y-54425412D01*
X186601022Y-54360460D01*
X186600500Y-54349092D01*
X186600500Y-54003476D01*
X186620185Y-53936437D01*
X186672989Y-53890682D01*
X186742147Y-53880738D01*
X186805703Y-53909763D01*
X186829493Y-53937503D01*
X186870184Y-54002262D01*
X186997738Y-54129816D01*
X187150478Y-54225789D01*
X187320745Y-54285368D01*
X187320750Y-54285369D01*
X187499996Y-54305565D01*
X187500000Y-54305565D01*
X187500004Y-54305565D01*
X187679249Y-54285369D01*
X187679252Y-54285368D01*
X187679255Y-54285368D01*
X187849522Y-54225789D01*
X188002262Y-54129816D01*
X188129816Y-54002262D01*
X188225789Y-53849522D01*
X188285368Y-53679255D01*
X188287525Y-53660112D01*
X188305565Y-53500003D01*
X188305565Y-53499996D01*
X188285369Y-53320750D01*
X188285368Y-53320745D01*
X188272989Y-53285368D01*
X188225789Y-53150478D01*
X188129816Y-52997738D01*
X188002262Y-52870184D01*
X187960735Y-52844091D01*
X187849521Y-52774210D01*
X187756845Y-52741781D01*
X187683544Y-52716132D01*
X187626770Y-52675412D01*
X187601022Y-52610460D01*
X187600500Y-52599092D01*
X187600500Y-51332412D01*
X187620185Y-51265373D01*
X187627555Y-51255097D01*
X187629810Y-51252267D01*
X187629816Y-51252262D01*
X187725789Y-51099522D01*
X187785368Y-50929255D01*
X187789040Y-50896666D01*
X187805565Y-50750003D01*
X187805565Y-50749996D01*
X187785369Y-50570750D01*
X187785368Y-50570745D01*
X187775491Y-50542517D01*
X187725789Y-50400478D01*
X187629816Y-50247738D01*
X187502262Y-50120184D01*
X187349523Y-50024211D01*
X187179254Y-49964631D01*
X187179249Y-49964630D01*
X187000004Y-49944435D01*
X186999996Y-49944435D01*
X186820750Y-49964630D01*
X186820739Y-49964633D01*
X186765453Y-49983978D01*
X186695674Y-49987539D01*
X186635047Y-49952809D01*
X186602821Y-49890816D01*
X186600500Y-49866936D01*
X186600500Y-48920943D01*
X186594754Y-48899500D01*
X186559577Y-48768215D01*
X186511261Y-48684530D01*
X186480520Y-48631284D01*
X186368716Y-48519480D01*
X186368715Y-48519479D01*
X186364385Y-48515149D01*
X186364374Y-48515139D01*
X185737590Y-47888355D01*
X185737588Y-47888352D01*
X185618717Y-47769481D01*
X185618712Y-47769477D01*
X185500835Y-47701422D01*
X185500832Y-47701420D01*
X185481785Y-47690423D01*
X185481782Y-47690422D01*
X185458405Y-47684158D01*
X185392243Y-47666430D01*
X185332585Y-47630066D01*
X185302056Y-47567219D01*
X185301119Y-47560539D01*
X185285369Y-47420752D01*
X185285368Y-47420747D01*
X185257865Y-47342149D01*
X185225789Y-47250480D01*
X185225487Y-47250000D01*
X185129815Y-47097739D01*
X185002260Y-46970184D01*
X184996812Y-46965839D01*
X184998269Y-46964011D01*
X184959277Y-46919929D01*
X184948628Y-46850876D01*
X184977003Y-46787027D01*
X184983847Y-46779600D01*
X186228004Y-45535444D01*
X186289327Y-45501959D01*
X186359019Y-45506943D01*
X186403366Y-45535444D01*
X186497738Y-45629816D01*
X186650478Y-45725789D01*
X186820745Y-45785368D01*
X186820750Y-45785369D01*
X186999996Y-45805565D01*
X187000000Y-45805565D01*
X187000004Y-45805565D01*
X187179249Y-45785369D01*
X187179252Y-45785368D01*
X187179255Y-45785368D01*
X187349522Y-45725789D01*
X187502262Y-45629816D01*
X187629816Y-45502262D01*
X187725789Y-45349522D01*
X187731379Y-45333545D01*
X187772100Y-45276770D01*
X187837053Y-45251022D01*
X187848421Y-45250500D01*
X189333678Y-45250500D01*
X189400717Y-45270185D01*
X189446472Y-45322989D01*
X189456898Y-45360617D01*
X189464630Y-45429249D01*
X189524210Y-45599521D01*
X189558442Y-45654000D01*
X189620184Y-45752262D01*
X189747738Y-45879816D01*
X189836155Y-45935372D01*
X189882445Y-45987706D01*
X189893402Y-46054248D01*
X189878748Y-46184309D01*
X189878748Y-46184315D01*
X189898719Y-46361560D01*
X189899499Y-46375444D01*
X189899499Y-46457672D01*
X189899500Y-46457685D01*
X189899500Y-58699902D01*
X189879815Y-58766941D01*
X189863181Y-58787583D01*
X189674640Y-58976123D01*
X189613317Y-59009608D01*
X189546005Y-59005484D01*
X189429257Y-58964632D01*
X189429249Y-58964630D01*
X189250004Y-58944435D01*
X189249996Y-58944435D01*
X189070750Y-58964630D01*
X189070745Y-58964631D01*
X188900476Y-59024211D01*
X188747737Y-59120184D01*
X188620184Y-59247737D01*
X188524211Y-59400476D01*
X188464631Y-59570745D01*
X188464630Y-59570750D01*
X188444435Y-59749996D01*
X188444435Y-59750003D01*
X188464630Y-59929249D01*
X188464631Y-59929254D01*
X188524211Y-60099523D01*
X188620184Y-60252262D01*
X188747738Y-60379816D01*
X188900478Y-60475789D01*
X189070745Y-60535368D01*
X189070750Y-60535369D01*
X189249996Y-60555565D01*
X189250000Y-60555565D01*
X189250004Y-60555565D01*
X189429249Y-60535369D01*
X189429252Y-60535368D01*
X189429255Y-60535368D01*
X189599522Y-60475789D01*
X189752262Y-60379816D01*
X189752266Y-60379811D01*
X189755097Y-60377555D01*
X189757275Y-60376665D01*
X189758158Y-60376111D01*
X189758255Y-60376265D01*
X189819784Y-60351146D01*
X189826927Y-60350781D01*
X189829054Y-60350501D01*
X189829057Y-60350501D01*
X189981785Y-60309577D01*
X190031904Y-60280639D01*
X190118716Y-60230520D01*
X190230520Y-60118716D01*
X190230520Y-60118714D01*
X190240728Y-60108507D01*
X190240730Y-60108504D01*
X190687819Y-59661415D01*
X190749142Y-59627930D01*
X190818834Y-59632914D01*
X190874767Y-59674786D01*
X190899184Y-59740250D01*
X190899500Y-59749096D01*
X190899500Y-65525500D01*
X190879815Y-65592539D01*
X190827011Y-65638294D01*
X190775500Y-65649500D01*
X190102129Y-65649500D01*
X190102123Y-65649501D01*
X190042516Y-65655908D01*
X189918333Y-65702226D01*
X189848641Y-65707210D01*
X189831667Y-65702226D01*
X189707482Y-65655908D01*
X189707483Y-65655908D01*
X189647883Y-65649501D01*
X189647881Y-65649500D01*
X189647873Y-65649500D01*
X189647864Y-65649500D01*
X187852129Y-65649500D01*
X187852123Y-65649501D01*
X187792516Y-65655908D01*
X187657671Y-65706202D01*
X187657664Y-65706206D01*
X187542455Y-65792452D01*
X187542452Y-65792455D01*
X187456206Y-65907664D01*
X187456202Y-65907671D01*
X187405908Y-66042517D01*
X187399501Y-66102116D01*
X187399500Y-66102135D01*
X187399500Y-67897870D01*
X187399501Y-67897876D01*
X187405908Y-67957483D01*
X187456202Y-68092328D01*
X187456206Y-68092335D01*
X187542452Y-68207544D01*
X187542455Y-68207547D01*
X187657664Y-68293793D01*
X187657671Y-68293797D01*
X187792517Y-68344091D01*
X187792516Y-68344091D01*
X187799444Y-68344835D01*
X187852127Y-68350500D01*
X189647872Y-68350499D01*
X189707483Y-68344091D01*
X189831668Y-68297772D01*
X189901357Y-68292788D01*
X189918324Y-68297770D01*
X189994626Y-68326228D01*
X190042513Y-68344090D01*
X190042516Y-68344091D01*
X190049444Y-68344835D01*
X190102127Y-68350500D01*
X191897872Y-68350499D01*
X191957483Y-68344091D01*
X192082384Y-68297505D01*
X192152073Y-68292522D01*
X192169049Y-68297506D01*
X192292623Y-68343597D01*
X192292627Y-68343598D01*
X192352155Y-68349999D01*
X192352172Y-68350000D01*
X193000000Y-68350000D01*
X193000000Y-67433012D01*
X193057007Y-67465925D01*
X193184174Y-67500000D01*
X193315826Y-67500000D01*
X193442993Y-67465925D01*
X193500000Y-67433012D01*
X193500000Y-68350000D01*
X194147828Y-68350000D01*
X194147844Y-68349999D01*
X194207372Y-68343598D01*
X194207379Y-68343596D01*
X194342086Y-68293354D01*
X194342093Y-68293350D01*
X194457187Y-68207190D01*
X194457190Y-68207187D01*
X194543350Y-68092093D01*
X194543354Y-68092086D01*
X194593596Y-67957379D01*
X194593598Y-67957372D01*
X194599999Y-67897844D01*
X194600000Y-67897827D01*
X194600000Y-67250000D01*
X193683012Y-67250000D01*
X193715925Y-67192993D01*
X193750000Y-67065826D01*
X193750000Y-66934174D01*
X193715925Y-66807007D01*
X193683012Y-66750000D01*
X194600000Y-66750000D01*
X194600000Y-66102172D01*
X194599999Y-66102155D01*
X194593598Y-66042627D01*
X194593596Y-66042620D01*
X194543354Y-65907913D01*
X194543350Y-65907906D01*
X194457190Y-65792812D01*
X194457187Y-65792809D01*
X194342093Y-65706649D01*
X194342086Y-65706645D01*
X194207379Y-65656403D01*
X194207372Y-65656401D01*
X194147844Y-65650000D01*
X193500000Y-65650000D01*
X193500000Y-66566988D01*
X193442993Y-66534075D01*
X193315826Y-66500000D01*
X193184174Y-66500000D01*
X193057007Y-66534075D01*
X193000000Y-66566988D01*
X193000000Y-65650000D01*
X192352155Y-65650000D01*
X192292627Y-65656401D01*
X192292617Y-65656403D01*
X192267832Y-65665648D01*
X192198141Y-65670632D01*
X192136818Y-65637146D01*
X192103334Y-65575823D01*
X192100500Y-65549466D01*
X192100500Y-52499097D01*
X192120185Y-52432058D01*
X192172989Y-52386303D01*
X192242147Y-52376359D01*
X192305703Y-52405384D01*
X192312180Y-52411415D01*
X198245930Y-58345166D01*
X204173103Y-64272339D01*
X204206588Y-64333662D01*
X204208642Y-64373903D01*
X204194435Y-64499996D01*
X204194435Y-64500003D01*
X204214630Y-64679249D01*
X204214631Y-64679254D01*
X204274211Y-64849523D01*
X204370184Y-65002262D01*
X204497738Y-65129816D01*
X204650478Y-65225789D01*
X204820745Y-65285368D01*
X204820750Y-65285369D01*
X204999996Y-65305565D01*
X205000000Y-65305565D01*
X205000004Y-65305565D01*
X205179249Y-65285369D01*
X205179252Y-65285368D01*
X205179255Y-65285368D01*
X205349522Y-65225789D01*
X205502262Y-65129816D01*
X205629816Y-65002262D01*
X205725789Y-64849522D01*
X205785368Y-64679255D01*
X205805565Y-64500000D01*
X205791357Y-64373903D01*
X205785369Y-64320750D01*
X205785368Y-64320745D01*
X205764991Y-64262510D01*
X205725789Y-64150478D01*
X205629816Y-63997738D01*
X205502262Y-63870184D01*
X205502261Y-63870183D01*
X205425723Y-63822091D01*
X205404014Y-63804778D01*
X192536819Y-50937583D01*
X192503334Y-50876260D01*
X192500500Y-50849902D01*
X192500500Y-49399097D01*
X192520185Y-49332058D01*
X192572989Y-49286303D01*
X192642147Y-49276359D01*
X192705703Y-49305384D01*
X192712181Y-49311416D01*
X199613181Y-56212416D01*
X199646666Y-56273739D01*
X199649500Y-56300097D01*
X199649500Y-56417587D01*
X199629815Y-56484626D01*
X199622450Y-56494896D01*
X199620186Y-56497734D01*
X199524211Y-56650476D01*
X199464631Y-56820745D01*
X199464630Y-56820750D01*
X199444435Y-56999996D01*
X199444435Y-57000003D01*
X199464630Y-57179249D01*
X199464631Y-57179254D01*
X199524211Y-57349523D01*
X199567689Y-57418717D01*
X199620184Y-57502262D01*
X199747738Y-57629816D01*
X199838080Y-57686582D01*
X199889493Y-57718887D01*
X199900478Y-57725789D01*
X200070745Y-57785368D01*
X200070750Y-57785369D01*
X200249996Y-57805565D01*
X200250000Y-57805565D01*
X200250004Y-57805565D01*
X200429249Y-57785369D01*
X200429252Y-57785368D01*
X200429255Y-57785368D01*
X200599522Y-57725789D01*
X200752262Y-57629816D01*
X200879816Y-57502262D01*
X200975789Y-57349522D01*
X201035368Y-57179255D01*
X201041024Y-57129057D01*
X201055565Y-57000003D01*
X201055565Y-56999996D01*
X201035369Y-56820750D01*
X201035368Y-56820745D01*
X200975788Y-56650476D01*
X200881237Y-56500000D01*
X200879816Y-56497738D01*
X200879814Y-56497736D01*
X200879813Y-56497734D01*
X200877550Y-56494896D01*
X200876659Y-56492715D01*
X200876111Y-56491842D01*
X200876264Y-56491745D01*
X200851144Y-56430209D01*
X200850500Y-56417587D01*
X200850500Y-56089059D01*
X200850501Y-56089046D01*
X200850501Y-55920945D01*
X200850501Y-55920943D01*
X200809577Y-55768215D01*
X200771340Y-55701987D01*
X200730520Y-55631284D01*
X200618716Y-55519480D01*
X200618715Y-55519479D01*
X200614385Y-55515149D01*
X200614374Y-55515139D01*
X199499230Y-54399995D01*
X214332232Y-54399995D01*
X214332232Y-54400004D01*
X214351277Y-54654154D01*
X214407498Y-54900476D01*
X214407992Y-54902637D01*
X214501107Y-55139888D01*
X214628541Y-55360612D01*
X214787450Y-55559877D01*
X214974283Y-55733232D01*
X214974286Y-55733234D01*
X215000880Y-55751366D01*
X215045182Y-55805395D01*
X215053240Y-55874798D01*
X215042028Y-55909090D01*
X214956351Y-56081153D01*
X214956346Y-56081164D01*
X214897796Y-56286949D01*
X214897795Y-56286952D01*
X214878054Y-56499999D01*
X214878054Y-56500000D01*
X214897795Y-56713047D01*
X214897796Y-56713050D01*
X214956346Y-56918835D01*
X214956349Y-56918841D01*
X215051719Y-57110370D01*
X215180660Y-57281116D01*
X215320244Y-57408363D01*
X215356526Y-57468074D01*
X215354765Y-57537922D01*
X215320244Y-57591637D01*
X215180660Y-57718883D01*
X215051719Y-57889629D01*
X214956349Y-58081158D01*
X214956346Y-58081164D01*
X214897796Y-58286949D01*
X214897795Y-58286952D01*
X214878054Y-58499999D01*
X214878054Y-58500000D01*
X214897795Y-58713047D01*
X214897796Y-58713050D01*
X214956346Y-58918835D01*
X214956349Y-58918841D01*
X215051719Y-59110370D01*
X215149774Y-59240216D01*
X215174466Y-59305578D01*
X215159901Y-59373912D01*
X215125131Y-59414209D01*
X215025955Y-59488452D01*
X215025952Y-59488455D01*
X214939706Y-59603664D01*
X214939702Y-59603671D01*
X214889408Y-59738517D01*
X214883001Y-59798116D01*
X214883001Y-59798123D01*
X214883000Y-59798135D01*
X214883000Y-61201870D01*
X214883001Y-61201876D01*
X214890238Y-61269196D01*
X214888590Y-61269373D01*
X214885344Y-61329892D01*
X214852752Y-61379530D01*
X214787453Y-61440119D01*
X214787449Y-61440123D01*
X214628541Y-61639388D01*
X214501108Y-61860109D01*
X214407992Y-62097362D01*
X214407990Y-62097369D01*
X214351277Y-62345845D01*
X214332232Y-62599995D01*
X214332232Y-62600004D01*
X214351277Y-62854154D01*
X214351278Y-62854157D01*
X214407992Y-63102637D01*
X214501107Y-63339888D01*
X214628541Y-63560612D01*
X214787450Y-63759877D01*
X214974283Y-63933232D01*
X215184866Y-64076805D01*
X215184871Y-64076807D01*
X215184872Y-64076808D01*
X215184873Y-64076809D01*
X215306828Y-64135538D01*
X215414492Y-64187387D01*
X215414493Y-64187387D01*
X215414496Y-64187389D01*
X215658042Y-64262513D01*
X215910065Y-64300500D01*
X216164935Y-64300500D01*
X216416958Y-64262513D01*
X216660504Y-64187389D01*
X216890134Y-64076805D01*
X217100717Y-63933232D01*
X217287550Y-63759877D01*
X217446459Y-63560612D01*
X217573893Y-63339888D01*
X217667008Y-63102637D01*
X217723722Y-62854157D01*
X217742768Y-62600000D01*
X217723722Y-62345843D01*
X217667008Y-62097363D01*
X217573893Y-61860112D01*
X217446459Y-61639388D01*
X217287550Y-61440123D01*
X217287544Y-61440117D01*
X217287541Y-61440114D01*
X217222248Y-61379531D01*
X217186493Y-61319503D01*
X217186007Y-61269329D01*
X217184762Y-61269196D01*
X217186383Y-61254108D01*
X217192000Y-61201873D01*
X217191999Y-59798128D01*
X217185591Y-59738517D01*
X217182608Y-59730520D01*
X217135297Y-59603671D01*
X217135293Y-59603664D01*
X217049047Y-59488456D01*
X217049048Y-59488456D01*
X217049046Y-59488454D01*
X216949866Y-59414208D01*
X216907997Y-59358276D01*
X216903013Y-59288584D01*
X216925223Y-59240218D01*
X217023281Y-59110370D01*
X217118651Y-58918840D01*
X217118651Y-58918837D01*
X217118653Y-58918835D01*
X217177203Y-58713050D01*
X217177204Y-58713047D01*
X217196946Y-58500000D01*
X217196946Y-58499999D01*
X217177204Y-58286952D01*
X217177203Y-58286949D01*
X217118653Y-58081164D01*
X217118650Y-58081158D01*
X217091813Y-58027262D01*
X217023281Y-57889630D01*
X216894341Y-57718886D01*
X216754751Y-57591633D01*
X216718473Y-57531927D01*
X216720233Y-57462079D01*
X216754751Y-57408366D01*
X216894341Y-57281114D01*
X217023281Y-57110370D01*
X217118651Y-56918840D01*
X217118651Y-56918837D01*
X217118653Y-56918835D01*
X217160926Y-56770259D01*
X217177204Y-56713048D01*
X217196946Y-56500000D01*
X217190390Y-56429255D01*
X217177204Y-56286952D01*
X217177203Y-56286949D01*
X217173444Y-56273739D01*
X217137878Y-56148735D01*
X217118653Y-56081164D01*
X217118650Y-56081158D01*
X217032971Y-55909090D01*
X217020710Y-55840304D01*
X217047583Y-55775809D01*
X217074117Y-55751366D01*
X217100717Y-55733232D01*
X217100720Y-55733228D01*
X217100723Y-55733227D01*
X217216155Y-55626121D01*
X217287550Y-55559877D01*
X217446459Y-55360612D01*
X217573893Y-55139888D01*
X217667008Y-54902637D01*
X217723722Y-54654157D01*
X217738590Y-54455758D01*
X217742768Y-54400004D01*
X217742768Y-54399995D01*
X217723722Y-54145845D01*
X217720063Y-54129816D01*
X217667008Y-53897363D01*
X217573893Y-53660112D01*
X217446459Y-53439388D01*
X217287550Y-53240123D01*
X217100717Y-53066768D01*
X216890134Y-52923195D01*
X216890130Y-52923193D01*
X216890127Y-52923191D01*
X216890126Y-52923190D01*
X216660506Y-52812612D01*
X216660508Y-52812612D01*
X216416966Y-52737489D01*
X216416962Y-52737488D01*
X216416958Y-52737487D01*
X216275293Y-52716134D01*
X216164940Y-52699500D01*
X216164935Y-52699500D01*
X215910065Y-52699500D01*
X215910059Y-52699500D01*
X215753109Y-52723157D01*
X215658042Y-52737487D01*
X215658039Y-52737488D01*
X215658033Y-52737489D01*
X215414492Y-52812612D01*
X215184873Y-52923190D01*
X215184872Y-52923191D01*
X214974282Y-53066768D01*
X214787452Y-53240121D01*
X214787450Y-53240123D01*
X214628541Y-53439388D01*
X214501108Y-53660109D01*
X214407992Y-53897362D01*
X214407990Y-53897369D01*
X214351277Y-54145845D01*
X214332232Y-54399995D01*
X199499230Y-54399995D01*
X198535721Y-53436486D01*
X198502236Y-53375163D01*
X198507220Y-53305471D01*
X198549092Y-53249538D01*
X198582448Y-53231763D01*
X198599522Y-53225789D01*
X198752262Y-53129816D01*
X198879816Y-53002262D01*
X198900145Y-52969906D01*
X198917463Y-52948192D01*
X198919114Y-52946542D01*
X198995775Y-52831811D01*
X199048580Y-52704328D01*
X199057389Y-52660041D01*
X199075500Y-52568995D01*
X199075500Y-52431004D01*
X199048581Y-52295677D01*
X199048580Y-52295676D01*
X199048580Y-52295672D01*
X199046450Y-52290530D01*
X198995778Y-52168195D01*
X198995771Y-52168182D01*
X198919116Y-52053461D01*
X198919114Y-52053458D01*
X198917461Y-52051805D01*
X198900149Y-52030098D01*
X198879816Y-51997738D01*
X198752262Y-51870184D01*
X198752261Y-51870183D01*
X198719906Y-51849853D01*
X198698197Y-51832540D01*
X197940656Y-51074999D01*
X211361115Y-51074999D01*
X211361116Y-51075000D01*
X212113012Y-51075000D01*
X212095795Y-51084940D01*
X212039940Y-51140795D01*
X212000444Y-51209204D01*
X211980000Y-51285504D01*
X211980000Y-51364496D01*
X212000444Y-51440796D01*
X212039940Y-51509205D01*
X212095795Y-51565060D01*
X212113012Y-51575000D01*
X211361116Y-51575000D01*
X211366506Y-51602100D01*
X211366507Y-51602103D01*
X211438119Y-51774991D01*
X211438124Y-51775000D01*
X211542086Y-51930589D01*
X211542089Y-51930593D01*
X211674406Y-52062910D01*
X211674410Y-52062913D01*
X211829999Y-52166875D01*
X211830008Y-52166880D01*
X212002894Y-52238491D01*
X212002902Y-52238493D01*
X212186428Y-52274999D01*
X212186431Y-52275000D01*
X212580000Y-52275000D01*
X212580000Y-51625000D01*
X213080000Y-51625000D01*
X213080000Y-52275000D01*
X213473569Y-52275000D01*
X213473571Y-52274999D01*
X213657097Y-52238493D01*
X213657105Y-52238491D01*
X213829991Y-52166880D01*
X213830000Y-52166875D01*
X213985589Y-52062913D01*
X213985593Y-52062910D01*
X214117910Y-51930593D01*
X214117913Y-51930589D01*
X214221875Y-51775000D01*
X214221880Y-51774991D01*
X214293492Y-51602103D01*
X214293493Y-51602100D01*
X214298884Y-51575000D01*
X213546988Y-51575000D01*
X213564205Y-51565060D01*
X213620060Y-51509205D01*
X213659556Y-51440796D01*
X213680000Y-51364496D01*
X213680000Y-51285504D01*
X213659556Y-51209204D01*
X213620060Y-51140795D01*
X213564205Y-51084940D01*
X213546988Y-51075000D01*
X214298884Y-51075000D01*
X214298884Y-51074999D01*
X214293493Y-51047899D01*
X214293492Y-51047896D01*
X214221880Y-50875008D01*
X214221875Y-50874999D01*
X214117913Y-50719410D01*
X214117910Y-50719406D01*
X213985593Y-50587089D01*
X213985589Y-50587086D01*
X213830000Y-50483124D01*
X213829987Y-50483117D01*
X213771926Y-50459068D01*
X213717522Y-50415227D01*
X213695457Y-50348933D01*
X213712736Y-50281234D01*
X213731691Y-50256832D01*
X213760509Y-50228015D01*
X213832984Y-50102485D01*
X213870500Y-49962475D01*
X213870500Y-49817525D01*
X213832984Y-49677515D01*
X213760509Y-49551985D01*
X213658015Y-49449491D01*
X213658013Y-49449490D01*
X213658011Y-49449488D01*
X213532488Y-49377017D01*
X213532489Y-49377017D01*
X213521006Y-49373940D01*
X213392475Y-49339500D01*
X213247525Y-49339500D01*
X213118993Y-49373940D01*
X213107511Y-49377017D01*
X212981988Y-49449488D01*
X212981982Y-49449493D01*
X212879493Y-49551982D01*
X212879488Y-49551988D01*
X212807017Y-49677511D01*
X212807016Y-49677515D01*
X212769500Y-49817525D01*
X212769500Y-49962475D01*
X212794457Y-50055614D01*
X212807017Y-50102488D01*
X212879488Y-50228011D01*
X212879490Y-50228013D01*
X212879491Y-50228015D01*
X212981985Y-50330509D01*
X213018000Y-50351302D01*
X213066215Y-50401868D01*
X213080000Y-50458689D01*
X213080000Y-51025000D01*
X212580000Y-51025000D01*
X212580000Y-50375000D01*
X212186430Y-50375000D01*
X212002902Y-50411506D01*
X212002894Y-50411508D01*
X211830008Y-50483119D01*
X211829999Y-50483124D01*
X211674410Y-50587086D01*
X211674406Y-50587089D01*
X211542089Y-50719406D01*
X211542086Y-50719410D01*
X211438124Y-50874999D01*
X211438119Y-50875008D01*
X211366507Y-51047896D01*
X211366506Y-51047899D01*
X211361115Y-51074999D01*
X197940656Y-51074999D01*
X194986819Y-48121162D01*
X194953334Y-48059839D01*
X194950500Y-48033481D01*
X194950500Y-45175493D01*
X194969508Y-45109519D01*
X194975787Y-45099525D01*
X194975786Y-45099525D01*
X194975789Y-45099522D01*
X195035368Y-44929255D01*
X195035369Y-44929249D01*
X195055565Y-44750003D01*
X195055565Y-44749996D01*
X195035369Y-44570750D01*
X195035366Y-44570737D01*
X194975790Y-44400479D01*
X194969506Y-44390478D01*
X194950500Y-44324507D01*
X194950500Y-43681006D01*
X194945689Y-43656823D01*
X194945688Y-43656822D01*
X194945688Y-43656818D01*
X194923580Y-43545672D01*
X194923578Y-43545667D01*
X194870777Y-43418192D01*
X194794112Y-43303454D01*
X193446546Y-41955888D01*
X193409239Y-41930960D01*
X193364435Y-41877347D01*
X193355728Y-41808022D01*
X193377445Y-41758996D01*
X193376111Y-41758158D01*
X193396946Y-41725000D01*
X193475789Y-41599522D01*
X193535368Y-41429255D01*
X193535369Y-41429249D01*
X193555565Y-41250003D01*
X193555565Y-41249996D01*
X193535369Y-41070750D01*
X193535368Y-41070745D01*
X193475789Y-40900478D01*
X193379816Y-40747738D01*
X193252262Y-40620184D01*
X193180357Y-40575003D01*
X193099523Y-40524211D01*
X192929254Y-40464631D01*
X192929249Y-40464630D01*
X192750004Y-40444435D01*
X192749996Y-40444435D01*
X192570750Y-40464630D01*
X192570745Y-40464631D01*
X192400474Y-40524212D01*
X192390477Y-40530494D01*
X192324506Y-40549500D01*
X189599097Y-40549500D01*
X189532058Y-40529815D01*
X189486303Y-40477011D01*
X189476359Y-40407853D01*
X189505384Y-40344297D01*
X189511416Y-40337819D01*
X190462416Y-39386819D01*
X190523739Y-39353334D01*
X190550097Y-39350500D01*
X193417588Y-39350500D01*
X193484627Y-39370185D01*
X193494903Y-39377555D01*
X193497736Y-39379814D01*
X193497738Y-39379816D01*
X193650478Y-39475789D01*
X193820745Y-39535368D01*
X193820750Y-39535369D01*
X193999996Y-39555565D01*
X194000000Y-39555565D01*
X194000004Y-39555565D01*
X194179249Y-39535369D01*
X194179252Y-39535368D01*
X194179255Y-39535368D01*
X194349522Y-39475789D01*
X194502262Y-39379816D01*
X194502267Y-39379810D01*
X194505097Y-39377555D01*
X194507275Y-39376665D01*
X194508158Y-39376111D01*
X194508255Y-39376265D01*
X194569783Y-39351145D01*
X194582412Y-39350500D01*
X195949903Y-39350500D01*
X196016942Y-39370185D01*
X196037584Y-39386819D01*
X198923103Y-42272338D01*
X198956588Y-42333661D01*
X198958642Y-42373902D01*
X198944435Y-42499996D01*
X198944435Y-42500004D01*
X198952880Y-42574959D01*
X198940825Y-42643781D01*
X198893476Y-42695160D01*
X198843546Y-42712062D01*
X198820751Y-42714630D01*
X198820747Y-42714631D01*
X198650478Y-42774210D01*
X198497737Y-42870184D01*
X198370184Y-42997737D01*
X198274211Y-43150476D01*
X198214631Y-43320745D01*
X198214630Y-43320750D01*
X198194435Y-43499996D01*
X198194435Y-43500003D01*
X198214630Y-43679249D01*
X198214631Y-43679254D01*
X198274211Y-43849523D01*
X198356524Y-43980522D01*
X198370184Y-44002262D01*
X198497738Y-44129816D01*
X198650478Y-44225789D01*
X198809074Y-44281284D01*
X198820745Y-44285368D01*
X198820750Y-44285369D01*
X198999996Y-44305565D01*
X199000000Y-44305565D01*
X199000004Y-44305565D01*
X199179249Y-44285369D01*
X199179252Y-44285368D01*
X199179255Y-44285368D01*
X199349522Y-44225789D01*
X199502262Y-44129816D01*
X199502267Y-44129810D01*
X199505097Y-44127555D01*
X199507275Y-44126665D01*
X199508158Y-44126111D01*
X199508255Y-44126265D01*
X199569783Y-44101145D01*
X199582412Y-44100500D01*
X200913331Y-44100500D01*
X200913347Y-44100501D01*
X200920943Y-44100501D01*
X201079054Y-44100501D01*
X201079057Y-44100501D01*
X201231785Y-44059577D01*
X201293040Y-44024211D01*
X201368716Y-43980520D01*
X201480520Y-43868716D01*
X201480520Y-43868714D01*
X201490724Y-43858511D01*
X201490728Y-43858506D01*
X202924234Y-42424999D01*
X211361115Y-42424999D01*
X211361116Y-42425000D01*
X212113012Y-42425000D01*
X212095795Y-42434940D01*
X212039940Y-42490795D01*
X212000444Y-42559204D01*
X211980000Y-42635504D01*
X211980000Y-42714496D01*
X212000444Y-42790796D01*
X212039940Y-42859205D01*
X212095795Y-42915060D01*
X212113012Y-42925000D01*
X211361116Y-42925000D01*
X211366506Y-42952100D01*
X211366507Y-42952103D01*
X211438119Y-43124991D01*
X211438124Y-43125000D01*
X211542086Y-43280589D01*
X211542089Y-43280593D01*
X211674406Y-43412910D01*
X211674410Y-43412913D01*
X211829999Y-43516875D01*
X211830008Y-43516880D01*
X212002894Y-43588491D01*
X212002902Y-43588493D01*
X212186428Y-43624999D01*
X212186431Y-43625000D01*
X212580000Y-43625000D01*
X212580000Y-42975000D01*
X213080000Y-42975000D01*
X213080000Y-43541310D01*
X213060315Y-43608349D01*
X213018001Y-43648696D01*
X212981991Y-43669486D01*
X212981982Y-43669493D01*
X212879493Y-43771982D01*
X212879488Y-43771988D01*
X212807017Y-43897511D01*
X212807016Y-43897515D01*
X212769500Y-44037525D01*
X212769500Y-44182475D01*
X212807016Y-44322485D01*
X212807017Y-44322488D01*
X212879488Y-44448011D01*
X212879490Y-44448013D01*
X212879491Y-44448015D01*
X212981985Y-44550509D01*
X212981986Y-44550510D01*
X212981988Y-44550511D01*
X213107511Y-44622982D01*
X213107512Y-44622982D01*
X213107515Y-44622984D01*
X213247525Y-44660500D01*
X213247528Y-44660500D01*
X213392472Y-44660500D01*
X213392475Y-44660500D01*
X213532485Y-44622984D01*
X213658015Y-44550509D01*
X213760509Y-44448015D01*
X213832984Y-44322485D01*
X213870500Y-44182475D01*
X213870500Y-44037525D01*
X213832984Y-43897515D01*
X213806781Y-43852131D01*
X213760511Y-43771988D01*
X213760506Y-43771982D01*
X213731697Y-43743173D01*
X213698212Y-43681850D01*
X213703196Y-43612158D01*
X213745068Y-43556225D01*
X213771927Y-43540930D01*
X213829993Y-43516879D01*
X213830000Y-43516875D01*
X213985589Y-43412913D01*
X213985593Y-43412910D01*
X214117910Y-43280593D01*
X214117913Y-43280589D01*
X214221875Y-43125000D01*
X214221880Y-43124991D01*
X214293492Y-42952103D01*
X214293493Y-42952100D01*
X214298884Y-42925000D01*
X213546988Y-42925000D01*
X213564205Y-42915060D01*
X213620060Y-42859205D01*
X213659556Y-42790796D01*
X213680000Y-42714496D01*
X213680000Y-42635504D01*
X213659556Y-42559204D01*
X213620060Y-42490795D01*
X213564205Y-42434940D01*
X213546988Y-42425000D01*
X214298884Y-42425000D01*
X214298884Y-42424999D01*
X214293493Y-42397899D01*
X214293492Y-42397896D01*
X214221880Y-42225008D01*
X214221875Y-42224999D01*
X214117913Y-42069410D01*
X214117910Y-42069406D01*
X213985593Y-41937089D01*
X213985589Y-41937086D01*
X213830000Y-41833124D01*
X213829991Y-41833119D01*
X213657105Y-41761508D01*
X213657097Y-41761506D01*
X213473570Y-41725000D01*
X213080000Y-41725000D01*
X213080000Y-42375000D01*
X212580000Y-42375000D01*
X212580000Y-41725000D01*
X212186430Y-41725000D01*
X212002902Y-41761506D01*
X212002894Y-41761508D01*
X211830008Y-41833119D01*
X211829999Y-41833124D01*
X211674410Y-41937086D01*
X211674406Y-41937089D01*
X211542089Y-42069406D01*
X211542086Y-42069410D01*
X211438124Y-42224999D01*
X211438119Y-42225008D01*
X211366507Y-42397896D01*
X211366506Y-42397899D01*
X211361115Y-42424999D01*
X202924234Y-42424999D01*
X203960571Y-41388662D01*
X204007292Y-41359305D01*
X204174522Y-41300789D01*
X204327262Y-41204816D01*
X204454816Y-41077262D01*
X204550789Y-40924522D01*
X204610368Y-40754255D01*
X204610369Y-40754249D01*
X204630565Y-40575003D01*
X204630565Y-40574996D01*
X204610369Y-40395750D01*
X204610368Y-40395745D01*
X204550789Y-40225478D01*
X204454816Y-40072738D01*
X204327262Y-39945184D01*
X204216326Y-39875478D01*
X204174523Y-39849211D01*
X204004254Y-39789631D01*
X204004249Y-39789630D01*
X203825004Y-39769435D01*
X203824996Y-39769435D01*
X203645750Y-39789630D01*
X203645745Y-39789631D01*
X203475476Y-39849211D01*
X203322737Y-39945184D01*
X203195184Y-40072737D01*
X203099211Y-40225476D01*
X203039631Y-40395745D01*
X203039630Y-40395750D01*
X203019435Y-40574996D01*
X203019435Y-40579967D01*
X202999750Y-40647006D01*
X202983116Y-40667648D01*
X200787584Y-42863181D01*
X200726261Y-42896666D01*
X200699903Y-42899500D01*
X200633063Y-42899500D01*
X200566024Y-42879815D01*
X200520269Y-42827011D01*
X200510325Y-42757853D01*
X200516022Y-42734545D01*
X200535366Y-42679262D01*
X200535369Y-42679249D01*
X200555565Y-42500003D01*
X200555565Y-42499996D01*
X200535369Y-42320750D01*
X200535368Y-42320745D01*
X200475788Y-42150476D01*
X200436582Y-42088080D01*
X200379816Y-41997738D01*
X200252262Y-41870184D01*
X200252261Y-41870183D01*
X200175723Y-41822091D01*
X200154013Y-41804777D01*
X200114397Y-41765160D01*
X200114374Y-41765139D01*
X196737590Y-38388355D01*
X196737588Y-38388352D01*
X196618717Y-38269481D01*
X196618709Y-38269475D01*
X196516936Y-38210717D01*
X196516934Y-38210716D01*
X196481790Y-38190425D01*
X196481789Y-38190424D01*
X196469263Y-38187067D01*
X196329057Y-38149499D01*
X196170943Y-38149499D01*
X196163347Y-38149499D01*
X196163331Y-38149500D01*
X194582412Y-38149500D01*
X194515373Y-38129815D01*
X194505097Y-38122445D01*
X194502263Y-38120185D01*
X194502262Y-38120184D01*
X194445496Y-38084515D01*
X194349523Y-38024211D01*
X194179254Y-37964631D01*
X194179249Y-37964630D01*
X194000004Y-37944435D01*
X193999996Y-37944435D01*
X193820750Y-37964630D01*
X193820745Y-37964631D01*
X193650476Y-38024211D01*
X193497736Y-38120185D01*
X193494903Y-38122445D01*
X193492724Y-38123334D01*
X193491842Y-38123889D01*
X193491744Y-38123734D01*
X193430217Y-38148855D01*
X193417588Y-38149500D01*
X190329057Y-38149500D01*
X190170943Y-38149500D01*
X190018215Y-38190423D01*
X190018214Y-38190423D01*
X190018212Y-38190424D01*
X190018209Y-38190425D01*
X189983066Y-38210716D01*
X189983064Y-38210717D01*
X189881290Y-38269475D01*
X189881282Y-38269481D01*
X189769478Y-38381286D01*
X183537584Y-44613181D01*
X183476261Y-44646666D01*
X183449903Y-44649500D01*
X179082412Y-44649500D01*
X179015373Y-44629815D01*
X179005097Y-44622445D01*
X179002263Y-44620185D01*
X179002262Y-44620184D01*
X178945496Y-44584515D01*
X178849523Y-44524211D01*
X178679254Y-44464631D01*
X178679249Y-44464630D01*
X178500004Y-44444435D01*
X178499996Y-44444435D01*
X178320750Y-44464630D01*
X178320745Y-44464631D01*
X178150476Y-44524211D01*
X177997737Y-44620184D01*
X177870184Y-44747737D01*
X177774211Y-44900476D01*
X177714631Y-45070745D01*
X177714630Y-45070750D01*
X177694435Y-45249996D01*
X177694435Y-45250004D01*
X177711101Y-45397929D01*
X177699046Y-45466751D01*
X177651697Y-45518130D01*
X177584086Y-45535754D01*
X177517681Y-45514027D01*
X177500200Y-45499493D01*
X175261819Y-43261112D01*
X175228334Y-43199789D01*
X175225500Y-43173431D01*
X175225500Y-40650493D01*
X175244508Y-40584519D01*
X175250787Y-40574525D01*
X175250786Y-40574525D01*
X175250789Y-40574522D01*
X175310368Y-40404255D01*
X175310369Y-40404249D01*
X175330565Y-40225003D01*
X175330565Y-40224996D01*
X175310369Y-40045750D01*
X175310368Y-40045745D01*
X175250788Y-39875476D01*
X175154815Y-39722737D01*
X175027262Y-39595184D01*
X174874523Y-39499211D01*
X174704254Y-39439631D01*
X174704249Y-39439630D01*
X174525004Y-39419435D01*
X174524996Y-39419435D01*
X174345750Y-39439630D01*
X174345745Y-39439631D01*
X174175476Y-39499211D01*
X174022737Y-39595184D01*
X173895184Y-39722737D01*
X173799211Y-39875476D01*
X173739631Y-40045745D01*
X173739630Y-40045750D01*
X173719435Y-40224996D01*
X173719435Y-40225003D01*
X173739630Y-40404249D01*
X173739631Y-40404254D01*
X173799212Y-40574525D01*
X173805492Y-40584519D01*
X173824500Y-40650493D01*
X173824500Y-43445956D01*
X173824500Y-43583944D01*
X173824500Y-43583946D01*
X173824499Y-43583946D01*
X173851418Y-43719272D01*
X173851421Y-43719282D01*
X173904222Y-43846757D01*
X173980887Y-43961495D01*
X177063506Y-47044114D01*
X177178244Y-47120779D01*
X177305719Y-47173580D01*
X177305724Y-47173582D01*
X177305728Y-47173582D01*
X177305729Y-47173583D01*
X177441055Y-47200502D01*
X177441058Y-47200502D01*
X177441059Y-47200502D01*
X180259479Y-47200502D01*
X180326518Y-47220187D01*
X180372273Y-47272991D01*
X180382217Y-47342149D01*
X180353192Y-47405705D01*
X180347160Y-47412183D01*
X176705888Y-51053453D01*
X176705887Y-51053454D01*
X176629222Y-51168192D01*
X176576421Y-51295667D01*
X176576418Y-51295679D01*
X176555378Y-51401457D01*
X176555378Y-51401461D01*
X176549500Y-51431007D01*
X176549500Y-51574507D01*
X176530494Y-51640478D01*
X176524209Y-51650479D01*
X176464633Y-51820737D01*
X176464630Y-51820750D01*
X176444435Y-51999996D01*
X176444435Y-52000003D01*
X176464630Y-52179249D01*
X176464631Y-52179254D01*
X176524211Y-52349523D01*
X176584209Y-52445008D01*
X176620184Y-52502262D01*
X176747738Y-52629816D01*
X176900478Y-52725789D01*
X176980458Y-52753775D01*
X177037234Y-52794497D01*
X177062982Y-52859449D01*
X177063504Y-52870817D01*
X177063504Y-53417870D01*
X177044498Y-53483841D01*
X177038213Y-53493842D01*
X176978637Y-53664100D01*
X176978634Y-53664113D01*
X176958439Y-53843359D01*
X176958439Y-53843366D01*
X176978634Y-54022612D01*
X176978635Y-54022617D01*
X177038215Y-54192886D01*
X177118555Y-54320745D01*
X177134188Y-54345625D01*
X177261742Y-54473179D01*
X177414482Y-54569152D01*
X177560323Y-54620184D01*
X177584749Y-54628731D01*
X177584754Y-54628732D01*
X177764000Y-54648928D01*
X177764004Y-54648928D01*
X177764008Y-54648928D01*
X177943253Y-54628732D01*
X177943256Y-54628731D01*
X177943259Y-54628731D01*
X178113526Y-54569152D01*
X178266266Y-54473179D01*
X178393820Y-54345625D01*
X178489793Y-54192885D01*
X178549372Y-54022618D01*
X178551666Y-54002262D01*
X178569569Y-53843366D01*
X178569569Y-53843359D01*
X178549373Y-53664113D01*
X178549370Y-53664100D01*
X178489794Y-53493842D01*
X178483510Y-53483841D01*
X178464504Y-53417870D01*
X178464504Y-52445008D01*
X178464503Y-52445006D01*
X178437586Y-52309684D01*
X178437584Y-52309677D01*
X178437584Y-52309676D01*
X178436064Y-52306007D01*
X178415711Y-52256870D01*
X178392062Y-52199775D01*
X178384782Y-52182198D01*
X178384775Y-52182186D01*
X178308119Y-52067463D01*
X178270748Y-52030092D01*
X178210546Y-51969890D01*
X178078335Y-51837678D01*
X178044852Y-51776357D01*
X178049836Y-51706665D01*
X178078333Y-51662322D01*
X178216610Y-51524045D01*
X178277931Y-51490563D01*
X178347623Y-51495547D01*
X178391970Y-51524048D01*
X178497738Y-51629816D01*
X178650478Y-51725789D01*
X178791089Y-51774991D01*
X178820745Y-51785368D01*
X178820750Y-51785369D01*
X178999996Y-51805565D01*
X179000000Y-51805565D01*
X179000004Y-51805565D01*
X179179249Y-51785369D01*
X179179252Y-51785368D01*
X179179255Y-51785368D01*
X179349522Y-51725789D01*
X179502262Y-51629816D01*
X179629816Y-51502262D01*
X179725789Y-51349522D01*
X179731762Y-51332449D01*
X179772482Y-51275674D01*
X179837434Y-51249924D01*
X179905996Y-51263379D01*
X179936486Y-51285721D01*
X184763181Y-56112416D01*
X184796666Y-56173739D01*
X184799500Y-56200097D01*
X184799500Y-56963330D01*
X184799499Y-56963348D01*
X184799499Y-57129054D01*
X184799498Y-57129054D01*
X184840423Y-57281785D01*
X184853551Y-57304523D01*
X184919477Y-57418712D01*
X184919481Y-57418717D01*
X185038349Y-57537585D01*
X185038355Y-57537590D01*
X185044298Y-57543533D01*
X185077783Y-57604856D01*
X185079837Y-57617330D01*
X185089630Y-57704249D01*
X185149210Y-57874521D01*
X185149211Y-57874522D01*
X185245184Y-58027262D01*
X185372738Y-58154816D01*
X185525478Y-58250789D01*
X185695745Y-58310368D01*
X185764384Y-58318101D01*
X185828796Y-58345166D01*
X185868352Y-58402760D01*
X185874500Y-58441321D01*
X185874500Y-58474903D01*
X185854815Y-58541942D01*
X185838181Y-58562584D01*
X185787584Y-58613181D01*
X185726261Y-58646666D01*
X185699903Y-58649500D01*
X179300097Y-58649500D01*
X179233058Y-58629815D01*
X179212416Y-58613181D01*
X175587590Y-54988355D01*
X175587588Y-54988352D01*
X175468717Y-54869481D01*
X175468716Y-54869480D01*
X175375167Y-54815470D01*
X175331785Y-54790423D01*
X175179057Y-54749499D01*
X175020943Y-54749499D01*
X175013347Y-54749499D01*
X175013331Y-54749500D01*
X172650098Y-54749500D01*
X172583059Y-54729815D01*
X172562417Y-54713181D01*
X172330700Y-54481465D01*
X172297215Y-54420142D01*
X172295163Y-54407686D01*
X172285368Y-54320745D01*
X172225789Y-54150478D01*
X172129816Y-53997738D01*
X172002262Y-53870184D01*
X171969379Y-53849522D01*
X171849523Y-53774211D01*
X171679254Y-53714631D01*
X171679249Y-53714630D01*
X171500004Y-53694435D01*
X171499996Y-53694435D01*
X171320750Y-53714630D01*
X171320745Y-53714631D01*
X171150476Y-53774211D01*
X170997737Y-53870184D01*
X170870184Y-53997737D01*
X170774211Y-54150476D01*
X170714631Y-54320745D01*
X170714630Y-54320750D01*
X170694435Y-54499996D01*
X166250500Y-54499996D01*
X166250500Y-43852131D01*
X166899500Y-43852131D01*
X166899500Y-45647870D01*
X166899501Y-45647876D01*
X166905908Y-45707481D01*
X166905909Y-45707483D01*
X166952493Y-45832381D01*
X166957477Y-45902071D01*
X166952493Y-45919046D01*
X166906403Y-46042619D01*
X166906401Y-46042627D01*
X166900000Y-46102155D01*
X166900000Y-46750000D01*
X167816988Y-46750000D01*
X167784075Y-46807007D01*
X167750000Y-46934174D01*
X167750000Y-47065826D01*
X167784075Y-47192993D01*
X167816988Y-47250000D01*
X166900000Y-47250000D01*
X166900000Y-47897844D01*
X166906401Y-47957372D01*
X166906403Y-47957380D01*
X166952492Y-48080952D01*
X166957476Y-48150644D01*
X166952492Y-48167617D01*
X166905909Y-48292514D01*
X166905908Y-48292516D01*
X166899501Y-48352116D01*
X166899501Y-48352123D01*
X166899500Y-48352135D01*
X166899500Y-50147870D01*
X166899501Y-50147876D01*
X166905908Y-50207483D01*
X166952226Y-50331667D01*
X166957210Y-50401359D01*
X166952226Y-50418333D01*
X166905908Y-50542517D01*
X166899501Y-50602116D01*
X166899501Y-50602123D01*
X166899500Y-50602135D01*
X166899500Y-52397870D01*
X166899501Y-52397876D01*
X166905908Y-52457483D01*
X166956202Y-52592328D01*
X166956206Y-52592335D01*
X167042452Y-52707544D01*
X167042455Y-52707547D01*
X167157664Y-52793793D01*
X167157671Y-52793797D01*
X167292517Y-52844091D01*
X167292516Y-52844091D01*
X167299444Y-52844835D01*
X167352127Y-52850500D01*
X169147872Y-52850499D01*
X169207483Y-52844091D01*
X169342331Y-52793796D01*
X169457546Y-52707546D01*
X169543796Y-52592331D01*
X169594091Y-52457483D01*
X169600500Y-52397873D01*
X169600500Y-52224500D01*
X169620185Y-52157461D01*
X169672989Y-52111706D01*
X169724500Y-52100500D01*
X170163331Y-52100500D01*
X170163347Y-52100501D01*
X170170943Y-52100501D01*
X170329054Y-52100501D01*
X170329057Y-52100501D01*
X170481785Y-52059577D01*
X170531904Y-52030639D01*
X170618716Y-51980520D01*
X170730520Y-51868716D01*
X170730520Y-51868714D01*
X170740728Y-51858507D01*
X170740729Y-51858504D01*
X172462416Y-50136819D01*
X172523739Y-50103334D01*
X172550097Y-50100500D01*
X174167588Y-50100500D01*
X174234627Y-50120185D01*
X174244903Y-50127555D01*
X174247736Y-50129814D01*
X174247738Y-50129816D01*
X174400478Y-50225789D01*
X174463202Y-50247737D01*
X174570745Y-50285368D01*
X174570750Y-50285369D01*
X174749996Y-50305565D01*
X174750000Y-50305565D01*
X174750004Y-50305565D01*
X174929249Y-50285369D01*
X174929252Y-50285368D01*
X174929255Y-50285368D01*
X175099522Y-50225789D01*
X175252262Y-50129816D01*
X175379816Y-50002262D01*
X175475789Y-49849522D01*
X175535368Y-49679255D01*
X175535564Y-49677515D01*
X175555565Y-49500003D01*
X175555565Y-49499996D01*
X175535369Y-49320750D01*
X175535368Y-49320745D01*
X175518920Y-49273739D01*
X175475789Y-49150478D01*
X175379816Y-48997738D01*
X175252262Y-48870184D01*
X175220935Y-48850500D01*
X175099523Y-48774211D01*
X174929254Y-48714631D01*
X174929249Y-48714630D01*
X174750004Y-48694435D01*
X174749996Y-48694435D01*
X174570750Y-48714630D01*
X174570745Y-48714631D01*
X174400476Y-48774211D01*
X174247736Y-48870185D01*
X174244903Y-48872445D01*
X174242724Y-48873334D01*
X174241842Y-48873889D01*
X174241744Y-48873734D01*
X174180217Y-48898855D01*
X174167588Y-48899500D01*
X172329057Y-48899500D01*
X172170943Y-48899500D01*
X172018215Y-48940423D01*
X172018214Y-48940423D01*
X172018212Y-48940424D01*
X172018209Y-48940425D01*
X171983066Y-48960716D01*
X171983064Y-48960717D01*
X171881290Y-49019475D01*
X171881282Y-49019481D01*
X171801029Y-49099735D01*
X171769480Y-49131284D01*
X171769478Y-49131286D01*
X170898503Y-50002262D01*
X170037584Y-50863181D01*
X169976261Y-50896666D01*
X169949903Y-50899500D01*
X169724499Y-50899500D01*
X169657460Y-50879815D01*
X169611705Y-50827011D01*
X169600499Y-50775500D01*
X169600499Y-50602129D01*
X169600498Y-50602123D01*
X169594091Y-50542517D01*
X169547772Y-50418331D01*
X169542788Y-50348643D01*
X169547773Y-50331667D01*
X169594091Y-50207483D01*
X169600500Y-50147873D01*
X169600499Y-48352128D01*
X169594091Y-48292517D01*
X169547505Y-48167615D01*
X169542522Y-48097927D01*
X169547506Y-48080951D01*
X169593597Y-47957376D01*
X169593598Y-47957372D01*
X169599999Y-47897844D01*
X169600000Y-47897827D01*
X169600000Y-47250000D01*
X168683012Y-47250000D01*
X168715925Y-47192993D01*
X168750000Y-47065826D01*
X168750000Y-46934174D01*
X168715925Y-46807007D01*
X168683012Y-46750000D01*
X169600000Y-46750000D01*
X169600000Y-46102172D01*
X169599999Y-46102155D01*
X169593598Y-46042627D01*
X169593597Y-46042623D01*
X169547506Y-45919049D01*
X169542522Y-45849357D01*
X169547501Y-45832394D01*
X169594091Y-45707483D01*
X169600500Y-45647873D01*
X169600499Y-43852128D01*
X169594091Y-43792517D01*
X169586434Y-43771988D01*
X169543797Y-43657671D01*
X169543793Y-43657664D01*
X169457547Y-43542455D01*
X169457544Y-43542452D01*
X169342335Y-43456206D01*
X169342328Y-43456202D01*
X169207482Y-43405908D01*
X169207483Y-43405908D01*
X169147883Y-43399501D01*
X169147881Y-43399500D01*
X169147873Y-43399500D01*
X169147864Y-43399500D01*
X167352129Y-43399500D01*
X167352123Y-43399501D01*
X167292516Y-43405908D01*
X167157671Y-43456202D01*
X167157664Y-43456206D01*
X167042455Y-43542452D01*
X167042452Y-43542455D01*
X166956206Y-43657664D01*
X166956202Y-43657671D01*
X166905908Y-43792517D01*
X166901038Y-43837819D01*
X166899501Y-43852123D01*
X166899500Y-43852131D01*
X166250500Y-43852131D01*
X166250500Y-36003750D01*
X166250726Y-35996263D01*
X166258119Y-35874038D01*
X167149500Y-35874038D01*
X167149500Y-36125961D01*
X167188910Y-36374785D01*
X167266760Y-36614383D01*
X167326381Y-36731394D01*
X167358176Y-36793796D01*
X167381132Y-36838848D01*
X167529201Y-37042649D01*
X167529205Y-37042654D01*
X167707345Y-37220794D01*
X167707350Y-37220798D01*
X167885117Y-37349952D01*
X167911155Y-37368870D01*
X168054184Y-37441747D01*
X168135616Y-37483239D01*
X168135618Y-37483239D01*
X168135621Y-37483241D01*
X168375215Y-37561090D01*
X168624038Y-37600500D01*
X168624039Y-37600500D01*
X168875961Y-37600500D01*
X168875962Y-37600500D01*
X169124785Y-37561090D01*
X169364379Y-37483241D01*
X169588845Y-37368870D01*
X169792656Y-37220793D01*
X169970793Y-37042656D01*
X170118870Y-36838845D01*
X170233241Y-36614379D01*
X170311090Y-36374785D01*
X170350500Y-36125962D01*
X170350500Y-35874038D01*
X170311090Y-35625215D01*
X170233241Y-35385621D01*
X170233239Y-35385618D01*
X170233239Y-35385616D01*
X170191747Y-35304184D01*
X170118870Y-35161155D01*
X170084367Y-35113665D01*
X169970798Y-34957350D01*
X169970794Y-34957345D01*
X169792654Y-34779205D01*
X169792649Y-34779201D01*
X169588848Y-34631132D01*
X169588847Y-34631131D01*
X169588845Y-34631130D01*
X169531939Y-34602135D01*
X191899500Y-34602135D01*
X191899500Y-36397870D01*
X191899501Y-36397876D01*
X191905908Y-36457483D01*
X191956202Y-36592328D01*
X191956206Y-36592335D01*
X192042452Y-36707544D01*
X192042455Y-36707547D01*
X192157664Y-36793793D01*
X192157671Y-36793797D01*
X192292517Y-36844091D01*
X192292516Y-36844091D01*
X192299444Y-36844835D01*
X192352127Y-36850500D01*
X194147872Y-36850499D01*
X194207483Y-36844091D01*
X194342331Y-36793796D01*
X194425689Y-36731393D01*
X194491153Y-36706977D01*
X194559426Y-36721828D01*
X194574311Y-36731394D01*
X194657669Y-36793796D01*
X194657671Y-36793797D01*
X194792517Y-36844091D01*
X194792516Y-36844091D01*
X194799444Y-36844835D01*
X194852127Y-36850500D01*
X196647872Y-36850499D01*
X196707483Y-36844091D01*
X196842331Y-36793796D01*
X196926105Y-36731082D01*
X196991569Y-36706665D01*
X197059842Y-36721516D01*
X197074727Y-36731082D01*
X197157910Y-36793352D01*
X197157913Y-36793354D01*
X197292620Y-36843596D01*
X197292627Y-36843598D01*
X197352155Y-36849999D01*
X197352172Y-36850000D01*
X198000000Y-36850000D01*
X198000000Y-35933012D01*
X198057007Y-35965925D01*
X198184174Y-36000000D01*
X198315826Y-36000000D01*
X198442993Y-35965925D01*
X198500000Y-35933012D01*
X198500000Y-36850000D01*
X199147828Y-36850000D01*
X199147844Y-36849999D01*
X199207372Y-36843598D01*
X199207379Y-36843596D01*
X199342086Y-36793354D01*
X199342093Y-36793350D01*
X199457187Y-36707190D01*
X199457190Y-36707187D01*
X199543350Y-36592093D01*
X199543354Y-36592086D01*
X199593596Y-36457379D01*
X199593598Y-36457372D01*
X199599999Y-36397844D01*
X199600000Y-36397827D01*
X199600000Y-35874038D01*
X213899500Y-35874038D01*
X213899500Y-36125961D01*
X213938910Y-36374785D01*
X214016760Y-36614383D01*
X214076381Y-36731394D01*
X214108176Y-36793796D01*
X214131132Y-36838848D01*
X214279201Y-37042649D01*
X214279205Y-37042654D01*
X214457345Y-37220794D01*
X214457350Y-37220798D01*
X214635117Y-37349952D01*
X214661155Y-37368870D01*
X214804184Y-37441747D01*
X214885616Y-37483239D01*
X214885618Y-37483239D01*
X214885621Y-37483241D01*
X215125215Y-37561090D01*
X215374038Y-37600500D01*
X215374039Y-37600500D01*
X215625961Y-37600500D01*
X215625962Y-37600500D01*
X215874785Y-37561090D01*
X216114379Y-37483241D01*
X216338845Y-37368870D01*
X216542656Y-37220793D01*
X216720793Y-37042656D01*
X216868870Y-36838845D01*
X216983241Y-36614379D01*
X217061090Y-36374785D01*
X217100500Y-36125962D01*
X217100500Y-35874038D01*
X217061090Y-35625215D01*
X216983241Y-35385621D01*
X216983239Y-35385618D01*
X216983239Y-35385616D01*
X216941747Y-35304184D01*
X216868870Y-35161155D01*
X216834367Y-35113665D01*
X216720798Y-34957350D01*
X216720794Y-34957345D01*
X216542654Y-34779205D01*
X216542649Y-34779201D01*
X216338848Y-34631132D01*
X216338847Y-34631131D01*
X216338845Y-34631130D01*
X216227147Y-34574217D01*
X216114383Y-34516760D01*
X215874785Y-34438910D01*
X215625962Y-34399500D01*
X215374038Y-34399500D01*
X215320921Y-34407913D01*
X215125214Y-34438910D01*
X214885616Y-34516760D01*
X214661151Y-34631132D01*
X214457350Y-34779201D01*
X214457345Y-34779205D01*
X214279205Y-34957345D01*
X214279201Y-34957350D01*
X214131132Y-35161151D01*
X214016760Y-35385616D01*
X213938910Y-35625214D01*
X213899500Y-35874038D01*
X199600000Y-35874038D01*
X199600000Y-35750000D01*
X198683012Y-35750000D01*
X198715925Y-35692993D01*
X198750000Y-35565826D01*
X198750000Y-35434174D01*
X198715925Y-35307007D01*
X198683012Y-35250000D01*
X199600000Y-35250000D01*
X199600000Y-34602172D01*
X199599999Y-34602155D01*
X199593598Y-34542627D01*
X199593596Y-34542620D01*
X199543354Y-34407913D01*
X199543350Y-34407906D01*
X199457190Y-34292812D01*
X199457187Y-34292809D01*
X199342093Y-34206649D01*
X199342086Y-34206645D01*
X199207379Y-34156403D01*
X199207372Y-34156401D01*
X199147844Y-34150000D01*
X198500000Y-34150000D01*
X198500000Y-35066988D01*
X198442993Y-35034075D01*
X198315826Y-35000000D01*
X198184174Y-35000000D01*
X198057007Y-35034075D01*
X198000000Y-35066988D01*
X198000000Y-34150000D01*
X197352155Y-34150000D01*
X197292627Y-34156401D01*
X197292620Y-34156403D01*
X197157913Y-34206645D01*
X197157910Y-34206647D01*
X197074727Y-34268918D01*
X197009262Y-34293335D01*
X196940989Y-34278483D01*
X196926106Y-34268918D01*
X196842331Y-34206204D01*
X196842328Y-34206202D01*
X196707482Y-34155908D01*
X196707483Y-34155908D01*
X196647883Y-34149501D01*
X196647881Y-34149500D01*
X196647873Y-34149500D01*
X196647864Y-34149500D01*
X194852129Y-34149500D01*
X194852123Y-34149501D01*
X194792516Y-34155908D01*
X194657671Y-34206202D01*
X194657669Y-34206203D01*
X194574311Y-34268606D01*
X194508847Y-34293023D01*
X194440574Y-34278172D01*
X194425689Y-34268606D01*
X194342330Y-34206203D01*
X194342328Y-34206202D01*
X194207482Y-34155908D01*
X194207483Y-34155908D01*
X194147883Y-34149501D01*
X194147881Y-34149500D01*
X194147873Y-34149500D01*
X194147864Y-34149500D01*
X192352129Y-34149500D01*
X192352123Y-34149501D01*
X192292516Y-34155908D01*
X192157671Y-34206202D01*
X192157664Y-34206206D01*
X192042455Y-34292452D01*
X192042452Y-34292455D01*
X191956206Y-34407664D01*
X191956202Y-34407671D01*
X191905908Y-34542517D01*
X191899501Y-34602116D01*
X191899500Y-34602135D01*
X169531939Y-34602135D01*
X169477147Y-34574217D01*
X169364383Y-34516760D01*
X169124785Y-34438910D01*
X168875962Y-34399500D01*
X168624038Y-34399500D01*
X168570921Y-34407913D01*
X168375214Y-34438910D01*
X168135616Y-34516760D01*
X167911151Y-34631132D01*
X167707350Y-34779201D01*
X167707345Y-34779205D01*
X167529205Y-34957345D01*
X167529201Y-34957350D01*
X167381132Y-35161151D01*
X167266760Y-35385616D01*
X167188910Y-35625214D01*
X167149500Y-35874038D01*
X166258119Y-35874038D01*
X166268271Y-35706205D01*
X166270076Y-35691340D01*
X166293078Y-35565826D01*
X166321780Y-35409197D01*
X166325364Y-35394663D01*
X166398128Y-35161155D01*
X166410696Y-35120822D01*
X166415998Y-35106841D01*
X166533731Y-34845249D01*
X166540676Y-34832016D01*
X166689080Y-34586526D01*
X166697567Y-34574230D01*
X166874480Y-34348417D01*
X166884395Y-34337226D01*
X167087226Y-34134395D01*
X167098417Y-34124480D01*
X167324230Y-33947567D01*
X167336526Y-33939080D01*
X167582016Y-33790676D01*
X167595249Y-33783731D01*
X167856841Y-33665998D01*
X167870822Y-33660696D01*
X168144668Y-33575362D01*
X168159197Y-33571780D01*
X168441344Y-33520075D01*
X168456201Y-33518271D01*
X168746264Y-33500726D01*
X168753751Y-33500500D01*
X168815892Y-33500500D01*
X215434108Y-33500500D01*
X215496249Y-33500500D01*
X215503736Y-33500726D01*
G37*
%TD.AperFunction*%
%TD*%
M02*
