%TF.GenerationSoftware,KiCad,Pcbnew,8.0.4*%
%TF.CreationDate,2026-06-11T11:33:03-07:00*%
%TF.ProjectId,solar-planter-v2,736f6c61-722d-4706-9c61-6e7465722d76,rev?*%
%TF.SameCoordinates,Original*%
%TF.FileFunction,Paste,Top*%
%TF.FilePolarity,Positive*%
%FSLAX46Y46*%
G04 Gerber Fmt 4.6, Leading zero omitted, Abs format (unit mm)*
G04 Created by KiCad (PCBNEW 8.0.4) date 2026-06-11 11:33:03*
%MOMM*%
%LPD*%
G01*
G04 APERTURE LIST*
G04 Aperture macros list*
%AMRoundRect*
0 Rectangle with rounded corners*
0 $1 Rounding radius*
0 $2 $3 $4 $5 $6 $7 $8 $9 X,Y pos of 4 corners*
0 Add a 4 corners polygon primitive as box body*
4,1,4,$2,$3,$4,$5,$6,$7,$8,$9,$2,$3,0*
0 Add four circle primitives for the rounded corners*
1,1,$1+$1,$2,$3*
1,1,$1+$1,$4,$5*
1,1,$1+$1,$6,$7*
1,1,$1+$1,$8,$9*
0 Add four rect primitives between the rounded corners*
20,1,$1+$1,$2,$3,$4,$5,0*
20,1,$1+$1,$4,$5,$6,$7,0*
20,1,$1+$1,$6,$7,$8,$9,0*
20,1,$1+$1,$8,$9,$2,$3,0*%
G04 Aperture macros list end*
%ADD10C,0.010000*%
%ADD11RoundRect,0.243750X-0.243750X-0.456250X0.243750X-0.456250X0.243750X0.456250X-0.243750X0.456250X0*%
%ADD12RoundRect,0.140000X-0.140000X-0.170000X0.140000X-0.170000X0.140000X0.170000X-0.140000X0.170000X0*%
%ADD13R,0.800000X0.400000*%
%ADD14R,0.400000X0.800000*%
%ADD15R,1.450000X1.450000*%
%ADD16R,0.700000X0.700000*%
%ADD17RoundRect,0.500000X-0.500000X-1.500000X0.500000X-1.500000X0.500000X1.500000X-0.500000X1.500000X0*%
%ADD18RoundRect,0.200000X-0.200000X-0.275000X0.200000X-0.275000X0.200000X0.275000X-0.200000X0.275000X0*%
%ADD19RoundRect,0.225000X-0.225000X-0.250000X0.225000X-0.250000X0.225000X0.250000X-0.225000X0.250000X0*%
%ADD20RoundRect,0.200000X0.200000X0.275000X-0.200000X0.275000X-0.200000X-0.275000X0.200000X-0.275000X0*%
%ADD21R,0.650000X1.050000*%
%ADD22RoundRect,0.225000X0.225000X0.250000X-0.225000X0.250000X-0.225000X-0.250000X0.225000X-0.250000X0*%
%ADD23RoundRect,0.250000X1.000000X0.650000X-1.000000X0.650000X-1.000000X-0.650000X1.000000X-0.650000X0*%
%ADD24RoundRect,0.150000X-0.512500X-0.150000X0.512500X-0.150000X0.512500X0.150000X-0.512500X0.150000X0*%
%ADD25RoundRect,0.140000X0.140000X0.170000X-0.140000X0.170000X-0.140000X-0.170000X0.140000X-0.170000X0*%
%ADD26R,1.250000X0.650000*%
%ADD27R,3.500000X1.000000*%
%ADD28R,3.400000X1.500000*%
%ADD29RoundRect,0.112500X0.187500X0.112500X-0.187500X0.112500X-0.187500X-0.112500X0.187500X-0.112500X0*%
%ADD30R,1.140000X0.600000*%
%ADD31R,1.140000X0.300000*%
%ADD32RoundRect,0.127000X-1.208000X-1.143000X1.208000X-1.143000X1.208000X1.143000X-1.208000X1.143000X0*%
%ADD33RoundRect,0.076200X-0.304800X-0.558800X0.304800X-0.558800X0.304800X0.558800X-0.304800X0.558800X0*%
%ADD34RoundRect,0.172500X-0.172500X-0.332500X0.172500X-0.332500X0.172500X0.332500X-0.172500X0.332500X0*%
%ADD35RoundRect,0.062500X-0.350000X-0.062500X0.350000X-0.062500X0.350000X0.062500X-0.350000X0.062500X0*%
%ADD36RoundRect,0.112500X-0.187500X-0.112500X0.187500X-0.112500X0.187500X0.112500X-0.187500X0.112500X0*%
G04 APERTURE END LIST*
D10*
%TO.C,U1*%
X181550000Y-43150000D02*
X180100000Y-43150000D01*
X180100000Y-42300000D01*
X180700000Y-41700000D01*
X181550000Y-41700000D01*
X181550000Y-43150000D01*
G36*
X181550000Y-43150000D02*
G01*
X180100000Y-43150000D01*
X180100000Y-42300000D01*
X180700000Y-41700000D01*
X181550000Y-41700000D01*
X181550000Y-43150000D01*
G37*
%TD*%
D11*
%TO.C,D3*%
X191062500Y-43750000D03*
X192937500Y-43750000D03*
%TD*%
D12*
%TO.C,C4*%
X187520000Y-54500000D03*
X188480000Y-54500000D03*
%TD*%
D13*
%TO.C,U1*%
X176900000Y-40400000D03*
X176900000Y-41200000D03*
X176900000Y-42000000D03*
X176900000Y-42800000D03*
X176900000Y-43600000D03*
X176900000Y-44400000D03*
X176900000Y-45200000D03*
X176900000Y-46000000D03*
X176900000Y-46800000D03*
X176900000Y-47600000D03*
X176900000Y-48400000D03*
D14*
X178000000Y-49300000D03*
X178800000Y-49300000D03*
X179600000Y-49300000D03*
X180400000Y-49300000D03*
X181200000Y-49300000D03*
X182000000Y-49300000D03*
X182800000Y-49300000D03*
X183600000Y-49300000D03*
X184400000Y-49300000D03*
X185200000Y-49300000D03*
X186000000Y-49300000D03*
X186800000Y-49300000D03*
X187600000Y-49300000D03*
D13*
X188700000Y-48400000D03*
X188700000Y-47600000D03*
X188700000Y-46800000D03*
X188700000Y-46000000D03*
X188700000Y-45200000D03*
X188700000Y-44400000D03*
X188700000Y-43600000D03*
X188700000Y-42800000D03*
X188700000Y-42000000D03*
X188700000Y-41200000D03*
X188700000Y-40400000D03*
D14*
X187600000Y-39500000D03*
X186800000Y-39500000D03*
X186000000Y-39500000D03*
X185200000Y-39500000D03*
X184400000Y-39500000D03*
X183600000Y-39500000D03*
X182800000Y-39500000D03*
X182000000Y-39500000D03*
X181200000Y-39500000D03*
X180400000Y-39500000D03*
X179600000Y-39500000D03*
X178800000Y-39500000D03*
X178000000Y-39500000D03*
D15*
X182800000Y-42425000D03*
X184775000Y-42425000D03*
X180825000Y-44400000D03*
X182800000Y-44400000D03*
X184775000Y-44400000D03*
X180825000Y-46375000D03*
X182800000Y-46375000D03*
X184775000Y-46375000D03*
D16*
X188750000Y-39450000D03*
X188750000Y-49350000D03*
X176850000Y-49350000D03*
X176850000Y-39450000D03*
%TD*%
D17*
%TO.C,GND*%
X208500000Y-67000000D03*
%TD*%
D18*
%TO.C,R3*%
X191425000Y-40000000D03*
X193075000Y-40000000D03*
%TD*%
D19*
%TO.C,C8*%
X206380000Y-62500000D03*
X207930000Y-62500000D03*
%TD*%
D20*
%TO.C,R6*%
X189325000Y-58750000D03*
X187675000Y-58750000D03*
%TD*%
D18*
%TO.C,R2*%
X198425000Y-45500000D03*
X200075000Y-45500000D03*
%TD*%
%TO.C,R4*%
X194925000Y-40500000D03*
X196575000Y-40500000D03*
%TD*%
D21*
%TO.C,BOOT*%
X203425000Y-39075000D03*
X203425000Y-34925000D03*
X205575000Y-39075000D03*
X205575000Y-34925000D03*
%TD*%
D22*
%TO.C,C6*%
X180775000Y-54000000D03*
X179225000Y-54000000D03*
%TD*%
D12*
%TO.C,C5*%
X172520000Y-42950000D03*
X173480000Y-42950000D03*
%TD*%
D19*
%TO.C,C11*%
X192975000Y-57250000D03*
X194525000Y-57250000D03*
%TD*%
D21*
%TO.C,RST*%
X208425000Y-39075000D03*
X208425000Y-34925000D03*
X210575000Y-39075000D03*
X210575000Y-34925000D03*
%TD*%
D23*
%TO.C,D5*%
X209750000Y-55500000D03*
X205750000Y-55500000D03*
%TD*%
D18*
%TO.C,R5*%
X194925000Y-42500000D03*
X196575000Y-42500000D03*
%TD*%
D20*
%TO.C,R10*%
X175650000Y-51250000D03*
X174000000Y-51250000D03*
%TD*%
D24*
%TO.C,U3*%
X200862500Y-60050000D03*
X200862500Y-61000000D03*
X200862500Y-61950000D03*
X203137500Y-61950000D03*
X203137500Y-61000000D03*
X203137500Y-60050000D03*
%TD*%
D18*
%TO.C,R12*%
X196175000Y-63000000D03*
X197825000Y-63000000D03*
%TD*%
D25*
%TO.C,C7*%
X178480000Y-56000000D03*
X177520000Y-56000000D03*
%TD*%
D12*
%TO.C,C1*%
X172520000Y-41200000D03*
X173480000Y-41200000D03*
%TD*%
D26*
%TO.C,IC1*%
X193500000Y-59060000D03*
X193500000Y-60000000D03*
X193500000Y-60940000D03*
X196000000Y-60940000D03*
X196000000Y-59060000D03*
%TD*%
D27*
%TO.C,BAT1*%
X174500000Y-58400000D03*
X174500000Y-60400000D03*
D28*
X168750000Y-56050000D03*
X168750000Y-62750000D03*
%TD*%
D29*
%TO.C,D2*%
X185050000Y-61000000D03*
X182950000Y-61000000D03*
%TD*%
D30*
%TO.C,J1*%
X212250000Y-50200000D03*
X212250000Y-49400000D03*
D31*
X212250000Y-48250000D03*
X212250000Y-47250000D03*
X212250000Y-46750000D03*
X212250000Y-45750000D03*
D30*
X212250000Y-43800000D03*
X212250000Y-44600000D03*
D31*
X212250000Y-45250000D03*
X212250000Y-46250000D03*
X212250000Y-47750000D03*
X212250000Y-48750000D03*
%TD*%
D17*
%TO.C,+*%
X177000000Y-67000000D03*
%TD*%
D18*
%TO.C,R15*%
X198675000Y-58000000D03*
X200325000Y-58000000D03*
%TD*%
D32*
%TO.C,L1*%
X198399000Y-54750000D03*
D33*
X200750000Y-54750000D03*
%TD*%
D18*
%TO.C,R11*%
X210000000Y-61500000D03*
X211650000Y-61500000D03*
%TD*%
D22*
%TO.C,C3*%
X174525000Y-37500000D03*
X172975000Y-37500000D03*
%TD*%
D17*
%TO.C,D*%
X205000000Y-67000000D03*
%TD*%
%TO.C,5V*%
X201500000Y-67000000D03*
%TD*%
D25*
%TO.C,C2*%
X173960000Y-39250000D03*
X173000000Y-39250000D03*
%TD*%
D18*
%TO.C,R8*%
X189925000Y-55250000D03*
X191575000Y-55250000D03*
%TD*%
D17*
%TO.C,-*%
X181000000Y-67000000D03*
%TD*%
D18*
%TO.C,R9*%
X171425000Y-53250000D03*
X173075000Y-53250000D03*
%TD*%
%TO.C,R7*%
X187925000Y-57000000D03*
X189575000Y-57000000D03*
%TD*%
D12*
%TO.C,C10*%
X190040000Y-63000000D03*
X191000000Y-63000000D03*
%TD*%
D18*
%TO.C,R14*%
X178925000Y-52000000D03*
X180575000Y-52000000D03*
%TD*%
D19*
%TO.C,C9*%
X206225000Y-59500000D03*
X207775000Y-59500000D03*
%TD*%
D34*
%TO.C,U2*%
X182000000Y-56500000D03*
X182000000Y-57750000D03*
X182850000Y-56500000D03*
X182850000Y-57750000D03*
D35*
X180962500Y-56125000D03*
X180962500Y-56625000D03*
X180962500Y-57125000D03*
X180962500Y-57625000D03*
X180962500Y-58125000D03*
X183887500Y-58125000D03*
X183887500Y-57625000D03*
X183887500Y-57125000D03*
X183887500Y-56625000D03*
X183887500Y-56125000D03*
%TD*%
D36*
%TO.C,D1*%
X191200000Y-53250000D03*
X193300000Y-53250000D03*
%TD*%
D18*
%TO.C,R1*%
X198425000Y-49250000D03*
X200075000Y-49250000D03*
%TD*%
%TO.C,R13*%
X175175000Y-53250000D03*
X176825000Y-53250000D03*
%TD*%
M02*
