%TF.GenerationSoftware,KiCad,Pcbnew,8.0.4*%
%TF.CreationDate,2026-06-11T11:33:03-07:00*%
%TF.ProjectId,solar-planter-v2,736f6c61-722d-4706-9c61-6e7465722d76,rev?*%
%TF.SameCoordinates,Original*%
%TF.FileFunction,Legend,Top*%
%TF.FilePolarity,Positive*%
%FSLAX46Y46*%
G04 Gerber Fmt 4.6, Leading zero omitted, Abs format (unit mm)*
G04 Created by KiCad (PCBNEW 8.0.4) date 2026-06-11 11:33:03*
%MOMM*%
%LPD*%
G01*
G04 APERTURE LIST*
%ADD10C,0.200000*%
%ADD11C,0.150000*%
%ADD12C,0.120000*%
%ADD13C,0.127000*%
%ADD14C,0.000000*%
G04 APERTURE END LIST*
D10*
X203857143Y-49349628D02*
X204000000Y-49397247D01*
X204000000Y-49397247D02*
X204238095Y-49397247D01*
X204238095Y-49397247D02*
X204333333Y-49349628D01*
X204333333Y-49349628D02*
X204380952Y-49302008D01*
X204380952Y-49302008D02*
X204428571Y-49206770D01*
X204428571Y-49206770D02*
X204428571Y-49111532D01*
X204428571Y-49111532D02*
X204380952Y-49016294D01*
X204380952Y-49016294D02*
X204333333Y-48968675D01*
X204333333Y-48968675D02*
X204238095Y-48921056D01*
X204238095Y-48921056D02*
X204047619Y-48873437D01*
X204047619Y-48873437D02*
X203952381Y-48825818D01*
X203952381Y-48825818D02*
X203904762Y-48778199D01*
X203904762Y-48778199D02*
X203857143Y-48682961D01*
X203857143Y-48682961D02*
X203857143Y-48587723D01*
X203857143Y-48587723D02*
X203904762Y-48492485D01*
X203904762Y-48492485D02*
X203952381Y-48444866D01*
X203952381Y-48444866D02*
X204047619Y-48397247D01*
X204047619Y-48397247D02*
X204285714Y-48397247D01*
X204285714Y-48397247D02*
X204428571Y-48444866D01*
X205047619Y-48397247D02*
X205238095Y-48397247D01*
X205238095Y-48397247D02*
X205333333Y-48444866D01*
X205333333Y-48444866D02*
X205428571Y-48540104D01*
X205428571Y-48540104D02*
X205476190Y-48730580D01*
X205476190Y-48730580D02*
X205476190Y-49063913D01*
X205476190Y-49063913D02*
X205428571Y-49254389D01*
X205428571Y-49254389D02*
X205333333Y-49349628D01*
X205333333Y-49349628D02*
X205238095Y-49397247D01*
X205238095Y-49397247D02*
X205047619Y-49397247D01*
X205047619Y-49397247D02*
X204952381Y-49349628D01*
X204952381Y-49349628D02*
X204857143Y-49254389D01*
X204857143Y-49254389D02*
X204809524Y-49063913D01*
X204809524Y-49063913D02*
X204809524Y-48730580D01*
X204809524Y-48730580D02*
X204857143Y-48540104D01*
X204857143Y-48540104D02*
X204952381Y-48444866D01*
X204952381Y-48444866D02*
X205047619Y-48397247D01*
X206380952Y-49397247D02*
X205904762Y-49397247D01*
X205904762Y-49397247D02*
X205904762Y-48397247D01*
X206666667Y-49111532D02*
X207142857Y-49111532D01*
X206571429Y-49397247D02*
X206904762Y-48397247D01*
X206904762Y-48397247D02*
X207238095Y-49397247D01*
X208142857Y-49397247D02*
X207809524Y-48921056D01*
X207571429Y-49397247D02*
X207571429Y-48397247D01*
X207571429Y-48397247D02*
X207952381Y-48397247D01*
X207952381Y-48397247D02*
X208047619Y-48444866D01*
X208047619Y-48444866D02*
X208095238Y-48492485D01*
X208095238Y-48492485D02*
X208142857Y-48587723D01*
X208142857Y-48587723D02*
X208142857Y-48730580D01*
X208142857Y-48730580D02*
X208095238Y-48825818D01*
X208095238Y-48825818D02*
X208047619Y-48873437D01*
X208047619Y-48873437D02*
X207952381Y-48921056D01*
X207952381Y-48921056D02*
X207571429Y-48921056D01*
X201761904Y-51007191D02*
X201761904Y-50007191D01*
X201761904Y-50007191D02*
X202142856Y-50007191D01*
X202142856Y-50007191D02*
X202238094Y-50054810D01*
X202238094Y-50054810D02*
X202285713Y-50102429D01*
X202285713Y-50102429D02*
X202333332Y-50197667D01*
X202333332Y-50197667D02*
X202333332Y-50340524D01*
X202333332Y-50340524D02*
X202285713Y-50435762D01*
X202285713Y-50435762D02*
X202238094Y-50483381D01*
X202238094Y-50483381D02*
X202142856Y-50531000D01*
X202142856Y-50531000D02*
X201761904Y-50531000D01*
X203238094Y-51007191D02*
X202761904Y-51007191D01*
X202761904Y-51007191D02*
X202761904Y-50007191D01*
X203523809Y-50721476D02*
X203999999Y-50721476D01*
X203428571Y-51007191D02*
X203761904Y-50007191D01*
X203761904Y-50007191D02*
X204095237Y-51007191D01*
X204428571Y-51007191D02*
X204428571Y-50007191D01*
X204428571Y-50007191D02*
X204999999Y-51007191D01*
X204999999Y-51007191D02*
X204999999Y-50007191D01*
X205333333Y-50007191D02*
X205904761Y-50007191D01*
X205619047Y-51007191D02*
X205619047Y-50007191D01*
X206238095Y-50483381D02*
X206571428Y-50483381D01*
X206714285Y-51007191D02*
X206238095Y-51007191D01*
X206238095Y-51007191D02*
X206238095Y-50007191D01*
X206238095Y-50007191D02*
X206714285Y-50007191D01*
X207714285Y-51007191D02*
X207380952Y-50531000D01*
X207142857Y-51007191D02*
X207142857Y-50007191D01*
X207142857Y-50007191D02*
X207523809Y-50007191D01*
X207523809Y-50007191D02*
X207619047Y-50054810D01*
X207619047Y-50054810D02*
X207666666Y-50102429D01*
X207666666Y-50102429D02*
X207714285Y-50197667D01*
X207714285Y-50197667D02*
X207714285Y-50340524D01*
X207714285Y-50340524D02*
X207666666Y-50435762D01*
X207666666Y-50435762D02*
X207619047Y-50483381D01*
X207619047Y-50483381D02*
X207523809Y-50531000D01*
X207523809Y-50531000D02*
X207142857Y-50531000D01*
X208761905Y-50007191D02*
X209095238Y-51007191D01*
X209095238Y-51007191D02*
X209428571Y-50007191D01*
X209714286Y-50102429D02*
X209761905Y-50054810D01*
X209761905Y-50054810D02*
X209857143Y-50007191D01*
X209857143Y-50007191D02*
X210095238Y-50007191D01*
X210095238Y-50007191D02*
X210190476Y-50054810D01*
X210190476Y-50054810D02*
X210238095Y-50102429D01*
X210238095Y-50102429D02*
X210285714Y-50197667D01*
X210285714Y-50197667D02*
X210285714Y-50292905D01*
X210285714Y-50292905D02*
X210238095Y-50435762D01*
X210238095Y-50435762D02*
X209666667Y-51007191D01*
X209666667Y-51007191D02*
X210285714Y-51007191D01*
D11*
X213035714Y-39954819D02*
X212845238Y-39954819D01*
X212845238Y-39954819D02*
X212750000Y-40002438D01*
X212750000Y-40002438D02*
X212702381Y-40050057D01*
X212702381Y-40050057D02*
X212607143Y-40192914D01*
X212607143Y-40192914D02*
X212559524Y-40383390D01*
X212559524Y-40383390D02*
X212559524Y-40764342D01*
X212559524Y-40764342D02*
X212607143Y-40859580D01*
X212607143Y-40859580D02*
X212654762Y-40907200D01*
X212654762Y-40907200D02*
X212750000Y-40954819D01*
X212750000Y-40954819D02*
X212940476Y-40954819D01*
X212940476Y-40954819D02*
X213035714Y-40907200D01*
X213035714Y-40907200D02*
X213083333Y-40859580D01*
X213083333Y-40859580D02*
X213130952Y-40764342D01*
X213130952Y-40764342D02*
X213130952Y-40526247D01*
X213130952Y-40526247D02*
X213083333Y-40431009D01*
X213083333Y-40431009D02*
X213035714Y-40383390D01*
X213035714Y-40383390D02*
X212940476Y-40335771D01*
X212940476Y-40335771D02*
X212750000Y-40335771D01*
X212750000Y-40335771D02*
X212654762Y-40383390D01*
X212654762Y-40383390D02*
X212607143Y-40431009D01*
X212607143Y-40431009D02*
X212559524Y-40526247D01*
X213559524Y-40859580D02*
X213607143Y-40907200D01*
X213607143Y-40907200D02*
X213559524Y-40954819D01*
X213559524Y-40954819D02*
X213511905Y-40907200D01*
X213511905Y-40907200D02*
X213559524Y-40859580D01*
X213559524Y-40859580D02*
X213559524Y-40954819D01*
X214083333Y-40954819D02*
X214273809Y-40954819D01*
X214273809Y-40954819D02*
X214369047Y-40907200D01*
X214369047Y-40907200D02*
X214416666Y-40859580D01*
X214416666Y-40859580D02*
X214511904Y-40716723D01*
X214511904Y-40716723D02*
X214559523Y-40526247D01*
X214559523Y-40526247D02*
X214559523Y-40145295D01*
X214559523Y-40145295D02*
X214511904Y-40050057D01*
X214511904Y-40050057D02*
X214464285Y-40002438D01*
X214464285Y-40002438D02*
X214369047Y-39954819D01*
X214369047Y-39954819D02*
X214178571Y-39954819D01*
X214178571Y-39954819D02*
X214083333Y-40002438D01*
X214083333Y-40002438D02*
X214035714Y-40050057D01*
X214035714Y-40050057D02*
X213988095Y-40145295D01*
X213988095Y-40145295D02*
X213988095Y-40383390D01*
X213988095Y-40383390D02*
X214035714Y-40478628D01*
X214035714Y-40478628D02*
X214083333Y-40526247D01*
X214083333Y-40526247D02*
X214178571Y-40573866D01*
X214178571Y-40573866D02*
X214369047Y-40573866D01*
X214369047Y-40573866D02*
X214464285Y-40526247D01*
X214464285Y-40526247D02*
X214511904Y-40478628D01*
X214511904Y-40478628D02*
X214559523Y-40383390D01*
X214988095Y-40859580D02*
X215035714Y-40907200D01*
X215035714Y-40907200D02*
X214988095Y-40954819D01*
X214988095Y-40954819D02*
X214940476Y-40907200D01*
X214940476Y-40907200D02*
X214988095Y-40859580D01*
X214988095Y-40859580D02*
X214988095Y-40954819D01*
X215416666Y-40050057D02*
X215464285Y-40002438D01*
X215464285Y-40002438D02*
X215559523Y-39954819D01*
X215559523Y-39954819D02*
X215797618Y-39954819D01*
X215797618Y-39954819D02*
X215892856Y-40002438D01*
X215892856Y-40002438D02*
X215940475Y-40050057D01*
X215940475Y-40050057D02*
X215988094Y-40145295D01*
X215988094Y-40145295D02*
X215988094Y-40240533D01*
X215988094Y-40240533D02*
X215940475Y-40383390D01*
X215940475Y-40383390D02*
X215369047Y-40954819D01*
X215369047Y-40954819D02*
X215988094Y-40954819D01*
X216845237Y-39954819D02*
X216654761Y-39954819D01*
X216654761Y-39954819D02*
X216559523Y-40002438D01*
X216559523Y-40002438D02*
X216511904Y-40050057D01*
X216511904Y-40050057D02*
X216416666Y-40192914D01*
X216416666Y-40192914D02*
X216369047Y-40383390D01*
X216369047Y-40383390D02*
X216369047Y-40764342D01*
X216369047Y-40764342D02*
X216416666Y-40859580D01*
X216416666Y-40859580D02*
X216464285Y-40907200D01*
X216464285Y-40907200D02*
X216559523Y-40954819D01*
X216559523Y-40954819D02*
X216749999Y-40954819D01*
X216749999Y-40954819D02*
X216845237Y-40907200D01*
X216845237Y-40907200D02*
X216892856Y-40859580D01*
X216892856Y-40859580D02*
X216940475Y-40764342D01*
X216940475Y-40764342D02*
X216940475Y-40526247D01*
X216940475Y-40526247D02*
X216892856Y-40431009D01*
X216892856Y-40431009D02*
X216845237Y-40383390D01*
X216845237Y-40383390D02*
X216749999Y-40335771D01*
X216749999Y-40335771D02*
X216559523Y-40335771D01*
X216559523Y-40335771D02*
X216464285Y-40383390D01*
X216464285Y-40383390D02*
X216416666Y-40431009D01*
X216416666Y-40431009D02*
X216369047Y-40526247D01*
X172547619Y-65649847D02*
X173166666Y-65649847D01*
X173166666Y-65649847D02*
X172833333Y-66030799D01*
X172833333Y-66030799D02*
X172976190Y-66030799D01*
X172976190Y-66030799D02*
X173071428Y-66078418D01*
X173071428Y-66078418D02*
X173119047Y-66126037D01*
X173119047Y-66126037D02*
X173166666Y-66221275D01*
X173166666Y-66221275D02*
X173166666Y-66459370D01*
X173166666Y-66459370D02*
X173119047Y-66554608D01*
X173119047Y-66554608D02*
X173071428Y-66602228D01*
X173071428Y-66602228D02*
X172976190Y-66649847D01*
X172976190Y-66649847D02*
X172690476Y-66649847D01*
X172690476Y-66649847D02*
X172595238Y-66602228D01*
X172595238Y-66602228D02*
X172547619Y-66554608D01*
X173595238Y-66268894D02*
X174357143Y-66268894D01*
X172880952Y-68259791D02*
X172309524Y-68259791D01*
X172595238Y-68259791D02*
X172595238Y-67259791D01*
X172595238Y-67259791D02*
X172500000Y-67402648D01*
X172500000Y-67402648D02*
X172404762Y-67497886D01*
X172404762Y-67497886D02*
X172309524Y-67545505D01*
X173452381Y-67688362D02*
X173357143Y-67640743D01*
X173357143Y-67640743D02*
X173309524Y-67593124D01*
X173309524Y-67593124D02*
X173261905Y-67497886D01*
X173261905Y-67497886D02*
X173261905Y-67450267D01*
X173261905Y-67450267D02*
X173309524Y-67355029D01*
X173309524Y-67355029D02*
X173357143Y-67307410D01*
X173357143Y-67307410D02*
X173452381Y-67259791D01*
X173452381Y-67259791D02*
X173642857Y-67259791D01*
X173642857Y-67259791D02*
X173738095Y-67307410D01*
X173738095Y-67307410D02*
X173785714Y-67355029D01*
X173785714Y-67355029D02*
X173833333Y-67450267D01*
X173833333Y-67450267D02*
X173833333Y-67497886D01*
X173833333Y-67497886D02*
X173785714Y-67593124D01*
X173785714Y-67593124D02*
X173738095Y-67640743D01*
X173738095Y-67640743D02*
X173642857Y-67688362D01*
X173642857Y-67688362D02*
X173452381Y-67688362D01*
X173452381Y-67688362D02*
X173357143Y-67735981D01*
X173357143Y-67735981D02*
X173309524Y-67783600D01*
X173309524Y-67783600D02*
X173261905Y-67878838D01*
X173261905Y-67878838D02*
X173261905Y-68069314D01*
X173261905Y-68069314D02*
X173309524Y-68164552D01*
X173309524Y-68164552D02*
X173357143Y-68212172D01*
X173357143Y-68212172D02*
X173452381Y-68259791D01*
X173452381Y-68259791D02*
X173642857Y-68259791D01*
X173642857Y-68259791D02*
X173738095Y-68212172D01*
X173738095Y-68212172D02*
X173785714Y-68164552D01*
X173785714Y-68164552D02*
X173833333Y-68069314D01*
X173833333Y-68069314D02*
X173833333Y-67878838D01*
X173833333Y-67878838D02*
X173785714Y-67783600D01*
X173785714Y-67783600D02*
X173738095Y-67735981D01*
X173738095Y-67735981D02*
X173642857Y-67688362D01*
X174119048Y-67259791D02*
X174452381Y-68259791D01*
X174452381Y-68259791D02*
X174785714Y-67259791D01*
X176857143Y-64157200D02*
X177000000Y-64204819D01*
X177000000Y-64204819D02*
X177238095Y-64204819D01*
X177238095Y-64204819D02*
X177333333Y-64157200D01*
X177333333Y-64157200D02*
X177380952Y-64109580D01*
X177380952Y-64109580D02*
X177428571Y-64014342D01*
X177428571Y-64014342D02*
X177428571Y-63919104D01*
X177428571Y-63919104D02*
X177380952Y-63823866D01*
X177380952Y-63823866D02*
X177333333Y-63776247D01*
X177333333Y-63776247D02*
X177238095Y-63728628D01*
X177238095Y-63728628D02*
X177047619Y-63681009D01*
X177047619Y-63681009D02*
X176952381Y-63633390D01*
X176952381Y-63633390D02*
X176904762Y-63585771D01*
X176904762Y-63585771D02*
X176857143Y-63490533D01*
X176857143Y-63490533D02*
X176857143Y-63395295D01*
X176857143Y-63395295D02*
X176904762Y-63300057D01*
X176904762Y-63300057D02*
X176952381Y-63252438D01*
X176952381Y-63252438D02*
X177047619Y-63204819D01*
X177047619Y-63204819D02*
X177285714Y-63204819D01*
X177285714Y-63204819D02*
X177428571Y-63252438D01*
X178047619Y-63204819D02*
X178238095Y-63204819D01*
X178238095Y-63204819D02*
X178333333Y-63252438D01*
X178333333Y-63252438D02*
X178428571Y-63347676D01*
X178428571Y-63347676D02*
X178476190Y-63538152D01*
X178476190Y-63538152D02*
X178476190Y-63871485D01*
X178476190Y-63871485D02*
X178428571Y-64061961D01*
X178428571Y-64061961D02*
X178333333Y-64157200D01*
X178333333Y-64157200D02*
X178238095Y-64204819D01*
X178238095Y-64204819D02*
X178047619Y-64204819D01*
X178047619Y-64204819D02*
X177952381Y-64157200D01*
X177952381Y-64157200D02*
X177857143Y-64061961D01*
X177857143Y-64061961D02*
X177809524Y-63871485D01*
X177809524Y-63871485D02*
X177809524Y-63538152D01*
X177809524Y-63538152D02*
X177857143Y-63347676D01*
X177857143Y-63347676D02*
X177952381Y-63252438D01*
X177952381Y-63252438D02*
X178047619Y-63204819D01*
X179380952Y-64204819D02*
X178904762Y-64204819D01*
X178904762Y-64204819D02*
X178904762Y-63204819D01*
X179666667Y-63919104D02*
X180142857Y-63919104D01*
X179571429Y-64204819D02*
X179904762Y-63204819D01*
X179904762Y-63204819D02*
X180238095Y-64204819D01*
X181142857Y-64204819D02*
X180809524Y-63728628D01*
X180571429Y-64204819D02*
X180571429Y-63204819D01*
X180571429Y-63204819D02*
X180952381Y-63204819D01*
X180952381Y-63204819D02*
X181047619Y-63252438D01*
X181047619Y-63252438D02*
X181095238Y-63300057D01*
X181095238Y-63300057D02*
X181142857Y-63395295D01*
X181142857Y-63395295D02*
X181142857Y-63538152D01*
X181142857Y-63538152D02*
X181095238Y-63633390D01*
X181095238Y-63633390D02*
X181047619Y-63681009D01*
X181047619Y-63681009D02*
X180952381Y-63728628D01*
X180952381Y-63728628D02*
X180571429Y-63728628D01*
X191261905Y-46204819D02*
X191261905Y-45204819D01*
X191261905Y-45204819D02*
X191500000Y-45204819D01*
X191500000Y-45204819D02*
X191642857Y-45252438D01*
X191642857Y-45252438D02*
X191738095Y-45347676D01*
X191738095Y-45347676D02*
X191785714Y-45442914D01*
X191785714Y-45442914D02*
X191833333Y-45633390D01*
X191833333Y-45633390D02*
X191833333Y-45776247D01*
X191833333Y-45776247D02*
X191785714Y-45966723D01*
X191785714Y-45966723D02*
X191738095Y-46061961D01*
X191738095Y-46061961D02*
X191642857Y-46157200D01*
X191642857Y-46157200D02*
X191500000Y-46204819D01*
X191500000Y-46204819D02*
X191261905Y-46204819D01*
X192166667Y-45204819D02*
X192785714Y-45204819D01*
X192785714Y-45204819D02*
X192452381Y-45585771D01*
X192452381Y-45585771D02*
X192595238Y-45585771D01*
X192595238Y-45585771D02*
X192690476Y-45633390D01*
X192690476Y-45633390D02*
X192738095Y-45681009D01*
X192738095Y-45681009D02*
X192785714Y-45776247D01*
X192785714Y-45776247D02*
X192785714Y-46014342D01*
X192785714Y-46014342D02*
X192738095Y-46109580D01*
X192738095Y-46109580D02*
X192690476Y-46157200D01*
X192690476Y-46157200D02*
X192595238Y-46204819D01*
X192595238Y-46204819D02*
X192309524Y-46204819D01*
X192309524Y-46204819D02*
X192214286Y-46157200D01*
X192214286Y-46157200D02*
X192166667Y-46109580D01*
X187833333Y-53699580D02*
X187785714Y-53747200D01*
X187785714Y-53747200D02*
X187642857Y-53794819D01*
X187642857Y-53794819D02*
X187547619Y-53794819D01*
X187547619Y-53794819D02*
X187404762Y-53747200D01*
X187404762Y-53747200D02*
X187309524Y-53651961D01*
X187309524Y-53651961D02*
X187261905Y-53556723D01*
X187261905Y-53556723D02*
X187214286Y-53366247D01*
X187214286Y-53366247D02*
X187214286Y-53223390D01*
X187214286Y-53223390D02*
X187261905Y-53032914D01*
X187261905Y-53032914D02*
X187309524Y-52937676D01*
X187309524Y-52937676D02*
X187404762Y-52842438D01*
X187404762Y-52842438D02*
X187547619Y-52794819D01*
X187547619Y-52794819D02*
X187642857Y-52794819D01*
X187642857Y-52794819D02*
X187785714Y-52842438D01*
X187785714Y-52842438D02*
X187833333Y-52890057D01*
X188690476Y-53128152D02*
X188690476Y-53794819D01*
X188452381Y-52747200D02*
X188214286Y-53461485D01*
X188214286Y-53461485D02*
X188833333Y-53461485D01*
X191761905Y-37704819D02*
X192380952Y-37704819D01*
X192380952Y-37704819D02*
X192047619Y-38085771D01*
X192047619Y-38085771D02*
X192190476Y-38085771D01*
X192190476Y-38085771D02*
X192285714Y-38133390D01*
X192285714Y-38133390D02*
X192333333Y-38181009D01*
X192333333Y-38181009D02*
X192380952Y-38276247D01*
X192380952Y-38276247D02*
X192380952Y-38514342D01*
X192380952Y-38514342D02*
X192333333Y-38609580D01*
X192333333Y-38609580D02*
X192285714Y-38657200D01*
X192285714Y-38657200D02*
X192190476Y-38704819D01*
X192190476Y-38704819D02*
X191904762Y-38704819D01*
X191904762Y-38704819D02*
X191809524Y-38657200D01*
X191809524Y-38657200D02*
X191761905Y-38609580D01*
X192666667Y-37704819D02*
X193000000Y-38704819D01*
X193000000Y-38704819D02*
X193333333Y-37704819D01*
X193571429Y-37704819D02*
X194190476Y-37704819D01*
X194190476Y-37704819D02*
X193857143Y-38085771D01*
X193857143Y-38085771D02*
X194000000Y-38085771D01*
X194000000Y-38085771D02*
X194095238Y-38133390D01*
X194095238Y-38133390D02*
X194142857Y-38181009D01*
X194142857Y-38181009D02*
X194190476Y-38276247D01*
X194190476Y-38276247D02*
X194190476Y-38514342D01*
X194190476Y-38514342D02*
X194142857Y-38609580D01*
X194142857Y-38609580D02*
X194095238Y-38657200D01*
X194095238Y-38657200D02*
X194000000Y-38704819D01*
X194000000Y-38704819D02*
X193714286Y-38704819D01*
X193714286Y-38704819D02*
X193619048Y-38657200D01*
X193619048Y-38657200D02*
X193571429Y-38609580D01*
X207988095Y-69752438D02*
X207892857Y-69704819D01*
X207892857Y-69704819D02*
X207750000Y-69704819D01*
X207750000Y-69704819D02*
X207607143Y-69752438D01*
X207607143Y-69752438D02*
X207511905Y-69847676D01*
X207511905Y-69847676D02*
X207464286Y-69942914D01*
X207464286Y-69942914D02*
X207416667Y-70133390D01*
X207416667Y-70133390D02*
X207416667Y-70276247D01*
X207416667Y-70276247D02*
X207464286Y-70466723D01*
X207464286Y-70466723D02*
X207511905Y-70561961D01*
X207511905Y-70561961D02*
X207607143Y-70657200D01*
X207607143Y-70657200D02*
X207750000Y-70704819D01*
X207750000Y-70704819D02*
X207845238Y-70704819D01*
X207845238Y-70704819D02*
X207988095Y-70657200D01*
X207988095Y-70657200D02*
X208035714Y-70609580D01*
X208035714Y-70609580D02*
X208035714Y-70276247D01*
X208035714Y-70276247D02*
X207845238Y-70276247D01*
X208464286Y-70704819D02*
X208464286Y-69704819D01*
X208464286Y-69704819D02*
X209035714Y-70704819D01*
X209035714Y-70704819D02*
X209035714Y-69704819D01*
X209511905Y-70704819D02*
X209511905Y-69704819D01*
X209511905Y-69704819D02*
X209750000Y-69704819D01*
X209750000Y-69704819D02*
X209892857Y-69752438D01*
X209892857Y-69752438D02*
X209988095Y-69847676D01*
X209988095Y-69847676D02*
X210035714Y-69942914D01*
X210035714Y-69942914D02*
X210083333Y-70133390D01*
X210083333Y-70133390D02*
X210083333Y-70276247D01*
X210083333Y-70276247D02*
X210035714Y-70466723D01*
X210035714Y-70466723D02*
X209988095Y-70561961D01*
X209988095Y-70561961D02*
X209892857Y-70657200D01*
X209892857Y-70657200D02*
X209750000Y-70704819D01*
X209750000Y-70704819D02*
X209511905Y-70704819D01*
X192083333Y-42204819D02*
X191750000Y-41728628D01*
X191511905Y-42204819D02*
X191511905Y-41204819D01*
X191511905Y-41204819D02*
X191892857Y-41204819D01*
X191892857Y-41204819D02*
X191988095Y-41252438D01*
X191988095Y-41252438D02*
X192035714Y-41300057D01*
X192035714Y-41300057D02*
X192083333Y-41395295D01*
X192083333Y-41395295D02*
X192083333Y-41538152D01*
X192083333Y-41538152D02*
X192035714Y-41633390D01*
X192035714Y-41633390D02*
X191988095Y-41681009D01*
X191988095Y-41681009D02*
X191892857Y-41728628D01*
X191892857Y-41728628D02*
X191511905Y-41728628D01*
X192416667Y-41204819D02*
X193035714Y-41204819D01*
X193035714Y-41204819D02*
X192702381Y-41585771D01*
X192702381Y-41585771D02*
X192845238Y-41585771D01*
X192845238Y-41585771D02*
X192940476Y-41633390D01*
X192940476Y-41633390D02*
X192988095Y-41681009D01*
X192988095Y-41681009D02*
X193035714Y-41776247D01*
X193035714Y-41776247D02*
X193035714Y-42014342D01*
X193035714Y-42014342D02*
X192988095Y-42109580D01*
X192988095Y-42109580D02*
X192940476Y-42157200D01*
X192940476Y-42157200D02*
X192845238Y-42204819D01*
X192845238Y-42204819D02*
X192559524Y-42204819D01*
X192559524Y-42204819D02*
X192464286Y-42157200D01*
X192464286Y-42157200D02*
X192416667Y-42109580D01*
X206988333Y-61429580D02*
X206940714Y-61477200D01*
X206940714Y-61477200D02*
X206797857Y-61524819D01*
X206797857Y-61524819D02*
X206702619Y-61524819D01*
X206702619Y-61524819D02*
X206559762Y-61477200D01*
X206559762Y-61477200D02*
X206464524Y-61381961D01*
X206464524Y-61381961D02*
X206416905Y-61286723D01*
X206416905Y-61286723D02*
X206369286Y-61096247D01*
X206369286Y-61096247D02*
X206369286Y-60953390D01*
X206369286Y-60953390D02*
X206416905Y-60762914D01*
X206416905Y-60762914D02*
X206464524Y-60667676D01*
X206464524Y-60667676D02*
X206559762Y-60572438D01*
X206559762Y-60572438D02*
X206702619Y-60524819D01*
X206702619Y-60524819D02*
X206797857Y-60524819D01*
X206797857Y-60524819D02*
X206940714Y-60572438D01*
X206940714Y-60572438D02*
X206988333Y-60620057D01*
X207559762Y-60953390D02*
X207464524Y-60905771D01*
X207464524Y-60905771D02*
X207416905Y-60858152D01*
X207416905Y-60858152D02*
X207369286Y-60762914D01*
X207369286Y-60762914D02*
X207369286Y-60715295D01*
X207369286Y-60715295D02*
X207416905Y-60620057D01*
X207416905Y-60620057D02*
X207464524Y-60572438D01*
X207464524Y-60572438D02*
X207559762Y-60524819D01*
X207559762Y-60524819D02*
X207750238Y-60524819D01*
X207750238Y-60524819D02*
X207845476Y-60572438D01*
X207845476Y-60572438D02*
X207893095Y-60620057D01*
X207893095Y-60620057D02*
X207940714Y-60715295D01*
X207940714Y-60715295D02*
X207940714Y-60762914D01*
X207940714Y-60762914D02*
X207893095Y-60858152D01*
X207893095Y-60858152D02*
X207845476Y-60905771D01*
X207845476Y-60905771D02*
X207750238Y-60953390D01*
X207750238Y-60953390D02*
X207559762Y-60953390D01*
X207559762Y-60953390D02*
X207464524Y-61001009D01*
X207464524Y-61001009D02*
X207416905Y-61048628D01*
X207416905Y-61048628D02*
X207369286Y-61143866D01*
X207369286Y-61143866D02*
X207369286Y-61334342D01*
X207369286Y-61334342D02*
X207416905Y-61429580D01*
X207416905Y-61429580D02*
X207464524Y-61477200D01*
X207464524Y-61477200D02*
X207559762Y-61524819D01*
X207559762Y-61524819D02*
X207750238Y-61524819D01*
X207750238Y-61524819D02*
X207845476Y-61477200D01*
X207845476Y-61477200D02*
X207893095Y-61429580D01*
X207893095Y-61429580D02*
X207940714Y-61334342D01*
X207940714Y-61334342D02*
X207940714Y-61143866D01*
X207940714Y-61143866D02*
X207893095Y-61048628D01*
X207893095Y-61048628D02*
X207845476Y-61001009D01*
X207845476Y-61001009D02*
X207750238Y-60953390D01*
X188333333Y-60634819D02*
X188000000Y-60158628D01*
X187761905Y-60634819D02*
X187761905Y-59634819D01*
X187761905Y-59634819D02*
X188142857Y-59634819D01*
X188142857Y-59634819D02*
X188238095Y-59682438D01*
X188238095Y-59682438D02*
X188285714Y-59730057D01*
X188285714Y-59730057D02*
X188333333Y-59825295D01*
X188333333Y-59825295D02*
X188333333Y-59968152D01*
X188333333Y-59968152D02*
X188285714Y-60063390D01*
X188285714Y-60063390D02*
X188238095Y-60111009D01*
X188238095Y-60111009D02*
X188142857Y-60158628D01*
X188142857Y-60158628D02*
X187761905Y-60158628D01*
X189190476Y-59634819D02*
X189000000Y-59634819D01*
X189000000Y-59634819D02*
X188904762Y-59682438D01*
X188904762Y-59682438D02*
X188857143Y-59730057D01*
X188857143Y-59730057D02*
X188761905Y-59872914D01*
X188761905Y-59872914D02*
X188714286Y-60063390D01*
X188714286Y-60063390D02*
X188714286Y-60444342D01*
X188714286Y-60444342D02*
X188761905Y-60539580D01*
X188761905Y-60539580D02*
X188809524Y-60587200D01*
X188809524Y-60587200D02*
X188904762Y-60634819D01*
X188904762Y-60634819D02*
X189095238Y-60634819D01*
X189095238Y-60634819D02*
X189190476Y-60587200D01*
X189190476Y-60587200D02*
X189238095Y-60539580D01*
X189238095Y-60539580D02*
X189285714Y-60444342D01*
X189285714Y-60444342D02*
X189285714Y-60206247D01*
X189285714Y-60206247D02*
X189238095Y-60111009D01*
X189238095Y-60111009D02*
X189190476Y-60063390D01*
X189190476Y-60063390D02*
X189095238Y-60015771D01*
X189095238Y-60015771D02*
X188904762Y-60015771D01*
X188904762Y-60015771D02*
X188809524Y-60063390D01*
X188809524Y-60063390D02*
X188761905Y-60111009D01*
X188761905Y-60111009D02*
X188714286Y-60206247D01*
X199083333Y-44454819D02*
X198750000Y-43978628D01*
X198511905Y-44454819D02*
X198511905Y-43454819D01*
X198511905Y-43454819D02*
X198892857Y-43454819D01*
X198892857Y-43454819D02*
X198988095Y-43502438D01*
X198988095Y-43502438D02*
X199035714Y-43550057D01*
X199035714Y-43550057D02*
X199083333Y-43645295D01*
X199083333Y-43645295D02*
X199083333Y-43788152D01*
X199083333Y-43788152D02*
X199035714Y-43883390D01*
X199035714Y-43883390D02*
X198988095Y-43931009D01*
X198988095Y-43931009D02*
X198892857Y-43978628D01*
X198892857Y-43978628D02*
X198511905Y-43978628D01*
X199464286Y-43550057D02*
X199511905Y-43502438D01*
X199511905Y-43502438D02*
X199607143Y-43454819D01*
X199607143Y-43454819D02*
X199845238Y-43454819D01*
X199845238Y-43454819D02*
X199940476Y-43502438D01*
X199940476Y-43502438D02*
X199988095Y-43550057D01*
X199988095Y-43550057D02*
X200035714Y-43645295D01*
X200035714Y-43645295D02*
X200035714Y-43740533D01*
X200035714Y-43740533D02*
X199988095Y-43883390D01*
X199988095Y-43883390D02*
X199416667Y-44454819D01*
X199416667Y-44454819D02*
X200035714Y-44454819D01*
X199083333Y-41204819D02*
X198750000Y-40728628D01*
X198511905Y-41204819D02*
X198511905Y-40204819D01*
X198511905Y-40204819D02*
X198892857Y-40204819D01*
X198892857Y-40204819D02*
X198988095Y-40252438D01*
X198988095Y-40252438D02*
X199035714Y-40300057D01*
X199035714Y-40300057D02*
X199083333Y-40395295D01*
X199083333Y-40395295D02*
X199083333Y-40538152D01*
X199083333Y-40538152D02*
X199035714Y-40633390D01*
X199035714Y-40633390D02*
X198988095Y-40681009D01*
X198988095Y-40681009D02*
X198892857Y-40728628D01*
X198892857Y-40728628D02*
X198511905Y-40728628D01*
X199940476Y-40538152D02*
X199940476Y-41204819D01*
X199702381Y-40157200D02*
X199464286Y-40871485D01*
X199464286Y-40871485D02*
X200083333Y-40871485D01*
X195488095Y-38704819D02*
X195488095Y-37704819D01*
X195488095Y-37704819D02*
X195726190Y-37704819D01*
X195726190Y-37704819D02*
X195869047Y-37752438D01*
X195869047Y-37752438D02*
X195964285Y-37847676D01*
X195964285Y-37847676D02*
X196011904Y-37942914D01*
X196011904Y-37942914D02*
X196059523Y-38133390D01*
X196059523Y-38133390D02*
X196059523Y-38276247D01*
X196059523Y-38276247D02*
X196011904Y-38466723D01*
X196011904Y-38466723D02*
X195964285Y-38561961D01*
X195964285Y-38561961D02*
X195869047Y-38657200D01*
X195869047Y-38657200D02*
X195726190Y-38704819D01*
X195726190Y-38704819D02*
X195488095Y-38704819D01*
X188309523Y-69454819D02*
X187833333Y-69454819D01*
X187833333Y-69454819D02*
X187785714Y-69931009D01*
X187785714Y-69931009D02*
X187833333Y-69883390D01*
X187833333Y-69883390D02*
X187928571Y-69835771D01*
X187928571Y-69835771D02*
X188166666Y-69835771D01*
X188166666Y-69835771D02*
X188261904Y-69883390D01*
X188261904Y-69883390D02*
X188309523Y-69931009D01*
X188309523Y-69931009D02*
X188357142Y-70026247D01*
X188357142Y-70026247D02*
X188357142Y-70264342D01*
X188357142Y-70264342D02*
X188309523Y-70359580D01*
X188309523Y-70359580D02*
X188261904Y-70407200D01*
X188261904Y-70407200D02*
X188166666Y-70454819D01*
X188166666Y-70454819D02*
X187928571Y-70454819D01*
X187928571Y-70454819D02*
X187833333Y-70407200D01*
X187833333Y-70407200D02*
X187785714Y-70359580D01*
X188642857Y-69454819D02*
X188976190Y-70454819D01*
X188976190Y-70454819D02*
X189309523Y-69454819D01*
X203142857Y-41431009D02*
X203285714Y-41478628D01*
X203285714Y-41478628D02*
X203333333Y-41526247D01*
X203333333Y-41526247D02*
X203380952Y-41621485D01*
X203380952Y-41621485D02*
X203380952Y-41764342D01*
X203380952Y-41764342D02*
X203333333Y-41859580D01*
X203333333Y-41859580D02*
X203285714Y-41907200D01*
X203285714Y-41907200D02*
X203190476Y-41954819D01*
X203190476Y-41954819D02*
X202809524Y-41954819D01*
X202809524Y-41954819D02*
X202809524Y-40954819D01*
X202809524Y-40954819D02*
X203142857Y-40954819D01*
X203142857Y-40954819D02*
X203238095Y-41002438D01*
X203238095Y-41002438D02*
X203285714Y-41050057D01*
X203285714Y-41050057D02*
X203333333Y-41145295D01*
X203333333Y-41145295D02*
X203333333Y-41240533D01*
X203333333Y-41240533D02*
X203285714Y-41335771D01*
X203285714Y-41335771D02*
X203238095Y-41383390D01*
X203238095Y-41383390D02*
X203142857Y-41431009D01*
X203142857Y-41431009D02*
X202809524Y-41431009D01*
X204000000Y-40954819D02*
X204190476Y-40954819D01*
X204190476Y-40954819D02*
X204285714Y-41002438D01*
X204285714Y-41002438D02*
X204380952Y-41097676D01*
X204380952Y-41097676D02*
X204428571Y-41288152D01*
X204428571Y-41288152D02*
X204428571Y-41621485D01*
X204428571Y-41621485D02*
X204380952Y-41811961D01*
X204380952Y-41811961D02*
X204285714Y-41907200D01*
X204285714Y-41907200D02*
X204190476Y-41954819D01*
X204190476Y-41954819D02*
X204000000Y-41954819D01*
X204000000Y-41954819D02*
X203904762Y-41907200D01*
X203904762Y-41907200D02*
X203809524Y-41811961D01*
X203809524Y-41811961D02*
X203761905Y-41621485D01*
X203761905Y-41621485D02*
X203761905Y-41288152D01*
X203761905Y-41288152D02*
X203809524Y-41097676D01*
X203809524Y-41097676D02*
X203904762Y-41002438D01*
X203904762Y-41002438D02*
X204000000Y-40954819D01*
X205047619Y-40954819D02*
X205238095Y-40954819D01*
X205238095Y-40954819D02*
X205333333Y-41002438D01*
X205333333Y-41002438D02*
X205428571Y-41097676D01*
X205428571Y-41097676D02*
X205476190Y-41288152D01*
X205476190Y-41288152D02*
X205476190Y-41621485D01*
X205476190Y-41621485D02*
X205428571Y-41811961D01*
X205428571Y-41811961D02*
X205333333Y-41907200D01*
X205333333Y-41907200D02*
X205238095Y-41954819D01*
X205238095Y-41954819D02*
X205047619Y-41954819D01*
X205047619Y-41954819D02*
X204952381Y-41907200D01*
X204952381Y-41907200D02*
X204857143Y-41811961D01*
X204857143Y-41811961D02*
X204809524Y-41621485D01*
X204809524Y-41621485D02*
X204809524Y-41288152D01*
X204809524Y-41288152D02*
X204857143Y-41097676D01*
X204857143Y-41097676D02*
X204952381Y-41002438D01*
X204952381Y-41002438D02*
X205047619Y-40954819D01*
X205761905Y-40954819D02*
X206333333Y-40954819D01*
X206047619Y-41954819D02*
X206047619Y-40954819D01*
X183083333Y-54109580D02*
X183035714Y-54157200D01*
X183035714Y-54157200D02*
X182892857Y-54204819D01*
X182892857Y-54204819D02*
X182797619Y-54204819D01*
X182797619Y-54204819D02*
X182654762Y-54157200D01*
X182654762Y-54157200D02*
X182559524Y-54061961D01*
X182559524Y-54061961D02*
X182511905Y-53966723D01*
X182511905Y-53966723D02*
X182464286Y-53776247D01*
X182464286Y-53776247D02*
X182464286Y-53633390D01*
X182464286Y-53633390D02*
X182511905Y-53442914D01*
X182511905Y-53442914D02*
X182559524Y-53347676D01*
X182559524Y-53347676D02*
X182654762Y-53252438D01*
X182654762Y-53252438D02*
X182797619Y-53204819D01*
X182797619Y-53204819D02*
X182892857Y-53204819D01*
X182892857Y-53204819D02*
X183035714Y-53252438D01*
X183035714Y-53252438D02*
X183083333Y-53300057D01*
X183940476Y-53204819D02*
X183750000Y-53204819D01*
X183750000Y-53204819D02*
X183654762Y-53252438D01*
X183654762Y-53252438D02*
X183607143Y-53300057D01*
X183607143Y-53300057D02*
X183511905Y-53442914D01*
X183511905Y-53442914D02*
X183464286Y-53633390D01*
X183464286Y-53633390D02*
X183464286Y-54014342D01*
X183464286Y-54014342D02*
X183511905Y-54109580D01*
X183511905Y-54109580D02*
X183559524Y-54157200D01*
X183559524Y-54157200D02*
X183654762Y-54204819D01*
X183654762Y-54204819D02*
X183845238Y-54204819D01*
X183845238Y-54204819D02*
X183940476Y-54157200D01*
X183940476Y-54157200D02*
X183988095Y-54109580D01*
X183988095Y-54109580D02*
X184035714Y-54014342D01*
X184035714Y-54014342D02*
X184035714Y-53776247D01*
X184035714Y-53776247D02*
X183988095Y-53681009D01*
X183988095Y-53681009D02*
X183940476Y-53633390D01*
X183940476Y-53633390D02*
X183845238Y-53585771D01*
X183845238Y-53585771D02*
X183654762Y-53585771D01*
X183654762Y-53585771D02*
X183559524Y-53633390D01*
X183559524Y-53633390D02*
X183511905Y-53681009D01*
X183511905Y-53681009D02*
X183464286Y-53776247D01*
X174833333Y-43359580D02*
X174785714Y-43407200D01*
X174785714Y-43407200D02*
X174642857Y-43454819D01*
X174642857Y-43454819D02*
X174547619Y-43454819D01*
X174547619Y-43454819D02*
X174404762Y-43407200D01*
X174404762Y-43407200D02*
X174309524Y-43311961D01*
X174309524Y-43311961D02*
X174261905Y-43216723D01*
X174261905Y-43216723D02*
X174214286Y-43026247D01*
X174214286Y-43026247D02*
X174214286Y-42883390D01*
X174214286Y-42883390D02*
X174261905Y-42692914D01*
X174261905Y-42692914D02*
X174309524Y-42597676D01*
X174309524Y-42597676D02*
X174404762Y-42502438D01*
X174404762Y-42502438D02*
X174547619Y-42454819D01*
X174547619Y-42454819D02*
X174642857Y-42454819D01*
X174642857Y-42454819D02*
X174785714Y-42502438D01*
X174785714Y-42502438D02*
X174833333Y-42550057D01*
X175738095Y-42454819D02*
X175261905Y-42454819D01*
X175261905Y-42454819D02*
X175214286Y-42931009D01*
X175214286Y-42931009D02*
X175261905Y-42883390D01*
X175261905Y-42883390D02*
X175357143Y-42835771D01*
X175357143Y-42835771D02*
X175595238Y-42835771D01*
X175595238Y-42835771D02*
X175690476Y-42883390D01*
X175690476Y-42883390D02*
X175738095Y-42931009D01*
X175738095Y-42931009D02*
X175785714Y-43026247D01*
X175785714Y-43026247D02*
X175785714Y-43264342D01*
X175785714Y-43264342D02*
X175738095Y-43359580D01*
X175738095Y-43359580D02*
X175690476Y-43407200D01*
X175690476Y-43407200D02*
X175595238Y-43454819D01*
X175595238Y-43454819D02*
X175357143Y-43454819D01*
X175357143Y-43454819D02*
X175261905Y-43407200D01*
X175261905Y-43407200D02*
X175214286Y-43359580D01*
X193857142Y-56109580D02*
X193809523Y-56157200D01*
X193809523Y-56157200D02*
X193666666Y-56204819D01*
X193666666Y-56204819D02*
X193571428Y-56204819D01*
X193571428Y-56204819D02*
X193428571Y-56157200D01*
X193428571Y-56157200D02*
X193333333Y-56061961D01*
X193333333Y-56061961D02*
X193285714Y-55966723D01*
X193285714Y-55966723D02*
X193238095Y-55776247D01*
X193238095Y-55776247D02*
X193238095Y-55633390D01*
X193238095Y-55633390D02*
X193285714Y-55442914D01*
X193285714Y-55442914D02*
X193333333Y-55347676D01*
X193333333Y-55347676D02*
X193428571Y-55252438D01*
X193428571Y-55252438D02*
X193571428Y-55204819D01*
X193571428Y-55204819D02*
X193666666Y-55204819D01*
X193666666Y-55204819D02*
X193809523Y-55252438D01*
X193809523Y-55252438D02*
X193857142Y-55300057D01*
X194809523Y-56204819D02*
X194238095Y-56204819D01*
X194523809Y-56204819D02*
X194523809Y-55204819D01*
X194523809Y-55204819D02*
X194428571Y-55347676D01*
X194428571Y-55347676D02*
X194333333Y-55442914D01*
X194333333Y-55442914D02*
X194238095Y-55490533D01*
X195761904Y-56204819D02*
X195190476Y-56204819D01*
X195476190Y-56204819D02*
X195476190Y-55204819D01*
X195476190Y-55204819D02*
X195380952Y-55347676D01*
X195380952Y-55347676D02*
X195285714Y-55442914D01*
X195285714Y-55442914D02*
X195190476Y-55490533D01*
X208952380Y-41954819D02*
X208619047Y-41478628D01*
X208380952Y-41954819D02*
X208380952Y-40954819D01*
X208380952Y-40954819D02*
X208761904Y-40954819D01*
X208761904Y-40954819D02*
X208857142Y-41002438D01*
X208857142Y-41002438D02*
X208904761Y-41050057D01*
X208904761Y-41050057D02*
X208952380Y-41145295D01*
X208952380Y-41145295D02*
X208952380Y-41288152D01*
X208952380Y-41288152D02*
X208904761Y-41383390D01*
X208904761Y-41383390D02*
X208857142Y-41431009D01*
X208857142Y-41431009D02*
X208761904Y-41478628D01*
X208761904Y-41478628D02*
X208380952Y-41478628D01*
X209333333Y-41907200D02*
X209476190Y-41954819D01*
X209476190Y-41954819D02*
X209714285Y-41954819D01*
X209714285Y-41954819D02*
X209809523Y-41907200D01*
X209809523Y-41907200D02*
X209857142Y-41859580D01*
X209857142Y-41859580D02*
X209904761Y-41764342D01*
X209904761Y-41764342D02*
X209904761Y-41669104D01*
X209904761Y-41669104D02*
X209857142Y-41573866D01*
X209857142Y-41573866D02*
X209809523Y-41526247D01*
X209809523Y-41526247D02*
X209714285Y-41478628D01*
X209714285Y-41478628D02*
X209523809Y-41431009D01*
X209523809Y-41431009D02*
X209428571Y-41383390D01*
X209428571Y-41383390D02*
X209380952Y-41335771D01*
X209380952Y-41335771D02*
X209333333Y-41240533D01*
X209333333Y-41240533D02*
X209333333Y-41145295D01*
X209333333Y-41145295D02*
X209380952Y-41050057D01*
X209380952Y-41050057D02*
X209428571Y-41002438D01*
X209428571Y-41002438D02*
X209523809Y-40954819D01*
X209523809Y-40954819D02*
X209761904Y-40954819D01*
X209761904Y-40954819D02*
X209904761Y-41002438D01*
X210190476Y-40954819D02*
X210761904Y-40954819D01*
X210476190Y-41954819D02*
X210476190Y-40954819D01*
X207011905Y-53204819D02*
X207011905Y-52204819D01*
X207011905Y-52204819D02*
X207250000Y-52204819D01*
X207250000Y-52204819D02*
X207392857Y-52252438D01*
X207392857Y-52252438D02*
X207488095Y-52347676D01*
X207488095Y-52347676D02*
X207535714Y-52442914D01*
X207535714Y-52442914D02*
X207583333Y-52633390D01*
X207583333Y-52633390D02*
X207583333Y-52776247D01*
X207583333Y-52776247D02*
X207535714Y-52966723D01*
X207535714Y-52966723D02*
X207488095Y-53061961D01*
X207488095Y-53061961D02*
X207392857Y-53157200D01*
X207392857Y-53157200D02*
X207250000Y-53204819D01*
X207250000Y-53204819D02*
X207011905Y-53204819D01*
X208488095Y-52204819D02*
X208011905Y-52204819D01*
X208011905Y-52204819D02*
X207964286Y-52681009D01*
X207964286Y-52681009D02*
X208011905Y-52633390D01*
X208011905Y-52633390D02*
X208107143Y-52585771D01*
X208107143Y-52585771D02*
X208345238Y-52585771D01*
X208345238Y-52585771D02*
X208440476Y-52633390D01*
X208440476Y-52633390D02*
X208488095Y-52681009D01*
X208488095Y-52681009D02*
X208535714Y-52776247D01*
X208535714Y-52776247D02*
X208535714Y-53014342D01*
X208535714Y-53014342D02*
X208488095Y-53109580D01*
X208488095Y-53109580D02*
X208440476Y-53157200D01*
X208440476Y-53157200D02*
X208345238Y-53204819D01*
X208345238Y-53204819D02*
X208107143Y-53204819D01*
X208107143Y-53204819D02*
X208011905Y-53157200D01*
X208011905Y-53157200D02*
X207964286Y-53109580D01*
X192738095Y-69502438D02*
X192642857Y-69454819D01*
X192642857Y-69454819D02*
X192500000Y-69454819D01*
X192500000Y-69454819D02*
X192357143Y-69502438D01*
X192357143Y-69502438D02*
X192261905Y-69597676D01*
X192261905Y-69597676D02*
X192214286Y-69692914D01*
X192214286Y-69692914D02*
X192166667Y-69883390D01*
X192166667Y-69883390D02*
X192166667Y-70026247D01*
X192166667Y-70026247D02*
X192214286Y-70216723D01*
X192214286Y-70216723D02*
X192261905Y-70311961D01*
X192261905Y-70311961D02*
X192357143Y-70407200D01*
X192357143Y-70407200D02*
X192500000Y-70454819D01*
X192500000Y-70454819D02*
X192595238Y-70454819D01*
X192595238Y-70454819D02*
X192738095Y-70407200D01*
X192738095Y-70407200D02*
X192785714Y-70359580D01*
X192785714Y-70359580D02*
X192785714Y-70026247D01*
X192785714Y-70026247D02*
X192595238Y-70026247D01*
X193214286Y-70454819D02*
X193214286Y-69454819D01*
X193214286Y-69454819D02*
X193785714Y-70454819D01*
X193785714Y-70454819D02*
X193785714Y-69454819D01*
X194261905Y-70454819D02*
X194261905Y-69454819D01*
X194261905Y-69454819D02*
X194500000Y-69454819D01*
X194500000Y-69454819D02*
X194642857Y-69502438D01*
X194642857Y-69502438D02*
X194738095Y-69597676D01*
X194738095Y-69597676D02*
X194785714Y-69692914D01*
X194785714Y-69692914D02*
X194833333Y-69883390D01*
X194833333Y-69883390D02*
X194833333Y-70026247D01*
X194833333Y-70026247D02*
X194785714Y-70216723D01*
X194785714Y-70216723D02*
X194738095Y-70311961D01*
X194738095Y-70311961D02*
X194642857Y-70407200D01*
X194642857Y-70407200D02*
X194500000Y-70454819D01*
X194500000Y-70454819D02*
X194261905Y-70454819D01*
X195583333Y-44704819D02*
X195250000Y-44228628D01*
X195011905Y-44704819D02*
X195011905Y-43704819D01*
X195011905Y-43704819D02*
X195392857Y-43704819D01*
X195392857Y-43704819D02*
X195488095Y-43752438D01*
X195488095Y-43752438D02*
X195535714Y-43800057D01*
X195535714Y-43800057D02*
X195583333Y-43895295D01*
X195583333Y-43895295D02*
X195583333Y-44038152D01*
X195583333Y-44038152D02*
X195535714Y-44133390D01*
X195535714Y-44133390D02*
X195488095Y-44181009D01*
X195488095Y-44181009D02*
X195392857Y-44228628D01*
X195392857Y-44228628D02*
X195011905Y-44228628D01*
X196488095Y-43704819D02*
X196011905Y-43704819D01*
X196011905Y-43704819D02*
X195964286Y-44181009D01*
X195964286Y-44181009D02*
X196011905Y-44133390D01*
X196011905Y-44133390D02*
X196107143Y-44085771D01*
X196107143Y-44085771D02*
X196345238Y-44085771D01*
X196345238Y-44085771D02*
X196440476Y-44133390D01*
X196440476Y-44133390D02*
X196488095Y-44181009D01*
X196488095Y-44181009D02*
X196535714Y-44276247D01*
X196535714Y-44276247D02*
X196535714Y-44514342D01*
X196535714Y-44514342D02*
X196488095Y-44609580D01*
X196488095Y-44609580D02*
X196440476Y-44657200D01*
X196440476Y-44657200D02*
X196345238Y-44704819D01*
X196345238Y-44704819D02*
X196107143Y-44704819D01*
X196107143Y-44704819D02*
X196011905Y-44657200D01*
X196011905Y-44657200D02*
X195964286Y-44609580D01*
X177107142Y-51204819D02*
X176773809Y-50728628D01*
X176535714Y-51204819D02*
X176535714Y-50204819D01*
X176535714Y-50204819D02*
X176916666Y-50204819D01*
X176916666Y-50204819D02*
X177011904Y-50252438D01*
X177011904Y-50252438D02*
X177059523Y-50300057D01*
X177059523Y-50300057D02*
X177107142Y-50395295D01*
X177107142Y-50395295D02*
X177107142Y-50538152D01*
X177107142Y-50538152D02*
X177059523Y-50633390D01*
X177059523Y-50633390D02*
X177011904Y-50681009D01*
X177011904Y-50681009D02*
X176916666Y-50728628D01*
X176916666Y-50728628D02*
X176535714Y-50728628D01*
X178059523Y-51204819D02*
X177488095Y-51204819D01*
X177773809Y-51204819D02*
X177773809Y-50204819D01*
X177773809Y-50204819D02*
X177678571Y-50347676D01*
X177678571Y-50347676D02*
X177583333Y-50442914D01*
X177583333Y-50442914D02*
X177488095Y-50490533D01*
X178678571Y-50204819D02*
X178773809Y-50204819D01*
X178773809Y-50204819D02*
X178869047Y-50252438D01*
X178869047Y-50252438D02*
X178916666Y-50300057D01*
X178916666Y-50300057D02*
X178964285Y-50395295D01*
X178964285Y-50395295D02*
X179011904Y-50585771D01*
X179011904Y-50585771D02*
X179011904Y-50823866D01*
X179011904Y-50823866D02*
X178964285Y-51014342D01*
X178964285Y-51014342D02*
X178916666Y-51109580D01*
X178916666Y-51109580D02*
X178869047Y-51157200D01*
X178869047Y-51157200D02*
X178773809Y-51204819D01*
X178773809Y-51204819D02*
X178678571Y-51204819D01*
X178678571Y-51204819D02*
X178583333Y-51157200D01*
X178583333Y-51157200D02*
X178535714Y-51109580D01*
X178535714Y-51109580D02*
X178488095Y-51014342D01*
X178488095Y-51014342D02*
X178440476Y-50823866D01*
X178440476Y-50823866D02*
X178440476Y-50585771D01*
X178440476Y-50585771D02*
X178488095Y-50395295D01*
X178488095Y-50395295D02*
X178535714Y-50300057D01*
X178535714Y-50300057D02*
X178583333Y-50252438D01*
X178583333Y-50252438D02*
X178678571Y-50204819D01*
X201238095Y-58054819D02*
X201238095Y-58864342D01*
X201238095Y-58864342D02*
X201285714Y-58959580D01*
X201285714Y-58959580D02*
X201333333Y-59007200D01*
X201333333Y-59007200D02*
X201428571Y-59054819D01*
X201428571Y-59054819D02*
X201619047Y-59054819D01*
X201619047Y-59054819D02*
X201714285Y-59007200D01*
X201714285Y-59007200D02*
X201761904Y-58959580D01*
X201761904Y-58959580D02*
X201809523Y-58864342D01*
X201809523Y-58864342D02*
X201809523Y-58054819D01*
X202190476Y-58054819D02*
X202809523Y-58054819D01*
X202809523Y-58054819D02*
X202476190Y-58435771D01*
X202476190Y-58435771D02*
X202619047Y-58435771D01*
X202619047Y-58435771D02*
X202714285Y-58483390D01*
X202714285Y-58483390D02*
X202761904Y-58531009D01*
X202761904Y-58531009D02*
X202809523Y-58626247D01*
X202809523Y-58626247D02*
X202809523Y-58864342D01*
X202809523Y-58864342D02*
X202761904Y-58959580D01*
X202761904Y-58959580D02*
X202714285Y-59007200D01*
X202714285Y-59007200D02*
X202619047Y-59054819D01*
X202619047Y-59054819D02*
X202333333Y-59054819D01*
X202333333Y-59054819D02*
X202238095Y-59007200D01*
X202238095Y-59007200D02*
X202190476Y-58959580D01*
X196357142Y-65204819D02*
X196023809Y-64728628D01*
X195785714Y-65204819D02*
X195785714Y-64204819D01*
X195785714Y-64204819D02*
X196166666Y-64204819D01*
X196166666Y-64204819D02*
X196261904Y-64252438D01*
X196261904Y-64252438D02*
X196309523Y-64300057D01*
X196309523Y-64300057D02*
X196357142Y-64395295D01*
X196357142Y-64395295D02*
X196357142Y-64538152D01*
X196357142Y-64538152D02*
X196309523Y-64633390D01*
X196309523Y-64633390D02*
X196261904Y-64681009D01*
X196261904Y-64681009D02*
X196166666Y-64728628D01*
X196166666Y-64728628D02*
X195785714Y-64728628D01*
X197309523Y-65204819D02*
X196738095Y-65204819D01*
X197023809Y-65204819D02*
X197023809Y-64204819D01*
X197023809Y-64204819D02*
X196928571Y-64347676D01*
X196928571Y-64347676D02*
X196833333Y-64442914D01*
X196833333Y-64442914D02*
X196738095Y-64490533D01*
X197690476Y-64300057D02*
X197738095Y-64252438D01*
X197738095Y-64252438D02*
X197833333Y-64204819D01*
X197833333Y-64204819D02*
X198071428Y-64204819D01*
X198071428Y-64204819D02*
X198166666Y-64252438D01*
X198166666Y-64252438D02*
X198214285Y-64300057D01*
X198214285Y-64300057D02*
X198261904Y-64395295D01*
X198261904Y-64395295D02*
X198261904Y-64490533D01*
X198261904Y-64490533D02*
X198214285Y-64633390D01*
X198214285Y-64633390D02*
X197642857Y-65204819D01*
X197642857Y-65204819D02*
X198261904Y-65204819D01*
X178833333Y-57859580D02*
X178785714Y-57907200D01*
X178785714Y-57907200D02*
X178642857Y-57954819D01*
X178642857Y-57954819D02*
X178547619Y-57954819D01*
X178547619Y-57954819D02*
X178404762Y-57907200D01*
X178404762Y-57907200D02*
X178309524Y-57811961D01*
X178309524Y-57811961D02*
X178261905Y-57716723D01*
X178261905Y-57716723D02*
X178214286Y-57526247D01*
X178214286Y-57526247D02*
X178214286Y-57383390D01*
X178214286Y-57383390D02*
X178261905Y-57192914D01*
X178261905Y-57192914D02*
X178309524Y-57097676D01*
X178309524Y-57097676D02*
X178404762Y-57002438D01*
X178404762Y-57002438D02*
X178547619Y-56954819D01*
X178547619Y-56954819D02*
X178642857Y-56954819D01*
X178642857Y-56954819D02*
X178785714Y-57002438D01*
X178785714Y-57002438D02*
X178833333Y-57050057D01*
X179166667Y-56954819D02*
X179833333Y-56954819D01*
X179833333Y-56954819D02*
X179404762Y-57954819D01*
X170583333Y-41609580D02*
X170535714Y-41657200D01*
X170535714Y-41657200D02*
X170392857Y-41704819D01*
X170392857Y-41704819D02*
X170297619Y-41704819D01*
X170297619Y-41704819D02*
X170154762Y-41657200D01*
X170154762Y-41657200D02*
X170059524Y-41561961D01*
X170059524Y-41561961D02*
X170011905Y-41466723D01*
X170011905Y-41466723D02*
X169964286Y-41276247D01*
X169964286Y-41276247D02*
X169964286Y-41133390D01*
X169964286Y-41133390D02*
X170011905Y-40942914D01*
X170011905Y-40942914D02*
X170059524Y-40847676D01*
X170059524Y-40847676D02*
X170154762Y-40752438D01*
X170154762Y-40752438D02*
X170297619Y-40704819D01*
X170297619Y-40704819D02*
X170392857Y-40704819D01*
X170392857Y-40704819D02*
X170535714Y-40752438D01*
X170535714Y-40752438D02*
X170583333Y-40800057D01*
X171535714Y-41704819D02*
X170964286Y-41704819D01*
X171250000Y-41704819D02*
X171250000Y-40704819D01*
X171250000Y-40704819D02*
X171154762Y-40847676D01*
X171154762Y-40847676D02*
X171059524Y-40942914D01*
X171059524Y-40942914D02*
X170964286Y-40990533D01*
X192773810Y-62704819D02*
X192773810Y-61704819D01*
X193821428Y-62609580D02*
X193773809Y-62657200D01*
X193773809Y-62657200D02*
X193630952Y-62704819D01*
X193630952Y-62704819D02*
X193535714Y-62704819D01*
X193535714Y-62704819D02*
X193392857Y-62657200D01*
X193392857Y-62657200D02*
X193297619Y-62561961D01*
X193297619Y-62561961D02*
X193250000Y-62466723D01*
X193250000Y-62466723D02*
X193202381Y-62276247D01*
X193202381Y-62276247D02*
X193202381Y-62133390D01*
X193202381Y-62133390D02*
X193250000Y-61942914D01*
X193250000Y-61942914D02*
X193297619Y-61847676D01*
X193297619Y-61847676D02*
X193392857Y-61752438D01*
X193392857Y-61752438D02*
X193535714Y-61704819D01*
X193535714Y-61704819D02*
X193630952Y-61704819D01*
X193630952Y-61704819D02*
X193773809Y-61752438D01*
X193773809Y-61752438D02*
X193821428Y-61800057D01*
X194773809Y-62704819D02*
X194202381Y-62704819D01*
X194488095Y-62704819D02*
X194488095Y-61704819D01*
X194488095Y-61704819D02*
X194392857Y-61847676D01*
X194392857Y-61847676D02*
X194297619Y-61942914D01*
X194297619Y-61942914D02*
X194202381Y-61990533D01*
X177430925Y-60715968D02*
X177478610Y-60572913D01*
X177478610Y-60572913D02*
X177526295Y-60525228D01*
X177526295Y-60525228D02*
X177621665Y-60477543D01*
X177621665Y-60477543D02*
X177764720Y-60477543D01*
X177764720Y-60477543D02*
X177860090Y-60525228D01*
X177860090Y-60525228D02*
X177907776Y-60572913D01*
X177907776Y-60572913D02*
X177955461Y-60668283D01*
X177955461Y-60668283D02*
X177955461Y-61049763D01*
X177955461Y-61049763D02*
X176954075Y-61049763D01*
X176954075Y-61049763D02*
X176954075Y-60715968D01*
X176954075Y-60715968D02*
X177001760Y-60620598D01*
X177001760Y-60620598D02*
X177049445Y-60572913D01*
X177049445Y-60572913D02*
X177144815Y-60525228D01*
X177144815Y-60525228D02*
X177240185Y-60525228D01*
X177240185Y-60525228D02*
X177335555Y-60572913D01*
X177335555Y-60572913D02*
X177383240Y-60620598D01*
X177383240Y-60620598D02*
X177430925Y-60715968D01*
X177430925Y-60715968D02*
X177430925Y-61049763D01*
X177669350Y-60096062D02*
X177669350Y-59619212D01*
X177955461Y-60191432D02*
X176954075Y-59857637D01*
X176954075Y-59857637D02*
X177955461Y-59523842D01*
X176954075Y-59333101D02*
X176954075Y-58760881D01*
X177955461Y-59046991D02*
X176954075Y-59046991D01*
X177955461Y-57902550D02*
X177955461Y-58474770D01*
X177955461Y-58188660D02*
X176954075Y-58188660D01*
X176954075Y-58188660D02*
X177097130Y-58284030D01*
X177097130Y-58284030D02*
X177192500Y-58379400D01*
X177192500Y-58379400D02*
X177240185Y-58474770D01*
X183261905Y-63304819D02*
X183261905Y-62304819D01*
X183261905Y-62304819D02*
X183500000Y-62304819D01*
X183500000Y-62304819D02*
X183642857Y-62352438D01*
X183642857Y-62352438D02*
X183738095Y-62447676D01*
X183738095Y-62447676D02*
X183785714Y-62542914D01*
X183785714Y-62542914D02*
X183833333Y-62733390D01*
X183833333Y-62733390D02*
X183833333Y-62876247D01*
X183833333Y-62876247D02*
X183785714Y-63066723D01*
X183785714Y-63066723D02*
X183738095Y-63161961D01*
X183738095Y-63161961D02*
X183642857Y-63257200D01*
X183642857Y-63257200D02*
X183500000Y-63304819D01*
X183500000Y-63304819D02*
X183261905Y-63304819D01*
X184214286Y-62400057D02*
X184261905Y-62352438D01*
X184261905Y-62352438D02*
X184357143Y-62304819D01*
X184357143Y-62304819D02*
X184595238Y-62304819D01*
X184595238Y-62304819D02*
X184690476Y-62352438D01*
X184690476Y-62352438D02*
X184738095Y-62400057D01*
X184738095Y-62400057D02*
X184785714Y-62495295D01*
X184785714Y-62495295D02*
X184785714Y-62590533D01*
X184785714Y-62590533D02*
X184738095Y-62733390D01*
X184738095Y-62733390D02*
X184166667Y-63304819D01*
X184166667Y-63304819D02*
X184785714Y-63304819D01*
X176369048Y-70073866D02*
X177130953Y-70073866D01*
X176750000Y-70454819D02*
X176750000Y-69692914D01*
X170511905Y-43954819D02*
X171130952Y-43954819D01*
X171130952Y-43954819D02*
X170797619Y-44335771D01*
X170797619Y-44335771D02*
X170940476Y-44335771D01*
X170940476Y-44335771D02*
X171035714Y-44383390D01*
X171035714Y-44383390D02*
X171083333Y-44431009D01*
X171083333Y-44431009D02*
X171130952Y-44526247D01*
X171130952Y-44526247D02*
X171130952Y-44764342D01*
X171130952Y-44764342D02*
X171083333Y-44859580D01*
X171083333Y-44859580D02*
X171035714Y-44907200D01*
X171035714Y-44907200D02*
X170940476Y-44954819D01*
X170940476Y-44954819D02*
X170654762Y-44954819D01*
X170654762Y-44954819D02*
X170559524Y-44907200D01*
X170559524Y-44907200D02*
X170511905Y-44859580D01*
X171416667Y-43954819D02*
X171750000Y-44954819D01*
X171750000Y-44954819D02*
X172083333Y-43954819D01*
X172321429Y-43954819D02*
X172940476Y-43954819D01*
X172940476Y-43954819D02*
X172607143Y-44335771D01*
X172607143Y-44335771D02*
X172750000Y-44335771D01*
X172750000Y-44335771D02*
X172845238Y-44383390D01*
X172845238Y-44383390D02*
X172892857Y-44431009D01*
X172892857Y-44431009D02*
X172940476Y-44526247D01*
X172940476Y-44526247D02*
X172940476Y-44764342D01*
X172940476Y-44764342D02*
X172892857Y-44859580D01*
X172892857Y-44859580D02*
X172845238Y-44907200D01*
X172845238Y-44907200D02*
X172750000Y-44954819D01*
X172750000Y-44954819D02*
X172464286Y-44954819D01*
X172464286Y-44954819D02*
X172369048Y-44907200D01*
X172369048Y-44907200D02*
X172321429Y-44859580D01*
X197488095Y-37752438D02*
X197392857Y-37704819D01*
X197392857Y-37704819D02*
X197250000Y-37704819D01*
X197250000Y-37704819D02*
X197107143Y-37752438D01*
X197107143Y-37752438D02*
X197011905Y-37847676D01*
X197011905Y-37847676D02*
X196964286Y-37942914D01*
X196964286Y-37942914D02*
X196916667Y-38133390D01*
X196916667Y-38133390D02*
X196916667Y-38276247D01*
X196916667Y-38276247D02*
X196964286Y-38466723D01*
X196964286Y-38466723D02*
X197011905Y-38561961D01*
X197011905Y-38561961D02*
X197107143Y-38657200D01*
X197107143Y-38657200D02*
X197250000Y-38704819D01*
X197250000Y-38704819D02*
X197345238Y-38704819D01*
X197345238Y-38704819D02*
X197488095Y-38657200D01*
X197488095Y-38657200D02*
X197535714Y-38609580D01*
X197535714Y-38609580D02*
X197535714Y-38276247D01*
X197535714Y-38276247D02*
X197345238Y-38276247D01*
X197964286Y-38704819D02*
X197964286Y-37704819D01*
X197964286Y-37704819D02*
X198535714Y-38704819D01*
X198535714Y-38704819D02*
X198535714Y-37704819D01*
X199011905Y-38704819D02*
X199011905Y-37704819D01*
X199011905Y-37704819D02*
X199250000Y-37704819D01*
X199250000Y-37704819D02*
X199392857Y-37752438D01*
X199392857Y-37752438D02*
X199488095Y-37847676D01*
X199488095Y-37847676D02*
X199535714Y-37942914D01*
X199535714Y-37942914D02*
X199583333Y-38133390D01*
X199583333Y-38133390D02*
X199583333Y-38276247D01*
X199583333Y-38276247D02*
X199535714Y-38466723D01*
X199535714Y-38466723D02*
X199488095Y-38561961D01*
X199488095Y-38561961D02*
X199392857Y-38657200D01*
X199392857Y-38657200D02*
X199250000Y-38704819D01*
X199250000Y-38704819D02*
X199011905Y-38704819D01*
X170285714Y-51907200D02*
X170428571Y-51954819D01*
X170428571Y-51954819D02*
X170666666Y-51954819D01*
X170666666Y-51954819D02*
X170761904Y-51907200D01*
X170761904Y-51907200D02*
X170809523Y-51859580D01*
X170809523Y-51859580D02*
X170857142Y-51764342D01*
X170857142Y-51764342D02*
X170857142Y-51669104D01*
X170857142Y-51669104D02*
X170809523Y-51573866D01*
X170809523Y-51573866D02*
X170761904Y-51526247D01*
X170761904Y-51526247D02*
X170666666Y-51478628D01*
X170666666Y-51478628D02*
X170476190Y-51431009D01*
X170476190Y-51431009D02*
X170380952Y-51383390D01*
X170380952Y-51383390D02*
X170333333Y-51335771D01*
X170333333Y-51335771D02*
X170285714Y-51240533D01*
X170285714Y-51240533D02*
X170285714Y-51145295D01*
X170285714Y-51145295D02*
X170333333Y-51050057D01*
X170333333Y-51050057D02*
X170380952Y-51002438D01*
X170380952Y-51002438D02*
X170476190Y-50954819D01*
X170476190Y-50954819D02*
X170714285Y-50954819D01*
X170714285Y-50954819D02*
X170857142Y-51002438D01*
X171285714Y-51954819D02*
X171285714Y-50954819D01*
X171285714Y-50954819D02*
X171523809Y-50954819D01*
X171523809Y-50954819D02*
X171666666Y-51002438D01*
X171666666Y-51002438D02*
X171761904Y-51097676D01*
X171761904Y-51097676D02*
X171809523Y-51192914D01*
X171809523Y-51192914D02*
X171857142Y-51383390D01*
X171857142Y-51383390D02*
X171857142Y-51526247D01*
X171857142Y-51526247D02*
X171809523Y-51716723D01*
X171809523Y-51716723D02*
X171761904Y-51811961D01*
X171761904Y-51811961D02*
X171666666Y-51907200D01*
X171666666Y-51907200D02*
X171523809Y-51954819D01*
X171523809Y-51954819D02*
X171285714Y-51954819D01*
X172238095Y-51669104D02*
X172714285Y-51669104D01*
X172142857Y-51954819D02*
X172476190Y-50954819D01*
X172476190Y-50954819D02*
X172809523Y-51954819D01*
X197857142Y-60204819D02*
X197523809Y-59728628D01*
X197285714Y-60204819D02*
X197285714Y-59204819D01*
X197285714Y-59204819D02*
X197666666Y-59204819D01*
X197666666Y-59204819D02*
X197761904Y-59252438D01*
X197761904Y-59252438D02*
X197809523Y-59300057D01*
X197809523Y-59300057D02*
X197857142Y-59395295D01*
X197857142Y-59395295D02*
X197857142Y-59538152D01*
X197857142Y-59538152D02*
X197809523Y-59633390D01*
X197809523Y-59633390D02*
X197761904Y-59681009D01*
X197761904Y-59681009D02*
X197666666Y-59728628D01*
X197666666Y-59728628D02*
X197285714Y-59728628D01*
X198809523Y-60204819D02*
X198238095Y-60204819D01*
X198523809Y-60204819D02*
X198523809Y-59204819D01*
X198523809Y-59204819D02*
X198428571Y-59347676D01*
X198428571Y-59347676D02*
X198333333Y-59442914D01*
X198333333Y-59442914D02*
X198238095Y-59490533D01*
X199714285Y-59204819D02*
X199238095Y-59204819D01*
X199238095Y-59204819D02*
X199190476Y-59681009D01*
X199190476Y-59681009D02*
X199238095Y-59633390D01*
X199238095Y-59633390D02*
X199333333Y-59585771D01*
X199333333Y-59585771D02*
X199571428Y-59585771D01*
X199571428Y-59585771D02*
X199666666Y-59633390D01*
X199666666Y-59633390D02*
X199714285Y-59681009D01*
X199714285Y-59681009D02*
X199761904Y-59776247D01*
X199761904Y-59776247D02*
X199761904Y-60014342D01*
X199761904Y-60014342D02*
X199714285Y-60109580D01*
X199714285Y-60109580D02*
X199666666Y-60157200D01*
X199666666Y-60157200D02*
X199571428Y-60204819D01*
X199571428Y-60204819D02*
X199333333Y-60204819D01*
X199333333Y-60204819D02*
X199238095Y-60157200D01*
X199238095Y-60157200D02*
X199190476Y-60109580D01*
X198930833Y-52704819D02*
X198454643Y-52704819D01*
X198454643Y-52704819D02*
X198454643Y-51704819D01*
X199787976Y-52704819D02*
X199216548Y-52704819D01*
X199502262Y-52704819D02*
X199502262Y-51704819D01*
X199502262Y-51704819D02*
X199407024Y-51847676D01*
X199407024Y-51847676D02*
X199311786Y-51942914D01*
X199311786Y-51942914D02*
X199216548Y-51990533D01*
X170988095Y-46252438D02*
X170892857Y-46204819D01*
X170892857Y-46204819D02*
X170750000Y-46204819D01*
X170750000Y-46204819D02*
X170607143Y-46252438D01*
X170607143Y-46252438D02*
X170511905Y-46347676D01*
X170511905Y-46347676D02*
X170464286Y-46442914D01*
X170464286Y-46442914D02*
X170416667Y-46633390D01*
X170416667Y-46633390D02*
X170416667Y-46776247D01*
X170416667Y-46776247D02*
X170464286Y-46966723D01*
X170464286Y-46966723D02*
X170511905Y-47061961D01*
X170511905Y-47061961D02*
X170607143Y-47157200D01*
X170607143Y-47157200D02*
X170750000Y-47204819D01*
X170750000Y-47204819D02*
X170845238Y-47204819D01*
X170845238Y-47204819D02*
X170988095Y-47157200D01*
X170988095Y-47157200D02*
X171035714Y-47109580D01*
X171035714Y-47109580D02*
X171035714Y-46776247D01*
X171035714Y-46776247D02*
X170845238Y-46776247D01*
X171464286Y-47204819D02*
X171464286Y-46204819D01*
X171464286Y-46204819D02*
X172035714Y-47204819D01*
X172035714Y-47204819D02*
X172035714Y-46204819D01*
X172511905Y-47204819D02*
X172511905Y-46204819D01*
X172511905Y-46204819D02*
X172750000Y-46204819D01*
X172750000Y-46204819D02*
X172892857Y-46252438D01*
X172892857Y-46252438D02*
X172988095Y-46347676D01*
X172988095Y-46347676D02*
X173035714Y-46442914D01*
X173035714Y-46442914D02*
X173083333Y-46633390D01*
X173083333Y-46633390D02*
X173083333Y-46776247D01*
X173083333Y-46776247D02*
X173035714Y-46966723D01*
X173035714Y-46966723D02*
X172988095Y-47061961D01*
X172988095Y-47061961D02*
X172892857Y-47157200D01*
X172892857Y-47157200D02*
X172750000Y-47204819D01*
X172750000Y-47204819D02*
X172511905Y-47204819D01*
X210182142Y-60524819D02*
X209848809Y-60048628D01*
X209610714Y-60524819D02*
X209610714Y-59524819D01*
X209610714Y-59524819D02*
X209991666Y-59524819D01*
X209991666Y-59524819D02*
X210086904Y-59572438D01*
X210086904Y-59572438D02*
X210134523Y-59620057D01*
X210134523Y-59620057D02*
X210182142Y-59715295D01*
X210182142Y-59715295D02*
X210182142Y-59858152D01*
X210182142Y-59858152D02*
X210134523Y-59953390D01*
X210134523Y-59953390D02*
X210086904Y-60001009D01*
X210086904Y-60001009D02*
X209991666Y-60048628D01*
X209991666Y-60048628D02*
X209610714Y-60048628D01*
X211134523Y-60524819D02*
X210563095Y-60524819D01*
X210848809Y-60524819D02*
X210848809Y-59524819D01*
X210848809Y-59524819D02*
X210753571Y-59667676D01*
X210753571Y-59667676D02*
X210658333Y-59762914D01*
X210658333Y-59762914D02*
X210563095Y-59810533D01*
X212086904Y-60524819D02*
X211515476Y-60524819D01*
X211801190Y-60524819D02*
X211801190Y-59524819D01*
X211801190Y-59524819D02*
X211705952Y-59667676D01*
X211705952Y-59667676D02*
X211610714Y-59762914D01*
X211610714Y-59762914D02*
X211515476Y-59810533D01*
X173583333Y-36359580D02*
X173535714Y-36407200D01*
X173535714Y-36407200D02*
X173392857Y-36454819D01*
X173392857Y-36454819D02*
X173297619Y-36454819D01*
X173297619Y-36454819D02*
X173154762Y-36407200D01*
X173154762Y-36407200D02*
X173059524Y-36311961D01*
X173059524Y-36311961D02*
X173011905Y-36216723D01*
X173011905Y-36216723D02*
X172964286Y-36026247D01*
X172964286Y-36026247D02*
X172964286Y-35883390D01*
X172964286Y-35883390D02*
X173011905Y-35692914D01*
X173011905Y-35692914D02*
X173059524Y-35597676D01*
X173059524Y-35597676D02*
X173154762Y-35502438D01*
X173154762Y-35502438D02*
X173297619Y-35454819D01*
X173297619Y-35454819D02*
X173392857Y-35454819D01*
X173392857Y-35454819D02*
X173535714Y-35502438D01*
X173535714Y-35502438D02*
X173583333Y-35550057D01*
X173916667Y-35454819D02*
X174535714Y-35454819D01*
X174535714Y-35454819D02*
X174202381Y-35835771D01*
X174202381Y-35835771D02*
X174345238Y-35835771D01*
X174345238Y-35835771D02*
X174440476Y-35883390D01*
X174440476Y-35883390D02*
X174488095Y-35931009D01*
X174488095Y-35931009D02*
X174535714Y-36026247D01*
X174535714Y-36026247D02*
X174535714Y-36264342D01*
X174535714Y-36264342D02*
X174488095Y-36359580D01*
X174488095Y-36359580D02*
X174440476Y-36407200D01*
X174440476Y-36407200D02*
X174345238Y-36454819D01*
X174345238Y-36454819D02*
X174059524Y-36454819D01*
X174059524Y-36454819D02*
X173964286Y-36407200D01*
X173964286Y-36407200D02*
X173916667Y-36359580D01*
X204738095Y-70704819D02*
X204738095Y-69704819D01*
X204738095Y-69704819D02*
X204976190Y-69704819D01*
X204976190Y-69704819D02*
X205119047Y-69752438D01*
X205119047Y-69752438D02*
X205214285Y-69847676D01*
X205214285Y-69847676D02*
X205261904Y-69942914D01*
X205261904Y-69942914D02*
X205309523Y-70133390D01*
X205309523Y-70133390D02*
X205309523Y-70276247D01*
X205309523Y-70276247D02*
X205261904Y-70466723D01*
X205261904Y-70466723D02*
X205214285Y-70561961D01*
X205214285Y-70561961D02*
X205119047Y-70657200D01*
X205119047Y-70657200D02*
X204976190Y-70704819D01*
X204976190Y-70704819D02*
X204738095Y-70704819D01*
X201309523Y-69704819D02*
X200833333Y-69704819D01*
X200833333Y-69704819D02*
X200785714Y-70181009D01*
X200785714Y-70181009D02*
X200833333Y-70133390D01*
X200833333Y-70133390D02*
X200928571Y-70085771D01*
X200928571Y-70085771D02*
X201166666Y-70085771D01*
X201166666Y-70085771D02*
X201261904Y-70133390D01*
X201261904Y-70133390D02*
X201309523Y-70181009D01*
X201309523Y-70181009D02*
X201357142Y-70276247D01*
X201357142Y-70276247D02*
X201357142Y-70514342D01*
X201357142Y-70514342D02*
X201309523Y-70609580D01*
X201309523Y-70609580D02*
X201261904Y-70657200D01*
X201261904Y-70657200D02*
X201166666Y-70704819D01*
X201166666Y-70704819D02*
X200928571Y-70704819D01*
X200928571Y-70704819D02*
X200833333Y-70657200D01*
X200833333Y-70657200D02*
X200785714Y-70609580D01*
X201642857Y-69704819D02*
X201976190Y-70704819D01*
X201976190Y-70704819D02*
X202309523Y-69704819D01*
X170309524Y-49407200D02*
X170452381Y-49454819D01*
X170452381Y-49454819D02*
X170690476Y-49454819D01*
X170690476Y-49454819D02*
X170785714Y-49407200D01*
X170785714Y-49407200D02*
X170833333Y-49359580D01*
X170833333Y-49359580D02*
X170880952Y-49264342D01*
X170880952Y-49264342D02*
X170880952Y-49169104D01*
X170880952Y-49169104D02*
X170833333Y-49073866D01*
X170833333Y-49073866D02*
X170785714Y-49026247D01*
X170785714Y-49026247D02*
X170690476Y-48978628D01*
X170690476Y-48978628D02*
X170500000Y-48931009D01*
X170500000Y-48931009D02*
X170404762Y-48883390D01*
X170404762Y-48883390D02*
X170357143Y-48835771D01*
X170357143Y-48835771D02*
X170309524Y-48740533D01*
X170309524Y-48740533D02*
X170309524Y-48645295D01*
X170309524Y-48645295D02*
X170357143Y-48550057D01*
X170357143Y-48550057D02*
X170404762Y-48502438D01*
X170404762Y-48502438D02*
X170500000Y-48454819D01*
X170500000Y-48454819D02*
X170738095Y-48454819D01*
X170738095Y-48454819D02*
X170880952Y-48502438D01*
X171880952Y-49359580D02*
X171833333Y-49407200D01*
X171833333Y-49407200D02*
X171690476Y-49454819D01*
X171690476Y-49454819D02*
X171595238Y-49454819D01*
X171595238Y-49454819D02*
X171452381Y-49407200D01*
X171452381Y-49407200D02*
X171357143Y-49311961D01*
X171357143Y-49311961D02*
X171309524Y-49216723D01*
X171309524Y-49216723D02*
X171261905Y-49026247D01*
X171261905Y-49026247D02*
X171261905Y-48883390D01*
X171261905Y-48883390D02*
X171309524Y-48692914D01*
X171309524Y-48692914D02*
X171357143Y-48597676D01*
X171357143Y-48597676D02*
X171452381Y-48502438D01*
X171452381Y-48502438D02*
X171595238Y-48454819D01*
X171595238Y-48454819D02*
X171690476Y-48454819D01*
X171690476Y-48454819D02*
X171833333Y-48502438D01*
X171833333Y-48502438D02*
X171880952Y-48550057D01*
X172785714Y-49454819D02*
X172309524Y-49454819D01*
X172309524Y-49454819D02*
X172309524Y-48454819D01*
X210809700Y-61636904D02*
X210857319Y-61494047D01*
X210857319Y-61494047D02*
X210857319Y-61255952D01*
X210857319Y-61255952D02*
X210809700Y-61160714D01*
X210809700Y-61160714D02*
X210762080Y-61113095D01*
X210762080Y-61113095D02*
X210666842Y-61065476D01*
X210666842Y-61065476D02*
X210571604Y-61065476D01*
X210571604Y-61065476D02*
X210476366Y-61113095D01*
X210476366Y-61113095D02*
X210428747Y-61160714D01*
X210428747Y-61160714D02*
X210381128Y-61255952D01*
X210381128Y-61255952D02*
X210333509Y-61446428D01*
X210333509Y-61446428D02*
X210285890Y-61541666D01*
X210285890Y-61541666D02*
X210238271Y-61589285D01*
X210238271Y-61589285D02*
X210143033Y-61636904D01*
X210143033Y-61636904D02*
X210047795Y-61636904D01*
X210047795Y-61636904D02*
X209952557Y-61589285D01*
X209952557Y-61589285D02*
X209904938Y-61541666D01*
X209904938Y-61541666D02*
X209857319Y-61446428D01*
X209857319Y-61446428D02*
X209857319Y-61208333D01*
X209857319Y-61208333D02*
X209904938Y-61065476D01*
X210857319Y-60113095D02*
X210857319Y-60684523D01*
X210857319Y-60398809D02*
X209857319Y-60398809D01*
X209857319Y-60398809D02*
X210000176Y-60494047D01*
X210000176Y-60494047D02*
X210095414Y-60589285D01*
X210095414Y-60589285D02*
X210143033Y-60684523D01*
X171083333Y-39609580D02*
X171035714Y-39657200D01*
X171035714Y-39657200D02*
X170892857Y-39704819D01*
X170892857Y-39704819D02*
X170797619Y-39704819D01*
X170797619Y-39704819D02*
X170654762Y-39657200D01*
X170654762Y-39657200D02*
X170559524Y-39561961D01*
X170559524Y-39561961D02*
X170511905Y-39466723D01*
X170511905Y-39466723D02*
X170464286Y-39276247D01*
X170464286Y-39276247D02*
X170464286Y-39133390D01*
X170464286Y-39133390D02*
X170511905Y-38942914D01*
X170511905Y-38942914D02*
X170559524Y-38847676D01*
X170559524Y-38847676D02*
X170654762Y-38752438D01*
X170654762Y-38752438D02*
X170797619Y-38704819D01*
X170797619Y-38704819D02*
X170892857Y-38704819D01*
X170892857Y-38704819D02*
X171035714Y-38752438D01*
X171035714Y-38752438D02*
X171083333Y-38800057D01*
X171464286Y-38800057D02*
X171511905Y-38752438D01*
X171511905Y-38752438D02*
X171607143Y-38704819D01*
X171607143Y-38704819D02*
X171845238Y-38704819D01*
X171845238Y-38704819D02*
X171940476Y-38752438D01*
X171940476Y-38752438D02*
X171988095Y-38800057D01*
X171988095Y-38800057D02*
X172035714Y-38895295D01*
X172035714Y-38895295D02*
X172035714Y-38990533D01*
X172035714Y-38990533D02*
X171988095Y-39133390D01*
X171988095Y-39133390D02*
X171416667Y-39704819D01*
X171416667Y-39704819D02*
X172035714Y-39704819D01*
X191083333Y-57204819D02*
X190750000Y-56728628D01*
X190511905Y-57204819D02*
X190511905Y-56204819D01*
X190511905Y-56204819D02*
X190892857Y-56204819D01*
X190892857Y-56204819D02*
X190988095Y-56252438D01*
X190988095Y-56252438D02*
X191035714Y-56300057D01*
X191035714Y-56300057D02*
X191083333Y-56395295D01*
X191083333Y-56395295D02*
X191083333Y-56538152D01*
X191083333Y-56538152D02*
X191035714Y-56633390D01*
X191035714Y-56633390D02*
X190988095Y-56681009D01*
X190988095Y-56681009D02*
X190892857Y-56728628D01*
X190892857Y-56728628D02*
X190511905Y-56728628D01*
X191654762Y-56633390D02*
X191559524Y-56585771D01*
X191559524Y-56585771D02*
X191511905Y-56538152D01*
X191511905Y-56538152D02*
X191464286Y-56442914D01*
X191464286Y-56442914D02*
X191464286Y-56395295D01*
X191464286Y-56395295D02*
X191511905Y-56300057D01*
X191511905Y-56300057D02*
X191559524Y-56252438D01*
X191559524Y-56252438D02*
X191654762Y-56204819D01*
X191654762Y-56204819D02*
X191845238Y-56204819D01*
X191845238Y-56204819D02*
X191940476Y-56252438D01*
X191940476Y-56252438D02*
X191988095Y-56300057D01*
X191988095Y-56300057D02*
X192035714Y-56395295D01*
X192035714Y-56395295D02*
X192035714Y-56442914D01*
X192035714Y-56442914D02*
X191988095Y-56538152D01*
X191988095Y-56538152D02*
X191940476Y-56585771D01*
X191940476Y-56585771D02*
X191845238Y-56633390D01*
X191845238Y-56633390D02*
X191654762Y-56633390D01*
X191654762Y-56633390D02*
X191559524Y-56681009D01*
X191559524Y-56681009D02*
X191511905Y-56728628D01*
X191511905Y-56728628D02*
X191464286Y-56823866D01*
X191464286Y-56823866D02*
X191464286Y-57014342D01*
X191464286Y-57014342D02*
X191511905Y-57109580D01*
X191511905Y-57109580D02*
X191559524Y-57157200D01*
X191559524Y-57157200D02*
X191654762Y-57204819D01*
X191654762Y-57204819D02*
X191845238Y-57204819D01*
X191845238Y-57204819D02*
X191940476Y-57157200D01*
X191940476Y-57157200D02*
X191988095Y-57109580D01*
X191988095Y-57109580D02*
X192035714Y-57014342D01*
X192035714Y-57014342D02*
X192035714Y-56823866D01*
X192035714Y-56823866D02*
X191988095Y-56728628D01*
X191988095Y-56728628D02*
X191940476Y-56681009D01*
X191940476Y-56681009D02*
X191845238Y-56633390D01*
X180619048Y-70073866D02*
X181380953Y-70073866D01*
X169083333Y-54454819D02*
X168750000Y-53978628D01*
X168511905Y-54454819D02*
X168511905Y-53454819D01*
X168511905Y-53454819D02*
X168892857Y-53454819D01*
X168892857Y-53454819D02*
X168988095Y-53502438D01*
X168988095Y-53502438D02*
X169035714Y-53550057D01*
X169035714Y-53550057D02*
X169083333Y-53645295D01*
X169083333Y-53645295D02*
X169083333Y-53788152D01*
X169083333Y-53788152D02*
X169035714Y-53883390D01*
X169035714Y-53883390D02*
X168988095Y-53931009D01*
X168988095Y-53931009D02*
X168892857Y-53978628D01*
X168892857Y-53978628D02*
X168511905Y-53978628D01*
X169559524Y-54454819D02*
X169750000Y-54454819D01*
X169750000Y-54454819D02*
X169845238Y-54407200D01*
X169845238Y-54407200D02*
X169892857Y-54359580D01*
X169892857Y-54359580D02*
X169988095Y-54216723D01*
X169988095Y-54216723D02*
X170035714Y-54026247D01*
X170035714Y-54026247D02*
X170035714Y-53645295D01*
X170035714Y-53645295D02*
X169988095Y-53550057D01*
X169988095Y-53550057D02*
X169940476Y-53502438D01*
X169940476Y-53502438D02*
X169845238Y-53454819D01*
X169845238Y-53454819D02*
X169654762Y-53454819D01*
X169654762Y-53454819D02*
X169559524Y-53502438D01*
X169559524Y-53502438D02*
X169511905Y-53550057D01*
X169511905Y-53550057D02*
X169464286Y-53645295D01*
X169464286Y-53645295D02*
X169464286Y-53883390D01*
X169464286Y-53883390D02*
X169511905Y-53978628D01*
X169511905Y-53978628D02*
X169559524Y-54026247D01*
X169559524Y-54026247D02*
X169654762Y-54073866D01*
X169654762Y-54073866D02*
X169845238Y-54073866D01*
X169845238Y-54073866D02*
X169940476Y-54026247D01*
X169940476Y-54026247D02*
X169988095Y-53978628D01*
X169988095Y-53978628D02*
X170035714Y-53883390D01*
X185833333Y-57454819D02*
X185500000Y-56978628D01*
X185261905Y-57454819D02*
X185261905Y-56454819D01*
X185261905Y-56454819D02*
X185642857Y-56454819D01*
X185642857Y-56454819D02*
X185738095Y-56502438D01*
X185738095Y-56502438D02*
X185785714Y-56550057D01*
X185785714Y-56550057D02*
X185833333Y-56645295D01*
X185833333Y-56645295D02*
X185833333Y-56788152D01*
X185833333Y-56788152D02*
X185785714Y-56883390D01*
X185785714Y-56883390D02*
X185738095Y-56931009D01*
X185738095Y-56931009D02*
X185642857Y-56978628D01*
X185642857Y-56978628D02*
X185261905Y-56978628D01*
X186166667Y-56454819D02*
X186833333Y-56454819D01*
X186833333Y-56454819D02*
X186404762Y-57454819D01*
X189877142Y-62199580D02*
X189829523Y-62247200D01*
X189829523Y-62247200D02*
X189686666Y-62294819D01*
X189686666Y-62294819D02*
X189591428Y-62294819D01*
X189591428Y-62294819D02*
X189448571Y-62247200D01*
X189448571Y-62247200D02*
X189353333Y-62151961D01*
X189353333Y-62151961D02*
X189305714Y-62056723D01*
X189305714Y-62056723D02*
X189258095Y-61866247D01*
X189258095Y-61866247D02*
X189258095Y-61723390D01*
X189258095Y-61723390D02*
X189305714Y-61532914D01*
X189305714Y-61532914D02*
X189353333Y-61437676D01*
X189353333Y-61437676D02*
X189448571Y-61342438D01*
X189448571Y-61342438D02*
X189591428Y-61294819D01*
X189591428Y-61294819D02*
X189686666Y-61294819D01*
X189686666Y-61294819D02*
X189829523Y-61342438D01*
X189829523Y-61342438D02*
X189877142Y-61390057D01*
X190829523Y-62294819D02*
X190258095Y-62294819D01*
X190543809Y-62294819D02*
X190543809Y-61294819D01*
X190543809Y-61294819D02*
X190448571Y-61437676D01*
X190448571Y-61437676D02*
X190353333Y-61532914D01*
X190353333Y-61532914D02*
X190258095Y-61580533D01*
X191448571Y-61294819D02*
X191543809Y-61294819D01*
X191543809Y-61294819D02*
X191639047Y-61342438D01*
X191639047Y-61342438D02*
X191686666Y-61390057D01*
X191686666Y-61390057D02*
X191734285Y-61485295D01*
X191734285Y-61485295D02*
X191781904Y-61675771D01*
X191781904Y-61675771D02*
X191781904Y-61913866D01*
X191781904Y-61913866D02*
X191734285Y-62104342D01*
X191734285Y-62104342D02*
X191686666Y-62199580D01*
X191686666Y-62199580D02*
X191639047Y-62247200D01*
X191639047Y-62247200D02*
X191543809Y-62294819D01*
X191543809Y-62294819D02*
X191448571Y-62294819D01*
X191448571Y-62294819D02*
X191353333Y-62247200D01*
X191353333Y-62247200D02*
X191305714Y-62199580D01*
X191305714Y-62199580D02*
X191258095Y-62104342D01*
X191258095Y-62104342D02*
X191210476Y-61913866D01*
X191210476Y-61913866D02*
X191210476Y-61675771D01*
X191210476Y-61675771D02*
X191258095Y-61485295D01*
X191258095Y-61485295D02*
X191305714Y-61390057D01*
X191305714Y-61390057D02*
X191353333Y-61342438D01*
X191353333Y-61342438D02*
X191448571Y-61294819D01*
X182607142Y-52204819D02*
X182273809Y-51728628D01*
X182035714Y-52204819D02*
X182035714Y-51204819D01*
X182035714Y-51204819D02*
X182416666Y-51204819D01*
X182416666Y-51204819D02*
X182511904Y-51252438D01*
X182511904Y-51252438D02*
X182559523Y-51300057D01*
X182559523Y-51300057D02*
X182607142Y-51395295D01*
X182607142Y-51395295D02*
X182607142Y-51538152D01*
X182607142Y-51538152D02*
X182559523Y-51633390D01*
X182559523Y-51633390D02*
X182511904Y-51681009D01*
X182511904Y-51681009D02*
X182416666Y-51728628D01*
X182416666Y-51728628D02*
X182035714Y-51728628D01*
X183559523Y-52204819D02*
X182988095Y-52204819D01*
X183273809Y-52204819D02*
X183273809Y-51204819D01*
X183273809Y-51204819D02*
X183178571Y-51347676D01*
X183178571Y-51347676D02*
X183083333Y-51442914D01*
X183083333Y-51442914D02*
X182988095Y-51490533D01*
X184416666Y-51538152D02*
X184416666Y-52204819D01*
X184178571Y-51157200D02*
X183940476Y-51871485D01*
X183940476Y-51871485D02*
X184559523Y-51871485D01*
X206833333Y-58429580D02*
X206785714Y-58477200D01*
X206785714Y-58477200D02*
X206642857Y-58524819D01*
X206642857Y-58524819D02*
X206547619Y-58524819D01*
X206547619Y-58524819D02*
X206404762Y-58477200D01*
X206404762Y-58477200D02*
X206309524Y-58381961D01*
X206309524Y-58381961D02*
X206261905Y-58286723D01*
X206261905Y-58286723D02*
X206214286Y-58096247D01*
X206214286Y-58096247D02*
X206214286Y-57953390D01*
X206214286Y-57953390D02*
X206261905Y-57762914D01*
X206261905Y-57762914D02*
X206309524Y-57667676D01*
X206309524Y-57667676D02*
X206404762Y-57572438D01*
X206404762Y-57572438D02*
X206547619Y-57524819D01*
X206547619Y-57524819D02*
X206642857Y-57524819D01*
X206642857Y-57524819D02*
X206785714Y-57572438D01*
X206785714Y-57572438D02*
X206833333Y-57620057D01*
X207309524Y-58524819D02*
X207500000Y-58524819D01*
X207500000Y-58524819D02*
X207595238Y-58477200D01*
X207595238Y-58477200D02*
X207642857Y-58429580D01*
X207642857Y-58429580D02*
X207738095Y-58286723D01*
X207738095Y-58286723D02*
X207785714Y-58096247D01*
X207785714Y-58096247D02*
X207785714Y-57715295D01*
X207785714Y-57715295D02*
X207738095Y-57620057D01*
X207738095Y-57620057D02*
X207690476Y-57572438D01*
X207690476Y-57572438D02*
X207595238Y-57524819D01*
X207595238Y-57524819D02*
X207404762Y-57524819D01*
X207404762Y-57524819D02*
X207309524Y-57572438D01*
X207309524Y-57572438D02*
X207261905Y-57620057D01*
X207261905Y-57620057D02*
X207214286Y-57715295D01*
X207214286Y-57715295D02*
X207214286Y-57953390D01*
X207214286Y-57953390D02*
X207261905Y-58048628D01*
X207261905Y-58048628D02*
X207309524Y-58096247D01*
X207309524Y-58096247D02*
X207404762Y-58143866D01*
X207404762Y-58143866D02*
X207595238Y-58143866D01*
X207595238Y-58143866D02*
X207690476Y-58096247D01*
X207690476Y-58096247D02*
X207738095Y-58048628D01*
X207738095Y-58048628D02*
X207785714Y-57953390D01*
X180488095Y-59454819D02*
X180488095Y-60264342D01*
X180488095Y-60264342D02*
X180535714Y-60359580D01*
X180535714Y-60359580D02*
X180583333Y-60407200D01*
X180583333Y-60407200D02*
X180678571Y-60454819D01*
X180678571Y-60454819D02*
X180869047Y-60454819D01*
X180869047Y-60454819D02*
X180964285Y-60407200D01*
X180964285Y-60407200D02*
X181011904Y-60359580D01*
X181011904Y-60359580D02*
X181059523Y-60264342D01*
X181059523Y-60264342D02*
X181059523Y-59454819D01*
X181488095Y-59550057D02*
X181535714Y-59502438D01*
X181535714Y-59502438D02*
X181630952Y-59454819D01*
X181630952Y-59454819D02*
X181869047Y-59454819D01*
X181869047Y-59454819D02*
X181964285Y-59502438D01*
X181964285Y-59502438D02*
X182011904Y-59550057D01*
X182011904Y-59550057D02*
X182059523Y-59645295D01*
X182059523Y-59645295D02*
X182059523Y-59740533D01*
X182059523Y-59740533D02*
X182011904Y-59883390D01*
X182011904Y-59883390D02*
X181440476Y-60454819D01*
X181440476Y-60454819D02*
X182059523Y-60454819D01*
X190738095Y-70454819D02*
X190738095Y-69454819D01*
X190738095Y-69454819D02*
X190976190Y-69454819D01*
X190976190Y-69454819D02*
X191119047Y-69502438D01*
X191119047Y-69502438D02*
X191214285Y-69597676D01*
X191214285Y-69597676D02*
X191261904Y-69692914D01*
X191261904Y-69692914D02*
X191309523Y-69883390D01*
X191309523Y-69883390D02*
X191309523Y-70026247D01*
X191309523Y-70026247D02*
X191261904Y-70216723D01*
X191261904Y-70216723D02*
X191214285Y-70311961D01*
X191214285Y-70311961D02*
X191119047Y-70407200D01*
X191119047Y-70407200D02*
X190976190Y-70454819D01*
X190976190Y-70454819D02*
X190738095Y-70454819D01*
X191511905Y-51854819D02*
X191511905Y-50854819D01*
X191511905Y-50854819D02*
X191750000Y-50854819D01*
X191750000Y-50854819D02*
X191892857Y-50902438D01*
X191892857Y-50902438D02*
X191988095Y-50997676D01*
X191988095Y-50997676D02*
X192035714Y-51092914D01*
X192035714Y-51092914D02*
X192083333Y-51283390D01*
X192083333Y-51283390D02*
X192083333Y-51426247D01*
X192083333Y-51426247D02*
X192035714Y-51616723D01*
X192035714Y-51616723D02*
X191988095Y-51711961D01*
X191988095Y-51711961D02*
X191892857Y-51807200D01*
X191892857Y-51807200D02*
X191750000Y-51854819D01*
X191750000Y-51854819D02*
X191511905Y-51854819D01*
X193035714Y-51854819D02*
X192464286Y-51854819D01*
X192750000Y-51854819D02*
X192750000Y-50854819D01*
X192750000Y-50854819D02*
X192654762Y-50997676D01*
X192654762Y-50997676D02*
X192559524Y-51092914D01*
X192559524Y-51092914D02*
X192464286Y-51140533D01*
X199083333Y-48204819D02*
X198750000Y-47728628D01*
X198511905Y-48204819D02*
X198511905Y-47204819D01*
X198511905Y-47204819D02*
X198892857Y-47204819D01*
X198892857Y-47204819D02*
X198988095Y-47252438D01*
X198988095Y-47252438D02*
X199035714Y-47300057D01*
X199035714Y-47300057D02*
X199083333Y-47395295D01*
X199083333Y-47395295D02*
X199083333Y-47538152D01*
X199083333Y-47538152D02*
X199035714Y-47633390D01*
X199035714Y-47633390D02*
X198988095Y-47681009D01*
X198988095Y-47681009D02*
X198892857Y-47728628D01*
X198892857Y-47728628D02*
X198511905Y-47728628D01*
X200035714Y-48204819D02*
X199464286Y-48204819D01*
X199750000Y-48204819D02*
X199750000Y-47204819D01*
X199750000Y-47204819D02*
X199654762Y-47347676D01*
X199654762Y-47347676D02*
X199559524Y-47442914D01*
X199559524Y-47442914D02*
X199464286Y-47490533D01*
X175357142Y-55204819D02*
X175023809Y-54728628D01*
X174785714Y-55204819D02*
X174785714Y-54204819D01*
X174785714Y-54204819D02*
X175166666Y-54204819D01*
X175166666Y-54204819D02*
X175261904Y-54252438D01*
X175261904Y-54252438D02*
X175309523Y-54300057D01*
X175309523Y-54300057D02*
X175357142Y-54395295D01*
X175357142Y-54395295D02*
X175357142Y-54538152D01*
X175357142Y-54538152D02*
X175309523Y-54633390D01*
X175309523Y-54633390D02*
X175261904Y-54681009D01*
X175261904Y-54681009D02*
X175166666Y-54728628D01*
X175166666Y-54728628D02*
X174785714Y-54728628D01*
X176309523Y-55204819D02*
X175738095Y-55204819D01*
X176023809Y-55204819D02*
X176023809Y-54204819D01*
X176023809Y-54204819D02*
X175928571Y-54347676D01*
X175928571Y-54347676D02*
X175833333Y-54442914D01*
X175833333Y-54442914D02*
X175738095Y-54490533D01*
X176642857Y-54204819D02*
X177261904Y-54204819D01*
X177261904Y-54204819D02*
X176928571Y-54585771D01*
X176928571Y-54585771D02*
X177071428Y-54585771D01*
X177071428Y-54585771D02*
X177166666Y-54633390D01*
X177166666Y-54633390D02*
X177214285Y-54681009D01*
X177214285Y-54681009D02*
X177261904Y-54776247D01*
X177261904Y-54776247D02*
X177261904Y-55014342D01*
X177261904Y-55014342D02*
X177214285Y-55109580D01*
X177214285Y-55109580D02*
X177166666Y-55157200D01*
X177166666Y-55157200D02*
X177071428Y-55204819D01*
X177071428Y-55204819D02*
X176785714Y-55204819D01*
X176785714Y-55204819D02*
X176690476Y-55157200D01*
X176690476Y-55157200D02*
X176642857Y-55109580D01*
D12*
%TO.C,D3*%
X190315000Y-42790000D02*
X190315000Y-44710000D01*
X190315000Y-44710000D02*
X193000000Y-44710000D01*
X193000000Y-42790000D02*
X190315000Y-42790000D01*
%TO.C,C4*%
X187892164Y-54140000D02*
X188107836Y-54140000D01*
X187892164Y-54860000D02*
X188107836Y-54860000D01*
D13*
%TO.C,U1*%
X176200000Y-33400000D02*
X189400000Y-33400000D01*
X176200000Y-38780000D02*
X176200000Y-33400000D01*
X189400000Y-33400000D02*
X189400000Y-38780000D01*
D10*
X175650000Y-40400000D02*
G75*
G02*
X175450000Y-40400000I-100000J0D01*
G01*
X175450000Y-40400000D02*
G75*
G02*
X175650000Y-40400000I100000J0D01*
G01*
D12*
%TO.C,3V3*%
X191920000Y-34170000D02*
X193250000Y-34170000D01*
X191920000Y-35500000D02*
X191920000Y-34170000D01*
X191920000Y-36770000D02*
X191920000Y-36830000D01*
X191920000Y-36770000D02*
X194580000Y-36770000D01*
X191920000Y-36830000D02*
X194580000Y-36830000D01*
X194580000Y-36770000D02*
X194580000Y-36830000D01*
D14*
%TO.C,G\u002A\u002A\u002A*%
G36*
X208084756Y-42805262D02*
G01*
X208155306Y-42817433D01*
X208224906Y-42840704D01*
X208286350Y-42868642D01*
X208384087Y-42929693D01*
X208465994Y-43007790D01*
X208530241Y-43100479D01*
X208574998Y-43205304D01*
X208593017Y-43280205D01*
X208598440Y-43315394D01*
X208601149Y-43346733D01*
X208600801Y-43379494D01*
X208597053Y-43418951D01*
X208589562Y-43470376D01*
X208577985Y-43539044D01*
X208575113Y-43555517D01*
X208566129Y-43607188D01*
X208553706Y-43679061D01*
X208538442Y-43767670D01*
X208520930Y-43869549D01*
X208501766Y-43981233D01*
X208481545Y-44099256D01*
X208460864Y-44220155D01*
X208446932Y-44301701D01*
X208422896Y-44442379D01*
X208395921Y-44600096D01*
X208367143Y-44768229D01*
X208337693Y-44940160D01*
X208308708Y-45109265D01*
X208281321Y-45268925D01*
X208256666Y-45412517D01*
X208254684Y-45424055D01*
X208217852Y-45638485D01*
X208182499Y-45844452D01*
X208148858Y-46040598D01*
X208117161Y-46225566D01*
X208087639Y-46397999D01*
X208060524Y-46556540D01*
X208036049Y-46699833D01*
X208014445Y-46826520D01*
X207995943Y-46935245D01*
X207980777Y-47024651D01*
X207969177Y-47093380D01*
X207961376Y-47140076D01*
X207960301Y-47146597D01*
X207943635Y-47236409D01*
X207925505Y-47307954D01*
X207904012Y-47366967D01*
X207877256Y-47419184D01*
X207861968Y-47443548D01*
X207813077Y-47504246D01*
X207748759Y-47565289D01*
X207676622Y-47620251D01*
X207604272Y-47662704D01*
X207600425Y-47664554D01*
X207561967Y-47681383D01*
X207527906Y-47691633D01*
X207489809Y-47696870D01*
X207439242Y-47698660D01*
X207416099Y-47698761D01*
X207322298Y-47694606D01*
X207238298Y-47680980D01*
X207161642Y-47656166D01*
X207089873Y-47618447D01*
X207020532Y-47566107D01*
X206951164Y-47497430D01*
X206879309Y-47410698D01*
X206802510Y-47304196D01*
X206759689Y-47240254D01*
X206709811Y-47163564D01*
X206652336Y-47074051D01*
X206592151Y-46979394D01*
X206534143Y-46887277D01*
X206488594Y-46814119D01*
X206449776Y-46751390D01*
X206400727Y-46672229D01*
X206343901Y-46580591D01*
X206281751Y-46480430D01*
X206216730Y-46375697D01*
X206151291Y-46270348D01*
X206087887Y-46168334D01*
X206087859Y-46168289D01*
X206027850Y-46071756D01*
X205968706Y-45976589D01*
X205912330Y-45885853D01*
X205860626Y-45802612D01*
X205815497Y-45729930D01*
X205778847Y-45670873D01*
X205752579Y-45628505D01*
X205748623Y-45622117D01*
X205678722Y-45509251D01*
X205620382Y-45415181D01*
X205572567Y-45338268D01*
X205534239Y-45276872D01*
X205504361Y-45229354D01*
X205481896Y-45194074D01*
X205465808Y-45169391D01*
X205455058Y-45153667D01*
X205448611Y-45145261D01*
X205445429Y-45142534D01*
X205445298Y-45142513D01*
X205441942Y-45153829D01*
X205434905Y-45186436D01*
X205424634Y-45237975D01*
X205411576Y-45306087D01*
X205396180Y-45388414D01*
X205378891Y-45482596D01*
X205360158Y-45586275D01*
X205344670Y-45673133D01*
X205320934Y-45806896D01*
X205294877Y-45953551D01*
X205267584Y-46107006D01*
X205240139Y-46261166D01*
X205213628Y-46409938D01*
X205189135Y-46547228D01*
X205167834Y-46666446D01*
X205148685Y-46773893D01*
X205130201Y-46878335D01*
X205112973Y-46976375D01*
X205097593Y-47064619D01*
X205084652Y-47139669D01*
X205074743Y-47198131D01*
X205068457Y-47236607D01*
X205068158Y-47238529D01*
X205042618Y-47348741D01*
X205001735Y-47442142D01*
X204943539Y-47521860D01*
X204866063Y-47591022D01*
X204830899Y-47615353D01*
X204733115Y-47664916D01*
X204624761Y-47693428D01*
X204505313Y-47700983D01*
X204407419Y-47692856D01*
X204339786Y-47682947D01*
X204289286Y-47673774D01*
X204249186Y-47663489D01*
X204212752Y-47650244D01*
X204173248Y-47632191D01*
X204156838Y-47624089D01*
X204076769Y-47572526D01*
X204006813Y-47504908D01*
X203949432Y-47425554D01*
X203907088Y-47338783D01*
X203882244Y-47248912D01*
X203877361Y-47160262D01*
X203879669Y-47137917D01*
X203882716Y-47119112D01*
X203889648Y-47078281D01*
X203900181Y-47017039D01*
X203914031Y-46937005D01*
X203930916Y-46839794D01*
X203950551Y-46727023D01*
X203972652Y-46600309D01*
X203996937Y-46461268D01*
X204023121Y-46311516D01*
X204050921Y-46152671D01*
X204080054Y-45986349D01*
X204110235Y-45814167D01*
X204141181Y-45637741D01*
X204172608Y-45458687D01*
X204204234Y-45278623D01*
X204235773Y-45099164D01*
X204266943Y-44921928D01*
X204297460Y-44748531D01*
X204327040Y-44580590D01*
X204355400Y-44419721D01*
X204382256Y-44267541D01*
X204407325Y-44125666D01*
X204430322Y-43995713D01*
X204450965Y-43879299D01*
X204468969Y-43778040D01*
X204478814Y-43722838D01*
X204501415Y-43597671D01*
X204520923Y-43493658D01*
X204538097Y-43408256D01*
X204553698Y-43338923D01*
X204568483Y-43283117D01*
X204583211Y-43238293D01*
X204598643Y-43201911D01*
X204615536Y-43171428D01*
X204634651Y-43144300D01*
X204656745Y-43117985D01*
X204660689Y-43113590D01*
X204731041Y-43047962D01*
X204814839Y-42989411D01*
X204905204Y-42941763D01*
X204995256Y-42908842D01*
X205049767Y-42897238D01*
X205153216Y-42894223D01*
X205258824Y-42912847D01*
X205362013Y-42951706D01*
X205458205Y-43009397D01*
X205485994Y-43030973D01*
X205515744Y-43059958D01*
X205553433Y-43104639D01*
X205599617Y-43165822D01*
X205654854Y-43244311D01*
X205719700Y-43340909D01*
X205794712Y-43456422D01*
X205880447Y-43591653D01*
X205937837Y-43683506D01*
X205988651Y-43765189D01*
X206048831Y-43861879D01*
X206115039Y-43968218D01*
X206183937Y-44078843D01*
X206252185Y-44188392D01*
X206316444Y-44291505D01*
X206334024Y-44319707D01*
X206399260Y-44424386D01*
X206473183Y-44543065D01*
X206551814Y-44669349D01*
X206631172Y-44796845D01*
X206707277Y-44919157D01*
X206776147Y-45029893D01*
X206789852Y-45051937D01*
X206842790Y-45137032D01*
X206891712Y-45215554D01*
X206935178Y-45285203D01*
X206971750Y-45343677D01*
X206999988Y-45388677D01*
X207018453Y-45417900D01*
X207025706Y-45429046D01*
X207025715Y-45429056D01*
X207028153Y-45431322D01*
X207030603Y-45431729D01*
X207033301Y-45429005D01*
X207036484Y-45421880D01*
X207040388Y-45409082D01*
X207045250Y-45389341D01*
X207051304Y-45361384D01*
X207058789Y-45323941D01*
X207067940Y-45275740D01*
X207078993Y-45215511D01*
X207092184Y-45141982D01*
X207107750Y-45053882D01*
X207125928Y-44949939D01*
X207146953Y-44828882D01*
X207171062Y-44689441D01*
X207198490Y-44530344D01*
X207229475Y-44350320D01*
X207264252Y-44148098D01*
X207269833Y-44115642D01*
X207298956Y-43946428D01*
X207324393Y-43799174D01*
X207346483Y-43672170D01*
X207365567Y-43563709D01*
X207381985Y-43472084D01*
X207396076Y-43395584D01*
X207408181Y-43332503D01*
X207418640Y-43281133D01*
X207427793Y-43239765D01*
X207435981Y-43206690D01*
X207443543Y-43180202D01*
X207450820Y-43158591D01*
X207458152Y-43140150D01*
X207465879Y-43123170D01*
X207468575Y-43117592D01*
X207527134Y-43024238D01*
X207603404Y-42944922D01*
X207694500Y-42881352D01*
X207797532Y-42835236D01*
X207909614Y-42808284D01*
X208002552Y-42801664D01*
X208084756Y-42805262D01*
G37*
D12*
%TO.C,R3*%
X192012742Y-39477500D02*
X192487258Y-39477500D01*
X192012742Y-40522500D02*
X192487258Y-40522500D01*
%TO.C,C8*%
X207014420Y-61990000D02*
X207295580Y-61990000D01*
X207014420Y-63010000D02*
X207295580Y-63010000D01*
%TO.C,R6*%
X188737258Y-58227500D02*
X188262742Y-58227500D01*
X188737258Y-59272500D02*
X188262742Y-59272500D01*
%TO.C,R2*%
X199012742Y-44977500D02*
X199487258Y-44977500D01*
X199012742Y-46022500D02*
X199487258Y-46022500D01*
%TO.C,R4*%
X195512742Y-39977500D02*
X195987258Y-39977500D01*
X195512742Y-41022500D02*
X195987258Y-41022500D01*
%TO.C,D*%
X194420000Y-34170000D02*
X195750000Y-34170000D01*
X194420000Y-35500000D02*
X194420000Y-34170000D01*
X194420000Y-36770000D02*
X194420000Y-36830000D01*
X194420000Y-36770000D02*
X197080000Y-36770000D01*
X194420000Y-36830000D02*
X197080000Y-36830000D01*
X197080000Y-36770000D02*
X197080000Y-36830000D01*
%TO.C,5V*%
X187420000Y-65670000D02*
X188750000Y-65670000D01*
X187420000Y-67000000D02*
X187420000Y-65670000D01*
X187420000Y-68270000D02*
X187420000Y-68330000D01*
X187420000Y-68270000D02*
X190080000Y-68270000D01*
X187420000Y-68330000D02*
X190080000Y-68330000D01*
X190080000Y-68270000D02*
X190080000Y-68330000D01*
D13*
%TO.C,BOOT*%
X202880000Y-39100000D02*
X202880000Y-34900000D01*
X205000000Y-34900000D02*
X204000000Y-34900000D01*
X205000000Y-39100000D02*
X204000000Y-39100000D01*
X206120000Y-34900000D02*
X206120000Y-39100000D01*
D10*
X203500000Y-40100000D02*
G75*
G02*
X203300000Y-40100000I-100000J0D01*
G01*
X203300000Y-40100000D02*
G75*
G02*
X203500000Y-40100000I100000J0D01*
G01*
D12*
%TO.C,C6*%
X180140580Y-53490000D02*
X179859420Y-53490000D01*
X180140580Y-54510000D02*
X179859420Y-54510000D01*
%TO.C,C5*%
X172892164Y-42590000D02*
X173107836Y-42590000D01*
X172892164Y-43310000D02*
X173107836Y-43310000D01*
%TO.C,C11*%
X193609420Y-56740000D02*
X193890580Y-56740000D01*
X193609420Y-57760000D02*
X193890580Y-57760000D01*
D13*
%TO.C,RST*%
X207880000Y-39100000D02*
X207880000Y-34900000D01*
X210000000Y-34900000D02*
X209000000Y-34900000D01*
X210000000Y-39100000D02*
X209000000Y-39100000D01*
X211120000Y-34900000D02*
X211120000Y-39100000D01*
D10*
X208500000Y-40100000D02*
G75*
G02*
X208300000Y-40100000I-100000J0D01*
G01*
X208300000Y-40100000D02*
G75*
G02*
X208500000Y-40100000I100000J0D01*
G01*
D12*
%TO.C,D5*%
X211260000Y-53850000D02*
X205750000Y-53850000D01*
X211260000Y-57150000D02*
X205750000Y-57150000D01*
X211260000Y-57150000D02*
X211260000Y-53850000D01*
%TO.C,GND*%
X191920000Y-65670000D02*
X193250000Y-65670000D01*
X191920000Y-67000000D02*
X191920000Y-65670000D01*
X191920000Y-68270000D02*
X191920000Y-68330000D01*
X191920000Y-68270000D02*
X194580000Y-68270000D01*
X191920000Y-68330000D02*
X194580000Y-68330000D01*
X194580000Y-68270000D02*
X194580000Y-68330000D01*
%TO.C,R5*%
X195512742Y-41977500D02*
X195987258Y-41977500D01*
X195512742Y-43022500D02*
X195987258Y-43022500D01*
%TO.C,R10*%
X175062258Y-50727500D02*
X174587742Y-50727500D01*
X175062258Y-51772500D02*
X174587742Y-51772500D01*
%TO.C,U3*%
X202000000Y-59440000D02*
X201200000Y-59440000D01*
X202000000Y-59440000D02*
X202800000Y-59440000D01*
X202000000Y-62560000D02*
X201200000Y-62560000D01*
X202000000Y-62560000D02*
X202800000Y-62560000D01*
X200700000Y-59490000D02*
X200460000Y-59160000D01*
X200940000Y-59160000D01*
X200700000Y-59490000D01*
G36*
X200700000Y-59490000D02*
G01*
X200460000Y-59160000D01*
X200940000Y-59160000D01*
X200700000Y-59490000D01*
G37*
%TO.C,R12*%
X196762742Y-62477500D02*
X197237258Y-62477500D01*
X196762742Y-63522500D02*
X197237258Y-63522500D01*
%TO.C,C7*%
X178107836Y-55640000D02*
X177892164Y-55640000D01*
X178107836Y-56360000D02*
X177892164Y-56360000D01*
%TO.C,C1*%
X172892164Y-40840000D02*
X173107836Y-40840000D01*
X172892164Y-41560000D02*
X173107836Y-41560000D01*
D10*
%TO.C,IC1*%
X192875000Y-58486000D02*
X194125000Y-58486000D01*
X194475000Y-58552000D02*
X195025000Y-58552000D01*
X194475000Y-61448000D02*
X194475000Y-58552000D01*
X195025000Y-58552000D02*
X195025000Y-61448000D01*
X195025000Y-61448000D02*
X194475000Y-61448000D01*
%TO.C,BAT1*%
D13*
X176163500Y-57500000D02*
G75*
G02*
X176036500Y-57500000I-63500J0D01*
G01*
X176036500Y-57500000D02*
G75*
G02*
X176163500Y-57500000I63500J0D01*
G01*
D12*
%TO.C,D2*%
X185610000Y-60150000D02*
X182950000Y-60150000D01*
X185610000Y-61850000D02*
X182950000Y-61850000D01*
X185610000Y-61850000D02*
X185610000Y-60150000D01*
D13*
%TO.C,J1*%
X214150000Y-42530000D02*
X215830000Y-42530000D01*
X214150000Y-51470000D02*
X215830000Y-51470000D01*
X219600000Y-42530000D02*
X218170000Y-42530000D01*
X219600000Y-51470000D02*
X218170000Y-51470000D01*
X219600000Y-51470000D02*
X219600000Y-42530000D01*
D10*
X211100000Y-50200000D02*
G75*
G02*
X210900000Y-50200000I-100000J0D01*
G01*
X210900000Y-50200000D02*
G75*
G02*
X211100000Y-50200000I100000J0D01*
G01*
D12*
%TO.C,3V3*%
X166920000Y-46080000D02*
X166920000Y-44750000D01*
X168250000Y-46080000D02*
X166920000Y-46080000D01*
X169520000Y-43420000D02*
X169580000Y-43420000D01*
X169520000Y-46080000D02*
X169520000Y-43420000D01*
X169520000Y-46080000D02*
X169580000Y-46080000D01*
X169580000Y-46080000D02*
X169580000Y-43420000D01*
%TO.C,GND*%
X196920000Y-34170000D02*
X198250000Y-34170000D01*
X196920000Y-35500000D02*
X196920000Y-34170000D01*
X196920000Y-36770000D02*
X196920000Y-36830000D01*
X196920000Y-36770000D02*
X199580000Y-36770000D01*
X196920000Y-36830000D02*
X199580000Y-36830000D01*
X199580000Y-36770000D02*
X199580000Y-36830000D01*
%TO.C,SDA*%
X166920000Y-52830000D02*
X166920000Y-51500000D01*
X168250000Y-52830000D02*
X166920000Y-52830000D01*
X169520000Y-50170000D02*
X169580000Y-50170000D01*
X169520000Y-52830000D02*
X169520000Y-50170000D01*
X169520000Y-52830000D02*
X169580000Y-52830000D01*
X169580000Y-52830000D02*
X169580000Y-50170000D01*
%TO.C,R15*%
X199262742Y-57477500D02*
X199737258Y-57477500D01*
X199262742Y-58522500D02*
X199737258Y-58522500D01*
%TO.C,L1*%
X196807500Y-53220000D02*
X196807500Y-56280000D01*
X196807500Y-53220000D02*
X200207500Y-53220000D01*
X196807500Y-56280000D02*
X200207500Y-56280000D01*
%TO.C,GND*%
X166920000Y-48330000D02*
X166920000Y-47000000D01*
X168250000Y-48330000D02*
X166920000Y-48330000D01*
X169520000Y-45670000D02*
X169580000Y-45670000D01*
X169520000Y-48330000D02*
X169520000Y-45670000D01*
X169520000Y-48330000D02*
X169580000Y-48330000D01*
X169580000Y-48330000D02*
X169580000Y-45670000D01*
%TO.C,R11*%
X210587742Y-60977500D02*
X211062258Y-60977500D01*
X210587742Y-62022500D02*
X211062258Y-62022500D01*
%TO.C,C3*%
X173890580Y-36990000D02*
X173609420Y-36990000D01*
X173890580Y-38010000D02*
X173609420Y-38010000D01*
%TO.C,SCL*%
X166920000Y-50580000D02*
X166920000Y-49250000D01*
X168250000Y-50580000D02*
X166920000Y-50580000D01*
X169520000Y-47920000D02*
X169580000Y-47920000D01*
X169520000Y-50580000D02*
X169520000Y-47920000D01*
X169520000Y-50580000D02*
X169580000Y-50580000D01*
X169580000Y-50580000D02*
X169580000Y-47920000D01*
D13*
%TO.C,S1*%
X213887500Y-54200000D02*
X213887500Y-62800000D01*
X213887500Y-62800000D02*
X214517500Y-62800000D01*
X214517500Y-54200000D02*
X213887500Y-54200000D01*
X218187500Y-54200000D02*
X217557500Y-54200000D01*
X218187500Y-62800000D02*
X217557500Y-62800000D01*
X218187500Y-62800000D02*
X218187500Y-54200000D01*
D10*
X213337500Y-60500000D02*
G75*
G02*
X213137500Y-60500000I-100000J0D01*
G01*
X213137500Y-60500000D02*
G75*
G02*
X213337500Y-60500000I100000J0D01*
G01*
D12*
%TO.C,C2*%
X173587836Y-38890000D02*
X173372164Y-38890000D01*
X173587836Y-39610000D02*
X173372164Y-39610000D01*
%TO.C,R8*%
X190512742Y-54727500D02*
X190987258Y-54727500D01*
X190512742Y-55772500D02*
X190987258Y-55772500D01*
%TO.C,R9*%
X172012742Y-52727500D02*
X172487258Y-52727500D01*
X172012742Y-53772500D02*
X172487258Y-53772500D01*
%TO.C,R7*%
X188512742Y-56477500D02*
X188987258Y-56477500D01*
X188512742Y-57522500D02*
X188987258Y-57522500D01*
%TO.C,C10*%
X190412164Y-62640000D02*
X190627836Y-62640000D01*
X190412164Y-63360000D02*
X190627836Y-63360000D01*
%TO.C,R14*%
X179512742Y-51477500D02*
X179987258Y-51477500D01*
X179512742Y-52522500D02*
X179987258Y-52522500D01*
%TO.C,C9*%
X206859420Y-58990000D02*
X207140580Y-58990000D01*
X206859420Y-60010000D02*
X207140580Y-60010000D01*
%TO.C,U2*%
X180925000Y-55515000D02*
X183925000Y-55515000D01*
X180925000Y-58735000D02*
X183925000Y-58735000D01*
X180375000Y-55825000D02*
X179895000Y-55825000D01*
X180375000Y-55345000D01*
X180375000Y-55825000D01*
G36*
X180375000Y-55825000D02*
G01*
X179895000Y-55825000D01*
X180375000Y-55345000D01*
X180375000Y-55825000D01*
G37*
%TO.C,D*%
X189670000Y-65670000D02*
X191000000Y-65670000D01*
X189670000Y-67000000D02*
X189670000Y-65670000D01*
X189670000Y-68270000D02*
X189670000Y-68330000D01*
X189670000Y-68270000D02*
X192330000Y-68270000D01*
X189670000Y-68330000D02*
X192330000Y-68330000D01*
X192330000Y-68270000D02*
X192330000Y-68330000D01*
%TO.C,D1*%
X190640000Y-52400000D02*
X190640000Y-54100000D01*
X190640000Y-52400000D02*
X193300000Y-52400000D01*
X190640000Y-54100000D02*
X193300000Y-54100000D01*
%TO.C,R1*%
X199012742Y-48727500D02*
X199487258Y-48727500D01*
X199012742Y-49772500D02*
X199487258Y-49772500D01*
%TO.C,R13*%
X175762742Y-52727500D02*
X176237258Y-52727500D01*
X175762742Y-53772500D02*
X176237258Y-53772500D01*
%TD*%
M02*
