M48
; DRILL file {KiCad 8.0.4} date 2026-06-11T11:33:00-0700
; FORMAT={-:-/ absolute / inch / decimal}
; #@! TF.CreationDate,2026-06-11T11:33:00-07:00
; #@! TF.GenerationSoftware,Kicad,Pcbnew,8.0.4
; #@! TF.FileFunction,Plated,1,2,PTH
FMAT,2
INCH
; #@! TA.AperFunction,Plated,PTH,ViaDrill
T1C0.0118
; #@! TA.AperFunction,Plated,PTH,ComponentDrill
T2C0.0236
; #@! TA.AperFunction,Plated,PTH,ComponentDrill
T3C0.0315
; #@! TA.AperFunction,Plated,PTH,ComponentDrill
T4C0.0394
; #@! TA.AperFunction,Plated,PTH,ComponentDrill
T5C0.0630
%
G90
G05
T1
X6.752Y-2.1457
X6.8701Y-2.2343
X6.8711Y-1.5837
X6.8799Y-1.9488
X6.8996Y-1.6831
X6.9783Y-2.0472
X6.9986Y-2.1198
X7.0276Y-1.7815
X7.0472Y-2.0079
X7.0768Y-2.185
X7.0965Y-1.9783
X7.1358Y-1.998
X7.1752Y-2.1555
X7.2441Y-1.8996
X7.2638Y-1.874
X7.3179Y-2.2648
X7.3425Y-2.1752
X7.3425Y-2.2146
X7.3622Y-1.7717
X7.3622Y-1.998
X7.3819Y-2.1063
X7.4311Y-2.1063
X7.4508Y-2.2244
X7.4508Y-2.3524
X7.4705Y-1.9291
X7.4902Y-1.7815
X7.5073Y-1.8183
X7.5295Y-1.8406
X7.5886Y-1.624
X7.6378Y-1.5256
X7.6378Y-2.3622
X7.6476Y-1.7618
X7.7362Y-1.811
X7.7362Y-1.9193
X7.7362Y-2.2539
X7.8051Y-2.0669
X7.8346Y-1.7126
X7.8642Y-1.6732
X7.8839Y-2.2441
X8.0246Y-1.5974
X8.0709Y-2.5394
X8.2283Y-2.4606
X8.2579Y-2.3327
T3
X8.5054Y-2.2244
X8.5054Y-2.3031
X8.5054Y-2.3819
T4
X6.624Y-1.7618
X6.624Y-1.8504
X6.624Y-1.939
X6.624Y-2.0276
X7.4311Y-2.6378
X7.5197Y-2.6378
X7.6083Y-1.3976
X7.6083Y-2.6378
X7.7067Y-1.3976
X7.8051Y-1.3976
T5
X8.5054Y-2.1417
X8.5054Y-2.4646
T2
G00X8.3575Y-1.6801
M15
G01X8.4008Y-1.6801
M16
G05
G00X8.3575Y-2.0207
M15
G01X8.4008Y-2.0207
M16
G05
G00X8.5276Y-1.6801
M15
G01X8.5591Y-1.6801
M16
G05
G00X8.5276Y-2.0207
M15
G01X8.5591Y-2.0207
M16
G05
M30
